<svg width="491" height="752" viewBox="0 0 491 752" fill="none" xmlns="http://www.w3.org/2000/svg">
<path d="M129.644 622.98C76.9678 605.194 31.2818 560.991 21.9255 506.11C12.5692 451.229 47.1295 389.367 101.433 377.47C127.11 371.844 154.822 376.869 179.355 367.421C225.622 349.601 241.345 289.321 284.086 264.183C325.268 239.961 381.732 257.432 412.411 294.091C443.09 330.749 452.042 381.332 450.162 429.127C447.399 499.347 417.609 575.077 354.014 604.769C300.424 629.791 187.118 636.882 129.644 622.98Z" fill="#DDD2F3"/>
<g opacity="0.6" clip-path="url(#clip0_506_116428)">
<path d="M164.4 73V178.504H14.5102L9.11084 73.7375L164.4 73Z" fill="#E0E0E0"/>
<path d="M9.11133 73.7369L9.11133 178.281H159V73.7369L9.11133 73.7369Z" fill="white"/>
<path d="M159.71 179H8.3999V73.0187H159.71V179ZM9.8219 177.562H158.288V74.4563H9.8219V177.562Z" fill="#E0E0E0"/>
<path d="M142.765 86.726H25.3442V165.293H142.765V86.726Z" fill="white"/>
<path d="M142.766 86.726C142.766 86.726 142.564 86.739 142.187 86.7462C141.789 86.7505 141.237 86.7577 140.517 86.7663C139.03 86.7763 136.87 86.7893 134.069 86.808C128.428 86.8295 120.227 86.8612 109.871 86.9014C89.1635 86.9431 59.8534 87.002 25.3444 87.0711L25.6842 86.7275C25.6942 110.732 25.7041 137.329 25.7141 165.284V165.293L25.3444 164.919C69.6381 164.948 110.476 164.974 142.764 164.995L142.47 165.293C142.535 141.384 142.588 121.78 142.625 108.129C142.658 101.306 142.683 95.9754 142.7 92.3211C142.714 90.5155 142.726 89.1297 142.733 88.1679C142.744 87.2263 142.766 86.726 142.766 86.726C142.766 86.726 142.787 87.1832 142.797 88.1047C142.804 89.0549 142.815 90.4221 142.83 92.2032C142.847 95.8417 142.872 101.149 142.905 107.943C142.942 121.639 142.995 141.305 143.06 165.293L143.061 165.592H142.766C110.478 165.613 69.6395 165.639 25.3458 165.668H24.9761V165.293V165.283C24.9875 137.327 24.9974 110.731 25.0059 86.726V86.381H25.3458C59.9458 86.45 89.3327 86.509 110.095 86.5506C120.419 86.5909 128.594 86.6211 134.215 86.6427C136.987 86.6613 139.124 86.6743 140.596 86.6843C141.298 86.693 141.838 86.7002 142.227 86.7045C142.591 86.7131 142.766 86.726 142.766 86.726Z" fill="#E0E0E0"/>
<path d="M9.11094 73.4442C9.1735 73.3623 10.1547 74.0135 11.6876 75.1319C13.2205 76.2518 15.3094 77.8389 17.5633 79.6632C19.8186 81.4889 21.8008 83.214 23.1972 84.5064C24.5936 85.7988 25.4098 86.6513 25.3444 86.7274C25.2051 86.887 21.6017 83.8825 17.1011 80.2483C12.5962 76.6169 8.97869 73.6153 9.11094 73.4442Z" fill="#E0E0E0"/>
<path d="M158.999 73.7375C159.126 73.8999 155.595 76.939 151.113 80.5243C146.629 84.1125 142.892 86.887 142.766 86.726C142.639 86.565 146.17 83.5245 150.653 79.9378C155.134 76.3524 158.872 73.5765 158.999 73.7375Z" fill="#E0E0E0"/>
<path d="M158.879 178.295C153.309 173.731 147.738 169.167 142.168 164.602L158.879 178.295Z" fill="white"/>
<path d="M142.168 164.603C142.296 164.442 146.143 167.377 150.757 171.158C155.373 174.94 159.009 178.136 158.88 178.296C158.752 178.457 154.907 175.521 150.291 171.739C145.676 167.959 142.04 164.764 142.168 164.603Z" fill="#E0E0E0"/>
<path d="M9.11075 178.281C8.9842 178.119 12.478 175.111 16.9147 171.565C21.3527 168.017 25.0513 165.273 25.1793 165.435C25.3059 165.597 21.812 168.603 17.374 172.153C12.9373 175.698 9.23731 178.444 9.11075 178.281Z" fill="#E0E0E0"/>
<path d="M49.1865 111.205V137.511H123.069V111.205H49.1865Z" fill="#E0E0E0"/>
</g>
<g clip-path="url(#clip1_506_116428)">
<path d="M422.39 278.934C432.704 286.952 447.564 285.09 455.582 274.777C463.6 264.463 461.738 249.603 451.425 241.585C442.603 234.727 430.459 235.103 422.112 241.807L422.105 241.801L416.916 237.767L409.21 240.17L410.092 232.464L403.59 227.41L395.885 229.812L396.767 222.106L391.178 217.762L386.482 219.226L387.02 214.53L383.768 212L376.392 212.728L375.4 224.064L414.06 254.118C411.667 263.033 414.645 272.913 422.39 278.934ZM450.554 270.868C448.254 273.826 443.991 274.361 441.033 272.06C438.075 269.76 437.54 265.497 439.84 262.539C442.14 259.581 446.403 259.046 449.361 261.346C452.32 263.647 452.854 267.91 450.554 270.868Z" fill="#EBEBEB"/>
</g>
<path d="M116.94 10.5004C112.699 14.586 111.085 20.9459 115.131 25.8546C118.94 30.4736 126.309 31.4537 131.068 27.7715C142.55 18.8801 130.582 2.47537 118.189 5.87057C115.895 6.49871 116.467 9.78021 118.735 9.91017C122.357 10.1186 126.236 10.2567 129.132 12.8045C132.242 15.5418 132.309 20.1689 129.758 23.315C123.002 31.646 111.271 19.3783 118.365 11.93C119.258 10.9877 117.876 9.5988 116.94 10.5004Z" fill="#3D3D3D" fill-opacity="0.1"/>
<path d="M111.541 5.08542C107.301 9.17104 105.686 15.531 109.733 20.4397C113.541 25.0586 120.91 26.0388 125.669 22.3566C137.152 13.4651 125.183 -2.93961 112.791 0.455597C110.496 1.08374 111.069 4.36523 113.336 4.49519C116.959 4.70367 120.837 4.84175 123.734 7.38951C126.843 10.1268 126.911 14.7539 124.36 17.9C117.604 26.231 105.873 13.9633 112.966 6.51498C113.86 5.57277 112.478 4.18382 111.541 5.08542Z" fill="#8AA9FC"/>
<path d="M430.798 154.247C430.798 154.247 445.148 186.567 449.148 184.875C453.148 183.182 490.21 160.12 490.21 160.12C490.21 160.12 475.021 131.182 471.86 129.493C468.699 127.803 430.798 154.247 430.798 154.247Z" fill="#3D3D3D" fill-opacity="0.09"/>
<path d="M425.4 148.832C425.4 148.832 439.749 181.152 443.75 179.46C447.75 177.767 484.811 154.705 484.811 154.705C484.811 154.705 469.622 125.767 466.461 124.078C463.301 122.388 425.4 148.832 425.4 148.832Z" fill="#D6B0EA"/>
<path d="M466.461 124.077C466.642 124.145 465.587 127.462 463.735 132.763C461.881 138.067 459.23 145.358 456.22 153.381C456.145 153.578 456.072 153.776 456.004 153.96L455.802 154.502L455.235 154.41C446.935 153.053 439.46 151.753 434.07 150.746C428.679 149.739 425.373 149.024 425.403 148.835C425.432 148.645 428.796 149.016 434.227 149.772C439.657 150.527 447.156 151.67 455.459 153.018L454.69 153.465C454.757 153.283 454.833 153.086 454.906 152.885C457.915 144.863 460.715 137.626 462.807 132.414C464.893 127.199 466.278 124.007 466.461 124.077Z" fill="#1A3066"/>
<path d="M439.034 175.664C438.656 175.58 439.771 170.27 441.525 163.81C443.283 157.347 445.005 152.206 445.375 152.325C445.744 152.444 444.63 157.751 442.883 164.181C441.137 170.606 439.412 175.748 439.034 175.664Z" fill="#1A3066"/>
<path d="M482.366 148.275C482.304 148.659 477.135 148.158 470.816 147.154C464.496 146.149 459.425 145.023 459.484 144.638C459.543 144.254 464.715 144.755 471.034 145.759C477.353 146.764 482.425 147.89 482.366 148.275Z" fill="#1A3066"/>
<path d="M297.811 32.5036C298.391 36.2697 302.286 44.2162 306.394 45.3127C308.573 45.8948 310.192 44.4545 311.885 43.2848C314.967 41.154 318.015 38.9745 321.062 36.7949C322.164 36.0071 322.817 34.4936 321.996 33.2265C319.297 29.0623 316.6 24.8955 313.901 20.7313C313.186 19.6267 311.537 18.9498 310.344 19.7945C306.975 22.1853 303.363 24.4027 300.289 27.1725C298.183 29.0677 300.872 32.2924 303.234 31.0009C306.659 29.1246 309.782 26.5606 312.97 24.2998C311.785 23.9885 310.597 23.6771 309.412 23.363C312.112 27.5272 314.808 31.694 317.507 35.8581C317.818 34.6695 318.128 33.4782 318.441 32.2897C316.611 33.5974 314.776 34.897 312.951 36.2101C312.036 36.868 308.292 40.2957 307.299 40.071C306.119 39.8057 304.216 36.3969 303.471 35.5062C302.175 33.9602 300.961 32.5008 299.29 31.361C298.483 30.8114 297.689 31.7211 297.811 32.5036Z" fill="#3D3D3D" fill-opacity="0.1"/>
<path d="M292.412 27.0885C292.993 30.8547 296.888 38.8012 300.996 39.8977C303.174 40.4798 304.794 39.0394 306.486 37.8698C309.569 35.739 312.616 33.5595 315.664 31.3799C316.765 30.592 317.418 29.0786 316.598 27.8114C313.899 23.6473 311.202 19.4805 308.503 15.3163C307.787 14.2117 306.138 13.5348 304.945 14.3795C301.576 16.7703 297.965 18.9877 294.89 21.7575C292.785 23.6527 295.473 26.8774 297.835 25.5859C301.261 23.7096 304.384 21.1456 307.571 18.8848C306.386 18.5735 305.199 18.2621 304.014 17.948C306.713 22.1122 309.41 26.279 312.109 30.4431C312.419 29.2545 312.73 28.0632 313.043 26.8746C311.213 28.1824 309.377 29.482 307.553 30.7951C306.638 31.453 302.894 34.8807 301.9 34.656C300.721 34.3907 298.818 30.9819 298.073 30.0912C296.777 28.5452 295.562 27.0858 293.891 25.946C293.084 25.3964 292.291 26.3061 292.412 27.0885Z" fill="#EDC483"/>
<path d="M61.9395 713.5C57.6989 717.586 56.0848 723.946 60.131 728.855C63.9397 733.474 71.3087 734.456 76.0676 730.772C87.5504 721.88 75.5817 705.475 63.1893 708.871C60.8949 709.499 61.4671 712.78 63.7345 712.91C67.3597 713.119 71.2359 713.257 74.1322 715.805C77.2418 718.542 77.3093 723.169 74.7584 726.315C68.0048 734.646 56.271 722.378 63.3647 714.93C64.2555 713.988 62.8735 712.602 61.9395 713.5Z" fill="#3D3D3D" fill-opacity="0.1"/>
<path d="M56.5411 708.085C52.3005 712.171 50.6863 718.531 54.7326 723.44C58.5413 728.059 65.9103 729.041 70.6691 725.357C82.1519 716.465 70.1833 700.06 57.7908 703.456C55.4965 704.084 56.0687 707.365 58.3361 707.495C61.9613 707.704 65.8374 707.842 68.7338 710.39C71.8433 713.127 71.9108 717.754 69.36 720.9C62.6064 729.231 50.8726 716.963 57.9663 709.515C58.8571 708.573 57.475 707.187 56.5411 708.085Z" fill="#8AA9FC"/>
<path d="M27.7102 149.47C26.2472 157.089 25.0001 164.724 23.8367 172.397C23.5587 174.241 24.8219 175.487 26.6494 175.219C33.8295 174.171 40.9934 173.204 48.079 171.631C49.4421 171.328 49.9955 169.644 49.3477 168.501C45.3311 161.408 40.216 151.531 32.658 147.662C30.7442 146.682 28.0341 148.802 29.4647 150.865C31.7159 154.111 35.0441 156.545 37.6598 159.518C40.6749 162.943 43.5064 166.628 45.6793 170.654C46.2921 169.584 46.9021 168.515 47.5149 167.448C40.0891 168.185 32.7821 169.522 25.4347 170.797C26.3983 171.534 27.3647 172.273 28.3283 173.009C29.211 165.298 30.0019 157.604 30.5795 149.863C30.701 148.228 28.0206 147.846 27.7102 149.47Z" fill="#3D3D3D" fill-opacity="0.1"/>
<path d="M22.3117 144.055C20.8487 151.674 19.6017 159.309 18.4383 166.982C18.1602 168.826 19.4235 170.072 21.2509 169.804C28.431 168.756 35.5949 167.789 42.6806 166.216C44.0437 165.913 44.5971 164.229 43.9492 163.086C39.9327 155.993 34.8175 146.116 27.2595 142.247C25.3457 141.267 22.6357 143.387 24.0663 145.45C26.3175 148.696 29.6457 151.13 32.2613 154.103C35.2764 157.528 38.108 161.213 40.2809 165.239C40.8936 164.169 41.5037 163.1 42.1164 162.033C34.6907 162.77 27.3837 164.107 20.0363 165.382C20.9999 166.119 21.9662 166.858 22.9299 167.594C23.8125 159.883 24.6034 152.189 25.1811 144.448C25.3026 142.813 22.6222 142.431 22.3117 144.055Z" fill="#E3707F"/>
<path d="M455.633 750.663C457.295 743.201 458.642 735.168 458.974 727.524C459.077 725.142 455.206 724.543 454.761 726.953C453.36 734.518 452.855 742.597 452.798 750.278C452.788 751.878 455.271 752.282 455.633 750.663Z" fill="#3D3D3D" fill-opacity="0.1"/>
<path d="M450.234 745.248C451.897 737.786 453.244 729.753 453.576 722.109C453.678 719.727 449.808 719.128 449.362 721.538C447.961 729.103 447.457 737.182 447.4 744.863C447.389 746.463 449.872 746.867 450.234 745.248Z" fill="#E8947E"/>
<path d="M190.104 711.701C196.801 715.323 204.14 718.854 211.396 721.196C213.682 721.935 215.237 718.364 213.048 717.265C206.224 713.832 198.537 711.184 191.216 709.058C189.661 708.606 188.649 710.913 190.104 711.701Z" fill="#E3707F"/>
<g clip-path="url(#clip2_506_116428)">
<path d="M293.564 619.858H117.959C111.151 619.858 105.633 614.361 105.633 607.582V324.276C105.632 317.497 111.151 312 117.959 312H293.565C300.372 312 305.89 317.497 305.89 324.276V607.582C305.89 614.362 300.372 619.858 293.564 619.858Z" fill="#455A64"/>
<path d="M211.898 605.544C211.898 610.09 208.458 613.776 204.214 613.776C199.97 613.776 196.529 610.09 196.529 605.544C196.529 600.998 199.969 597.312 204.214 597.312C208.457 597.312 211.898 600.998 211.898 605.544Z" fill="#263238"/>
<path d="M234.622 324.267H176.901C176.185 324.267 175.604 323.688 175.604 322.975V322.159C175.604 321.446 176.185 320.867 176.901 320.867H234.622C235.338 320.867 235.919 321.446 235.919 322.159V322.976C235.919 323.688 235.338 324.267 234.622 324.267Z" fill="#263238"/>
<path d="M300.089 329.666H112.461V589.402H300.089V329.666Z" fill="#263238"/>
<path d="M251.38 562.598C251.38 562.598 251.614 562.567 252.071 562.535C252.529 562.528 253.201 562.426 254.077 562.273C254.938 562.06 256.012 561.784 257.174 561.199C258.341 560.641 259.625 559.83 260.815 558.64C262.007 557.461 263.129 555.918 263.863 554.013C264.612 552.116 264.943 549.882 264.731 547.507C264.506 545.154 263.636 542.66 261.961 540.545C260.319 538.418 257.884 536.684 254.997 535.888C254.279 535.675 253.531 535.563 252.773 535.459C252.01 535.415 251.239 535.375 250.44 535.391C248.852 535.394 247.229 535.396 245.573 535.399C242.261 535.404 238.815 535.41 235.248 535.415C228.113 535.423 220.489 535.432 212.468 535.44C196.421 535.447 178.783 535.454 160.268 535.462C158.001 535.486 155.75 536.051 153.794 537.139C151.858 538.249 150.161 539.789 149.012 541.672C147.838 543.533 147.127 545.669 147.013 547.836C146.862 550.012 147.167 552.18 147.981 554.157C148.805 556.125 150.113 557.857 151.705 559.218C153.31 560.57 155.232 561.499 157.231 561.974C159.226 562.489 161.314 562.298 163.374 562.338C165.428 562.34 167.459 562.341 169.465 562.343C185.508 562.365 199.956 562.386 212.097 562.403C224.219 562.44 234.034 562.47 240.839 562.491C244.217 562.513 246.847 562.531 248.653 562.543C249.533 562.555 250.208 562.564 250.685 562.571C251.145 562.579 251.38 562.598 251.38 562.598C251.38 562.598 251.145 562.617 250.687 562.627C250.21 562.633 249.535 562.643 248.655 562.655C246.848 562.666 244.221 562.684 240.841 562.707C234.036 562.728 224.22 562.758 212.099 562.795C199.958 562.812 185.51 562.832 169.467 562.854C167.46 562.856 165.43 562.858 163.376 562.86C162.349 562.861 161.316 562.861 160.276 562.862C159.749 562.831 159.216 562.826 158.687 562.767C158.164 562.671 157.625 562.644 157.111 562.491C155.031 562 153.031 561.033 151.36 559.629C149.7 558.217 148.338 556.415 147.478 554.367C146.627 552.315 146.309 550.034 146.464 547.802C146.582 545.546 147.321 543.319 148.543 541.379C149.741 539.418 151.505 537.812 153.523 536.657C155.56 535.521 157.907 534.931 160.267 534.908C178.782 534.915 196.42 534.923 212.467 534.929C220.488 534.938 228.112 534.946 235.247 534.955C238.814 534.96 242.26 534.965 245.572 534.971C247.228 534.974 248.851 534.976 250.439 534.979C251.228 534.966 252.027 535.009 252.813 535.059C253.595 535.168 254.363 535.288 255.103 535.51C258.073 536.342 260.566 538.136 262.239 540.328C263.948 542.507 264.825 545.07 265.04 547.479C265.241 549.891 264.887 552.184 264.108 554.109C263.345 556.046 262.188 557.608 260.966 558.793C259.745 559.991 258.432 560.798 257.245 561.348C256.061 561.925 254.971 562.186 254.099 562.382C253.211 562.519 252.535 562.602 252.074 562.592C251.614 562.606 251.38 562.598 251.38 562.598Z" fill="white"/>
<path d="M182.211 547.092L181.548 547.914C181.057 547.388 180.356 547.062 179.674 547.062C178.328 547.062 177.272 548.096 177.272 549.416C177.272 550.737 178.328 551.78 179.674 551.78C180.346 551.78 181.038 551.474 181.548 550.986L182.221 551.733C181.538 552.402 180.567 552.833 179.618 552.833C177.647 552.833 176.12 551.349 176.12 549.426C176.12 547.522 177.667 546.057 179.655 546.057C180.606 546.058 181.558 546.451 182.211 547.092Z" fill="white"/>
<path d="M189.8 549.435C189.8 551.35 188.243 552.833 186.236 552.833C184.227 552.833 182.67 551.349 182.67 549.435C182.67 547.512 184.227 546.057 186.236 546.057C188.243 546.058 189.8 547.523 189.8 549.435ZM183.824 549.435C183.824 550.766 184.928 551.819 186.244 551.819C187.56 551.819 188.636 550.766 188.636 549.435C188.636 548.106 187.56 547.071 186.244 547.071C184.919 547.072 183.824 548.106 183.824 549.435Z" fill="white"/>
<path d="M195.726 552.786L192.142 547.981V552.786H191.008V546.087H192.123L195.727 550.9V546.087H196.841V552.786H195.726Z" fill="white"/>
<path d="M199.749 547.101V549.034H202.805V550.038H199.749V552.785H198.616V546.086H203.132L203.123 547.1H199.749V547.101Z" fill="white"/>
<path d="M204.138 552.786V546.087H205.271V552.786H204.138Z" fill="white"/>
<path d="M210.075 550.758C209.979 550.767 209.874 550.767 209.767 550.767H208.173V552.786H207.04V546.087H209.769C211.488 546.087 212.478 546.92 212.478 548.374C212.478 549.446 211.979 550.202 211.084 550.546L212.594 552.785H211.305L210.075 550.758ZM209.767 549.752C210.806 549.752 211.4 549.312 211.4 548.402C211.4 547.522 210.805 547.1 209.767 547.1H208.173V549.751H209.767V549.752Z" fill="white"/>
<path d="M220.045 552.786L220.036 547.782L217.913 552.088H217.173L215.05 547.782V552.786H213.983V546.087H215.329L217.548 550.537L219.758 546.087H221.093V552.786H220.045Z" fill="white"/>
<path d="M224.002 547.101V548.909H227.288V549.925H224.002V551.771H227.787V552.785H222.868V546.086H227.673V547.1H224.002V547.101Z" fill="white"/>
<path d="M231.927 546.087C233.945 546.087 235.405 547.494 235.405 549.436C235.405 551.369 233.936 552.785 231.898 552.785H229.169V546.086H231.927V546.087ZM230.304 551.772H231.957C233.263 551.772 234.262 550.806 234.262 549.446C234.262 548.077 233.235 547.101 231.908 547.101H230.304V551.772Z" fill="white"/>
<path d="M133.775 420.218L275.892 419.19L279.853 515.423L132.696 514.064L133.775 420.218Z" fill="#6338A1"/>
<path d="M133.775 420.218L205.926 362.072L275.892 419.19" fill="#6338A1"/>
<g opacity="0.3">
<path d="M133.775 420.218L205.926 362.072L275.892 419.19" fill="black"/>
</g>
<path d="M132.696 514.064C132.519 513.898 143.896 501.527 158.106 486.434C172.319 471.335 183.981 459.234 184.159 459.4C184.336 459.566 172.961 471.936 158.747 487.034C144.539 502.126 132.875 514.23 132.696 514.064Z" fill="#263238"/>
<path d="M279.853 515.423C279.672 515.583 268.592 503.461 255.109 488.35C241.621 473.234 230.838 460.853 231.02 460.693C231.201 460.532 242.279 472.652 255.766 487.768C269.249 502.879 280.035 515.262 279.853 515.423Z" fill="#263238"/>
<g opacity="0.5">
<path d="M275.892 419.19L204.528 475.97L133.775 420.218" fill="black"/>
</g>
<path d="M140.933 425.477L140.727 384.302L265.197 381.269L266.554 426.318L204.522 475.227L140.933 425.477Z" fill="#EBEBEB"/>
<path d="M206.258 460.434C205.081 460.434 203.897 460.369 202.711 460.234C194.492 459.307 187.128 455.247 181.976 448.802C176.823 442.359 174.499 434.303 175.429 426.118C177.351 409.221 192.719 397.027 209.684 398.946C217.902 399.873 225.266 403.933 230.419 410.376C235.572 416.82 237.896 424.876 236.965 433.062C236.035 441.247 231.959 448.581 225.488 453.713C219.953 458.104 213.232 460.434 206.258 460.434ZM206.176 399.811C191.184 399.811 178.218 411.057 176.49 426.238C175.592 434.141 177.836 441.92 182.812 448.142C187.787 454.364 194.896 458.283 202.831 459.178C210.764 460.078 218.577 457.838 224.824 452.883C231.07 447.928 235.006 440.847 235.905 432.943C236.804 425.04 234.56 417.261 229.584 411.04C224.61 404.818 217.5 400.899 209.564 400.003C208.427 399.874 207.295 399.811 206.176 399.811Z" fill="#6338A1"/>
<path d="M185.151 433.873L190.325 427.557L202.431 436.267L222.103 413.174L228.033 418.369L202.734 447.41L185.151 433.873Z" fill="#6338A1"/>
<path d="M340.16 475.614C340.263 476.407 341.354 476.779 342.046 476.374C342.738 475.968 343.001 475.066 342.885 474.275C342.769 473.485 342.346 472.777 341.933 472.091C343.178 472.791 344.993 472.034 345.363 470.658C345.734 469.283 344.546 467.721 343.115 467.705C344.115 467.5 345.14 467.211 345.911 466.544C346.681 465.877 347.124 464.737 346.705 463.81C346.285 462.884 344.833 462.526 344.197 463.322C344.724 462.978 345.267 462.621 345.615 462.098C345.963 461.575 346.067 460.837 345.693 460.332C345.259 459.749 344.372 459.703 343.692 459.965C343.011 460.226 342.448 460.719 341.809 461.068C340.286 461.897 338.308 461.823 336.853 460.881L332.869 464.161L340.16 475.614Z" fill="#263238"/>
<path d="M318.881 457.623C316.665 458.305 314.958 460.392 314.734 462.69C314.651 463.531 314.775 464.442 315.327 465.085C315.989 465.856 317.136 466.067 318.131 465.848C319.124 465.629 319.997 465.052 320.817 464.451C321.972 463.605 323.161 462.546 323.327 461.126C323.49 459.735 322.527 458.359 321.235 457.805C319.944 457.25 318.418 457.427 317.15 458.034" fill="#263238"/>
<path d="M322.342 477.254C321.929 478.643 321.437 480.036 320.577 481.204C319.717 482.371 318.431 483.299 316.983 483.431C315.534 483.562 313.967 482.74 313.518 481.362C313.277 482.187 312.592 482.889 311.749 483.07C310.906 483.252 309.947 482.856 309.551 482.093C309.154 481.331 309.424 480.268 310.177 479.849C309.321 480.329 308.256 480.814 307.408 480.317C307.041 480.103 306.788 479.726 306.657 479.322C306.226 477.987 307.06 476.586 307.981 475.525C308.902 474.465 310 473.418 310.23 472.034C310.415 470.923 309.997 469.815 309.724 468.722C309.419 467.504 309.291 466.218 309.569 464.994C309.849 463.769 310.574 462.61 311.673 461.995C312.771 461.379 314.253 461.399 315.225 462.197L315.406 464.007L322.342 477.254Z" fill="#263238"/>
<path d="M338.933 498.319C338.933 498.319 341.425 524.521 339.332 527.934C337.239 531.347 311.628 567.012 311.628 567.012L311.688 567.054C311.19 567.258 310.661 567.469 310.06 567.686C309.169 568.008 308.228 568.168 307.28 568.176C306.13 568.184 304.602 568.133 303.775 567.847C302.75 567.492 301.826 568.562 302.385 569.369C302.945 570.177 305.744 571.222 309.219 570.885C312.694 570.548 308.788 574.396 307.39 575.825C305.992 577.252 301.873 581.872 301.973 582.648C302.121 583.785 303.372 583.838 304.734 582.38C306.114 580.903 310.494 576.836 311.216 577.607C311.927 578.367 304.708 585.539 304.708 585.539C304.708 585.539 302.916 586.823 303.72 587.744C305.17 589.402 312.279 581.215 312.936 580.42C313.393 579.867 314.207 580.678 313.685 581.245C313.147 581.829 306.317 588.232 307.777 589.934C308.897 591.241 313.688 583.255 315.846 582.711C318.003 582.166 311.595 588.4 312.715 589.604C313.133 590.052 313.507 590.329 316.669 586.22C318.442 583.916 321.317 579.027 323.553 575.076C326.919 571.454 360.051 535.615 360.305 528.922C360.572 521.872 361.84 498.025 361.84 498.025L338.933 498.319Z" fill="#EB996E"/>
<path d="M299.408 614.946L299.105 605.219L317.396 604.537L317.99 618.763L316.859 618.878C311.822 619.345 291.217 620.899 287.805 620.006C283.999 619.011 299.408 614.946 299.408 614.946Z" fill="#6338A1"/>
<g opacity="0.4">
<path d="M291.889 617.202C291.889 617.202 286.501 618.969 287.214 619.838C287.927 620.706 308.809 619.915 317.99 618.764L317.945 618.358L293.596 619.486C293.596 619.487 292.956 617.207 291.889 617.202Z" fill="white"/>
</g>
<path d="M318.232 618.336C318.232 618.343 318.126 618.359 317.92 618.381C317.648 618.408 317.353 618.437 317.019 618.47C316.117 618.543 315.008 618.632 313.7 618.738C310.896 618.945 307.019 619.179 302.731 619.345C298.443 619.509 294.558 619.574 291.747 619.585C290.434 619.58 289.322 619.576 288.417 619.573C288.081 619.566 287.784 619.56 287.512 619.554C287.305 619.548 287.196 619.54 287.196 619.533C287.196 619.525 287.305 619.518 287.512 619.509C287.784 619.502 288.081 619.495 288.417 619.487C289.321 619.471 290.433 619.452 291.745 619.428C294.555 619.379 298.437 619.289 302.723 619.124C307.007 618.959 310.884 618.749 313.689 618.582C314.998 618.505 316.108 618.438 317.011 618.385C317.346 618.367 317.644 618.352 317.915 618.338C318.122 618.329 318.231 618.328 318.232 618.336Z" fill="#263238"/>
<path d="M293.612 619.77C293.545 619.78 293.462 618.992 292.931 618.212C292.412 617.424 291.713 617.045 291.749 616.988C291.76 616.933 292.557 617.246 293.115 618.09C293.682 618.927 293.667 619.78 293.612 619.77Z" fill="#263238"/>
<path d="M298.904 616.838C298.854 616.873 298.584 616.569 298.301 616.161C298.018 615.753 297.831 615.393 297.881 615.358C297.931 615.323 298.201 615.627 298.484 616.036C298.765 616.445 298.954 616.804 298.904 616.838Z" fill="#263238"/>
<path d="M300.354 616.003C300.315 616.049 300.019 615.869 299.694 615.599C299.368 615.329 299.136 615.071 299.174 615.025C299.214 614.978 299.509 615.159 299.836 615.429C300.161 615.699 300.394 615.956 300.354 616.003Z" fill="#263238"/>
<path d="M301.225 614.248C301.229 614.309 300.803 614.38 300.275 614.406C299.748 614.431 299.318 614.402 299.315 614.342C299.312 614.281 299.738 614.211 300.265 614.184C300.792 614.158 301.222 614.187 301.225 614.248Z" fill="#263238"/>
<path d="M301.501 613.023C301.523 613.077 301.066 613.304 300.448 613.372C299.83 613.444 299.332 613.325 299.343 613.268C299.35 613.205 299.836 613.222 300.423 613.153C301.01 613.088 301.48 612.964 301.501 613.023Z" fill="#263238"/>
<path d="M298.223 615.273C298.225 615.298 297.776 615.37 297.047 615.311C296.683 615.281 296.252 615.212 295.786 615.083C295.554 615.011 295.312 614.959 295.058 614.816C294.938 614.743 294.805 614.64 294.752 614.463C294.697 614.29 294.783 614.089 294.913 613.989C296.014 613.367 297.162 613.954 297.602 614.517C297.843 614.804 297.959 615.086 298.015 615.283C298.07 615.482 298.071 615.595 298.058 615.598C298.017 615.615 297.961 615.139 297.485 614.62C297.25 614.365 296.9 614.121 296.456 614.007C296.036 613.901 295.444 613.889 295.059 614.155C294.877 614.3 294.958 614.515 295.171 614.631C295.369 614.748 295.622 614.814 295.842 614.888C296.293 615.024 296.711 615.106 297.064 615.155C297.774 615.253 298.222 615.237 298.223 615.273Z" fill="#263238"/>
<path d="M297.921 615.342C297.905 615.356 297.721 615.064 297.755 614.535C297.774 614.275 297.857 613.965 298.043 613.667C298.24 613.399 298.493 613.032 298.999 613.034C299.273 613.058 299.418 613.362 299.382 613.561C299.368 613.767 299.283 613.947 299.203 614.091C299.04 614.39 298.851 614.635 298.675 614.821C298.32 615.193 298.034 615.341 298.02 615.32C297.999 615.293 298.247 615.101 298.556 614.718C298.71 614.527 298.876 614.286 299.022 613.998C299.174 613.744 299.267 613.296 298.97 613.254C298.675 613.237 298.385 613.54 298.215 613.78C298.04 614.04 297.948 614.317 297.912 614.554C297.838 615.032 297.96 615.332 297.921 615.342Z" fill="#263238"/>
<path d="M317.669 613.366C317.666 613.408 317.142 613.337 316.32 613.465C315.504 613.588 314.378 613.965 313.418 614.787C312.458 615.61 311.916 616.664 311.674 617.449C311.424 618.241 311.418 618.766 311.376 618.763C311.362 618.763 311.352 618.632 311.361 618.395C311.371 618.158 311.414 617.817 311.523 617.406C311.732 616.588 312.271 615.479 313.273 614.62C314.274 613.762 315.455 613.395 316.298 613.31C316.723 613.264 317.069 613.272 317.305 613.297C317.542 613.322 317.67 613.353 317.669 613.366Z" fill="#263238"/>
<path d="M315.484 605.858C315.545 605.854 315.68 607.528 315.785 609.593C315.891 611.659 315.926 613.337 315.865 613.34C315.804 613.343 315.669 611.671 315.564 609.605C315.458 607.538 315.423 605.861 315.484 605.858Z" fill="#263238"/>
<path d="M308.983 617.179C308.994 617.236 307.809 617.476 306.324 617.544C304.838 617.616 303.636 617.49 303.641 617.431C303.644 617.367 304.841 617.395 306.313 617.323C307.785 617.256 308.974 617.115 308.983 617.179Z" fill="#263238"/>
<path d="M312.568 617.038C312.614 617.08 312.48 617.294 312.369 617.571C312.253 617.848 312.2 618.093 312.136 618.092C312.076 618.094 312.03 617.809 312.163 617.489C312.293 617.168 312.527 616.995 312.568 617.038Z" fill="#263238"/>
<path d="M313.855 615.313C313.9 615.354 313.79 615.548 313.608 615.746C313.426 615.944 313.242 616.072 313.197 616.03C313.152 615.989 313.262 615.795 313.445 615.597C313.626 615.399 313.81 615.271 313.855 615.313Z" fill="#263238"/>
<path d="M315.759 614.475C315.748 614.538 315.505 614.544 315.24 614.649C314.973 614.747 314.787 614.903 314.738 614.864C314.688 614.832 314.832 614.568 315.161 614.443C315.49 614.316 315.775 614.418 315.759 614.475Z" fill="#263238"/>
<path d="M317.121 614.062C317.145 614.118 317.044 614.215 316.895 614.28C316.745 614.345 316.604 614.352 316.58 614.295C316.555 614.239 316.657 614.142 316.806 614.077C316.956 614.013 317.096 614.005 317.121 614.062Z" fill="#263238"/>
<g opacity="0.3">
<path d="M317.626 612.88L299.343 613.268L299.288 611.074L317.727 611.721L317.626 612.88Z" fill="black"/>
</g>
<path d="M368.278 548.96L310.451 548.173C310.451 548.173 294.351 549.705 294.351 570.534L296.392 611.643H321.027L319.346 572.248C320.727 572.265 339.384 572.866 339.384 572.866L368.278 548.96Z" fill="#263238"/>
<path d="M296.392 611.643C296.373 611.643 296.346 611.399 296.314 610.932C296.284 610.408 296.246 609.731 296.199 608.89C296.092 607.051 295.945 604.502 295.764 601.383C295.386 595.044 294.663 586.299 294.185 576.612C294.013 571.775 293.644 567.137 294.222 562.918C294.379 561.868 294.555 560.855 294.857 559.878C295.165 558.91 295.574 558.013 296.034 557.182C296.986 555.538 298.167 554.191 299.389 553.144C300.612 552.093 301.874 551.346 303.018 550.779C304.183 550.255 305.22 549.888 306.089 549.667C306.516 549.565 306.901 549.473 307.247 549.39C307.573 549.34 307.859 549.296 308.109 549.258C308.576 549.19 308.82 549.164 308.823 549.182C308.827 549.202 308.586 549.264 308.13 549.367C307.884 549.421 307.604 549.481 307.284 549.55C306.946 549.647 306.568 549.754 306.151 549.874C305.3 550.124 304.288 550.516 303.156 551.056C302.047 551.639 300.826 552.394 299.649 553.438C298.474 554.478 297.344 555.803 296.438 557.407C296 558.216 295.613 559.087 295.326 560.019C295.046 560.947 294.875 561.96 294.73 562.986C294.188 567.118 294.567 571.75 294.74 576.586C295.217 586.259 295.878 595.011 296.156 601.36C296.309 604.534 296.38 607.104 296.414 608.882C296.419 609.725 296.423 610.404 296.425 610.928C296.422 611.397 296.411 611.642 296.392 611.643Z" fill="#455A64"/>
<path d="M406.755 614.964L397.006 615.608L395.678 597.427L409.931 596.336L410.086 597.458C410.732 602.455 413.017 622.91 412.241 626.338C411.375 630.158 406.755 614.964 406.755 614.964Z" fill="#6338A1"/>
<g opacity="0.4">
<path d="M409.283 622.369C409.283 622.369 411.246 627.67 412.092 626.929C412.938 626.189 411.41 605.431 409.93 596.333L409.525 596.392L411.514 620.589C411.515 620.589 409.25 621.307 409.283 622.369Z" fill="white"/>
</g>
<path d="M409.493 596.108C409.5 596.107 409.519 596.214 409.549 596.419C409.585 596.686 409.625 596.981 409.67 597.312C409.774 598.207 409.903 599.308 410.056 600.607C410.362 603.39 410.734 607.242 411.052 611.502C411.369 615.764 411.571 619.628 411.679 622.427C411.721 623.734 411.756 624.841 411.785 625.741C411.789 626.076 411.795 626.372 411.798 626.643C411.798 626.849 411.795 626.957 411.787 626.957C411.78 626.957 411.768 626.85 411.753 626.645C411.736 626.375 411.719 626.078 411.699 625.745C411.651 624.845 411.592 623.739 411.523 622.435C411.373 619.639 411.147 615.779 410.831 611.519C410.513 607.26 410.167 603.409 409.9 600.623C409.775 599.321 409.67 598.219 409.584 597.322C409.555 596.988 409.529 596.694 409.505 596.424C409.49 596.218 409.485 596.109 409.493 596.108Z" fill="#263238"/>
<path d="M411.799 620.564C411.813 620.631 411.024 620.74 410.261 621.297C409.489 621.84 409.133 622.55 409.075 622.516C409.019 622.507 409.305 621.703 410.132 621.118C410.951 620.523 411.808 620.508 411.799 620.564Z" fill="#263238"/>
<path d="M408.671 615.399C408.707 615.448 408.413 615.727 408.013 616.023C407.612 616.318 407.259 616.519 407.222 616.469C407.185 616.42 407.48 616.141 407.879 615.845C408.28 615.551 408.635 615.35 408.671 615.399Z" fill="#263238"/>
<path d="M407.781 613.984C407.829 614.021 407.658 614.322 407.399 614.656C407.139 614.99 406.89 615.23 406.842 615.193C406.794 615.155 406.964 614.855 407.224 614.52C407.483 614.187 407.733 613.947 407.781 613.984Z" fill="#263238"/>
<path d="M405.99 613.179C406.051 613.174 406.137 613.595 406.181 614.119C406.226 614.643 406.212 615.072 406.151 615.077C406.091 615.082 406.005 614.661 405.96 614.137C405.916 613.614 405.929 613.185 405.99 613.179Z" fill="#263238"/>
<path d="M404.751 612.949C404.804 612.924 405.048 613.372 405.139 613.984C405.232 614.597 405.13 615.096 405.072 615.087C405.008 615.082 405.008 614.598 404.919 614.017C404.834 613.434 404.692 612.972 404.751 612.949Z" fill="#263238"/>
<path d="M407.124 616.132C407.149 616.129 407.238 616.573 407.203 617.302C407.186 617.664 407.132 618.097 407.02 618.565C406.955 618.799 406.912 619.042 406.778 619.299C406.708 619.42 406.609 619.556 406.434 619.615C406.262 619.675 406.057 619.596 405.953 619.472C405.29 618.397 405.837 617.233 406.387 616.776C406.666 616.527 406.946 616.401 407.142 616.338C407.339 616.277 407.453 616.273 407.456 616.285C407.475 616.326 407.001 616.398 406.495 616.89C406.247 617.132 406.016 617.49 405.917 617.936C405.825 618.357 405.835 618.947 406.115 619.321C406.266 619.497 406.48 619.408 406.589 619.194C406.699 618.992 406.756 618.738 406.822 618.516C406.943 618.063 407.011 617.645 407.049 617.29C407.119 616.58 407.088 616.134 407.124 616.132Z" fill="#263238"/>
<path d="M407.204 616.431C407.218 616.447 406.931 616.641 406.4 616.625C406.138 616.616 405.825 616.544 405.519 616.369C405.244 616.182 404.865 615.943 404.85 615.44C404.865 615.167 405.165 615.012 405.366 615.041C405.573 615.047 405.756 615.126 405.905 615.201C406.21 615.353 406.462 615.533 406.655 615.701C407.041 616.041 407.2 616.32 407.179 616.334C407.152 616.357 406.952 616.116 406.557 615.822C406.359 615.675 406.111 615.519 405.817 615.384C405.558 615.241 405.104 615.164 405.072 615.461C405.066 615.756 405.379 616.033 405.627 616.195C405.894 616.36 406.176 616.442 406.414 616.469C406.896 616.523 407.193 616.393 407.204 616.431Z" fill="#263238"/>
<path d="M404.526 596.844C404.567 596.845 404.514 597.368 404.672 598.183C404.822 598.99 405.242 600.097 406.1 601.025C406.96 601.951 408.037 602.454 408.833 602.667C409.636 602.887 410.164 602.875 410.162 602.916C410.162 602.93 410.032 602.946 409.794 602.944C409.556 602.942 409.211 602.911 408.795 602.818C407.968 602.639 406.835 602.14 405.938 601.174C405.042 600.208 404.632 599.045 404.517 598.209C404.456 597.788 404.452 597.442 404.469 597.207C404.486 596.971 404.513 596.843 404.526 596.844Z" fill="#263238"/>
<path d="M397.069 599.283C397.064 599.223 398.737 599.029 400.806 598.852C402.877 598.674 404.559 598.58 404.563 598.64C404.568 598.701 402.895 598.894 400.826 599.072C398.756 599.249 397.074 599.344 397.069 599.283Z" fill="#263238"/>
<path d="M408.658 605.354C408.715 605.342 408.998 606.512 409.118 607.988C409.243 609.464 409.158 610.664 409.1 610.662C409.036 610.661 409.021 609.468 408.897 608.006C408.778 606.544 408.594 605.365 408.658 605.354Z" fill="#263238"/>
<path d="M408.39 601.792C408.432 601.744 408.65 601.87 408.932 601.971C409.213 602.077 409.462 602.121 409.463 602.184C409.467 602.242 409.181 602.299 408.855 602.179C408.53 602.061 408.349 601.833 408.39 601.792Z" fill="#263238"/>
<path d="M406.613 600.57C406.653 600.524 406.851 600.628 407.057 600.801C407.262 600.975 407.397 601.154 407.357 601.201C407.318 601.248 407.119 601.143 406.913 600.97C406.708 600.796 406.574 600.617 406.613 600.57Z" fill="#263238"/>
<path d="M405.705 598.706C405.768 598.715 405.784 598.956 405.897 599.216C406.005 599.479 406.168 599.658 406.13 599.709C406.1 599.76 405.829 599.627 405.692 599.302C405.556 598.978 405.647 598.691 405.705 598.706Z" fill="#263238"/>
<path d="M405.243 597.365C405.298 597.338 405.4 597.436 405.469 597.582C405.54 597.729 405.55 597.869 405.496 597.895C405.44 597.922 405.339 597.824 405.27 597.677C405.199 597.53 405.187 597.39 405.243 597.365Z" fill="#263238"/>
<g opacity="0.3">
<path d="M404.039 596.904L405.072 615.088L402.873 615.22V596.844L404.039 596.904Z" fill="black"/>
</g>
<path d="M346.959 596.985L346.972 597.002C346.972 597.002 396.241 570.207 401.823 561.486C407.58 552.495 403.473 544.053 403.473 544.053L362.01 549.563L332.525 578.979C326.097 584.054 314.515 594.647 314.515 605.093C314.515 622.976 337.725 620.054 354.387 620.092C377.169 620.143 402.729 620.248 402.729 620.248L402.793 595.873L346.959 596.985Z" fill="#263238"/>
<path d="M335.257 602.084C335.309 602.204 338.027 601.143 341.326 599.713C344.624 598.282 347.256 597.024 347.203 596.904C347.151 596.784 344.433 597.845 341.135 599.276C337.836 600.705 335.204 601.963 335.257 602.084Z" fill="#455A64"/>
<path d="M339.131 596.108C339.127 596.24 341.057 596.409 343.44 596.487C345.824 596.564 347.76 596.519 347.764 596.389C347.769 596.257 345.84 596.088 343.455 596.011C341.073 595.933 339.136 595.976 339.131 596.108Z" fill="#455A64"/>
<path d="M358.755 553.678C358.768 553.692 358.608 553.867 358.291 554.189C357.928 554.547 357.463 555.006 356.886 555.576C355.598 556.81 353.82 558.515 351.645 560.602C347.139 564.848 340.998 570.635 334.214 577.029C330.815 580.24 327.499 583.229 324.627 586.071C321.767 588.921 319.414 591.716 317.836 594.318C316.215 596.9 315.43 599.266 315.035 600.913C314.946 601.32 314.866 601.688 314.795 602.018C314.751 602.328 314.713 602.6 314.679 602.84C314.611 603.284 314.568 603.518 314.548 603.517C314.529 603.516 314.536 603.28 314.568 602.828C314.587 602.585 314.608 602.308 314.632 601.994C314.676 601.666 314.751 601.291 314.824 600.868C315.157 599.189 315.898 596.761 317.498 594.117C319.057 591.452 321.407 588.6 324.263 585.712C327.134 582.833 330.431 579.839 333.833 576.626C340.661 570.278 346.84 564.533 351.375 560.317C353.601 558.285 355.419 556.623 356.736 555.42C357.342 554.882 357.832 554.447 358.213 554.109C358.557 553.812 358.743 553.664 358.755 553.678Z" fill="#455A64"/>
<path d="M343.957 500.431C339.549 502.8 334.05 500.846 332.143 496.234C331.107 493.727 330.271 491.68 330.271 491.68C330.271 491.68 323.907 493.927 320.667 488.12C318.845 484.857 316.277 479.282 314.376 475.024C312.769 471.422 313.158 467.251 315.405 464.007C320.624 457.445 324.762 458.546 333.058 459.888L334.289 460.088L347.642 489.581C349.462 493.599 347.853 498.337 343.957 500.431Z" fill="#FFBE9D"/>
<path d="M318.446 477.897C318.624 477.394 318.359 476.843 317.854 476.666C317.35 476.488 316.797 476.752 316.619 477.255C316.44 477.758 316.705 478.308 317.21 478.486C317.715 478.663 318.269 478.4 318.446 477.897Z" fill="#263238"/>
<path d="M315.818 476.925C315.966 476.977 316.302 476.226 317.109 475.787C317.909 475.336 318.728 475.449 318.761 475.297C318.78 475.228 318.589 475.094 318.228 475.038C317.873 474.98 317.34 475.026 316.84 475.303C316.339 475.58 316.019 476.006 315.88 476.338C315.736 476.672 315.749 476.904 315.818 476.925Z" fill="#263238"/>
<path d="M325.462 473.157C325.195 473.618 325.353 474.208 325.816 474.475C326.279 474.742 326.871 474.585 327.139 474.123C327.407 473.662 327.249 473.072 326.786 472.805C326.323 472.538 325.73 472.696 325.462 473.157Z" fill="#263238"/>
<path d="M324.654 472.938C324.802 472.99 325.138 472.239 325.945 471.8C326.745 471.349 327.564 471.462 327.597 471.31C327.616 471.241 327.425 471.107 327.064 471.05C326.709 470.993 326.176 471.039 325.676 471.316C325.175 471.594 324.855 472.019 324.716 472.349C324.573 472.686 324.586 472.918 324.654 472.938Z" fill="#263238"/>
<path d="M325.342 481.466C325.314 481.4 324.76 481.568 323.886 481.894C323.662 481.984 323.47 482.025 323.394 481.921C323.287 481.814 323.246 481.545 323.219 481.237C323.139 480.593 323.056 479.94 322.971 479.256C322.591 476.45 322.167 474.192 322.024 474.212C321.881 474.231 322.073 476.52 322.453 479.327C322.553 480.008 322.648 480.658 322.742 481.301C322.796 481.585 322.803 481.949 323.1 482.238C323.253 482.38 323.488 482.417 323.647 482.378C323.81 482.345 323.929 482.282 324.033 482.232C324.868 481.82 325.37 481.532 325.342 481.466Z" fill="#263238"/>
<path d="M330.217 491.602C330.217 491.602 334.09 489.907 336.695 485.322C336.695 485.322 337.167 490.502 331.024 493.124L330.217 491.602Z" fill="#EB996E"/>
<path d="M336.957 466.631C337.056 466.531 341.651 463.812 343.02 468.815C344.202 473.14 339.293 473.884 339.233 473.748C339.172 473.612 336.957 466.631 336.957 466.631Z" fill="#FFBE9D"/>
<path d="M340.117 471.208C340.131 471.187 340.207 471.231 340.351 471.243C340.489 471.253 340.708 471.215 340.895 471.056C341.274 470.735 341.386 469.906 341.13 469.154C341.002 468.773 340.789 468.445 340.546 468.197C340.307 467.942 340.032 467.803 339.798 467.844C339.56 467.874 339.452 468.063 339.444 468.198C339.432 468.334 339.488 468.407 339.469 468.422C339.461 468.437 339.355 468.385 339.325 468.203C339.312 468.114 339.324 467.999 339.392 467.884C339.461 467.767 339.593 467.672 339.753 467.632C340.08 467.536 340.478 467.723 340.745 467.995C341.031 468.262 341.278 468.629 341.422 469.055C341.704 469.897 341.565 470.833 341.029 471.227C340.766 471.41 340.489 471.412 340.328 471.361C340.162 471.304 340.105 471.22 340.117 471.208Z" fill="#EB996E"/>
<path d="M334.825 499.715C334.825 499.715 346.3 480.54 364.039 496.678C375.613 507.208 394.503 528.91 401.251 537.414C402.765 539.321 405.131 542.216 403.473 544.001C398.415 549.451 384.628 561.651 359.104 552.549L334.918 518.97C330.78 513.225 330.743 505.501 334.825 499.715Z" fill="#6338A1"/>
<path d="M349.537 490.589L346.3 485.321L329.779 498.414L332.864 503.359L349.537 490.589Z" fill="#6338A1"/>
<g opacity="0.3">
<path d="M348.828 491.268C348.828 491.268 335.82 502.473 335.631 502.288C335.443 502.103 330.436 498.5 330.436 498.5L335.021 501.06L348.828 491.268Z" fill="black"/>
</g>
<path d="M349.67 490.527C349.652 490.499 349.358 490.661 348.841 490.978C348.326 491.296 347.592 491.775 346.7 492.386C344.914 493.606 342.51 495.382 339.861 497.337C338.059 498.667 336.359 499.889 334.907 500.89L335.119 500.88C333.576 500.048 332.286 499.366 331.376 498.901C330.467 498.437 329.939 498.19 329.919 498.228C329.898 498.266 330.389 498.585 331.264 499.112C332.14 499.638 333.401 500.371 334.923 501.24L335.029 501.3L335.135 501.23C336.618 500.26 338.34 499.053 340.145 497.721C342.732 495.782 345.072 494.028 346.898 492.659C347.695 492.065 348.377 491.555 348.947 491.131C349.43 490.768 349.688 490.554 349.67 490.527Z" fill="#263238"/>
<path d="M279.132 540.83L275.993 539.557C275.993 539.557 273.971 539.093 270.674 537.525C269.818 537.118 269.043 536.562 268.374 535.893C267.563 535.082 266.528 533.962 266.153 533.173C265.689 532.197 264.275 532.291 264.089 533.254C263.903 534.217 265.116 536.938 267.794 539.17C270.47 541.403 264.977 541.325 262.974 541.332C260.972 541.34 254.776 541.652 254.291 542.268C253.579 543.169 254.418 544.096 256.418 544.042C258.442 543.988 264.426 544.247 264.379 545.301C264.333 546.338 254.138 546.238 254.138 546.238C254.138 546.238 251.962 545.865 251.867 547.081C251.695 549.274 262.542 548.585 263.572 548.495C264.289 548.432 264.279 549.578 263.506 549.604C262.711 549.632 253.339 549.269 253.143 551.5C252.993 553.211 262.07 551.016 263.972 552.167C265.873 553.318 256.918 553.135 256.841 554.776C256.812 555.387 256.876 555.846 262.035 555.213C267.317 554.563 281.342 550.485 281.342 550.485L278.977 540.7" fill="#FFBE9D"/>
<path d="M340.442 506.378C340.442 506.378 323.569 529.551 319.657 530.456C315.746 531.362 272.255 538.167 272.255 538.167L274.43 552.305C274.43 552.305 328.416 550.801 333.653 546.05C338.889 541.298 354.678 517.136 354.678 517.136L340.442 506.378Z" fill="#FFBE9D"/>
<path d="M328.563 545.642C328.545 545.662 328.678 545.833 329.011 546.031C329.343 546.22 329.897 546.424 330.607 546.369C331.306 546.326 332.168 545.927 332.687 545.122C333.219 544.356 333.403 543.155 332.829 542.174C332.554 541.692 332.109 541.301 331.586 541.139C331.07 540.981 330.516 541.02 330.069 541.255C329.128 541.749 328.988 542.922 329.434 543.535C329.913 544.184 330.652 544.145 330.999 544.001C331.38 543.842 331.468 543.606 331.447 543.6C331.417 543.57 331.28 543.743 330.942 543.824C330.631 543.905 330.022 543.849 329.719 543.353C329.413 542.883 329.573 541.97 330.27 541.646C330.607 541.478 331.045 541.454 331.443 541.582C331.837 541.71 332.189 542.015 332.415 542.41C332.886 543.212 332.754 544.207 332.318 544.883C331.89 545.584 331.188 545.95 330.57 546.032C329.287 546.196 328.593 545.556 328.563 545.642Z" fill="#EB996E"/>
<path d="M359.704 513.433L343.68 540.806L325.224 525.58C325.224 525.58 338.005 504.732 344.051 498.265L359.704 513.433Z" fill="#6338A1"/>
<path d="M313.786 565.689C313.811 565.552 315.917 566.304 317.524 568.416C319.153 570.511 319.333 572.732 319.193 572.721C319.026 572.763 318.618 570.717 317.083 568.753C315.578 566.765 313.701 565.838 313.786 565.689Z" fill="#455A64"/>
<path d="M332.903 469.119C333.094 469.569 333.579 469.828 334.057 469.933C334.535 470.038 335.032 470.027 335.513 470.117C336.271 470.261 336.976 470.669 337.475 471.254C337.693 471.51 337.876 471.8 338.146 472.001C338.415 472.2 338.811 472.288 339.083 472.092C339.514 471.783 339.317 471.114 339.079 470.642C338.083 468.664 337.088 466.685 336.092 464.707L330.437 465.93L332.868 468.75" fill="#263238"/>
<path d="M314.425 462.391C315.081 461.61 316.054 460.977 316.819 461.651C317.585 462.324 317.914 463.356 318.148 464.345C318.382 465.336 318.566 466.371 319.142 467.213C319.865 468.273 321.198 468.886 322.477 468.749C323.757 468.612 324.927 467.731 325.409 466.542C326.178 467.695 326.969 468.87 328.081 469.7C329.192 470.532 330.703 470.966 331.997 470.459C333.289 469.952 334.122 468.302 333.453 467.089C334.197 467.649 335.087 468.074 336.019 468.07C336.952 468.066 337.919 467.555 338.265 466.691C338.61 465.828 338.134 464.674 337.224 464.465C338.264 465.145 339.736 465.152 340.717 464.392C341.699 463.633 342.042 462.122 341.394 461.066C340.746 460.009 339.141 459.648 338.155 460.402C338.853 459.978 339.585 459.521 339.965 458.801C340.346 458.08 340.203 457.019 339.461 456.677C338.57 456.266 337.619 457.085 336.653 457.263C335.077 457.551 333.787 456.137 332.51 455.172C330.205 453.426 327.083 452.957 324.246 453.531C321.409 454.105 318.837 455.638 316.659 457.539C315.232 458.783 313.849 460.593 314.425 462.391Z" fill="#263238"/>
<path d="M317.775 473.849C317.785 474.311 317.33 474.699 316.803 474.916C316.271 475.119 315.673 475.15 315.361 474.807C315.051 474.474 315.354 473.705 316.186 473.374C317.019 473.043 317.77 473.395 317.775 473.849Z" fill="#263238"/>
<path d="M326.229 469.814C326.139 470.271 325.571 470.556 325.005 470.825C324.425 471.064 323.832 471.296 323.431 471.057C323.245 470.928 323.179 470.642 323.319 470.287C323.453 469.935 323.812 469.537 324.325 469.309C324.838 469.081 325.375 469.082 325.728 469.217C326.087 469.351 326.257 469.591 326.229 469.814Z" fill="#263238"/>
<path d="M328.68 479.609C328.819 479.553 329.177 480.633 328.64 481.84C328.115 483.053 327.074 483.524 327.022 483.385C326.932 483.251 327.689 482.657 328.131 481.619C328.597 480.592 328.521 479.635 328.68 479.609Z" fill="#263238"/>
<path d="M340.993 462.624C341 462.639 340.92 462.694 340.749 462.774C340.576 462.844 340.305 462.931 339.939 462.943C339.251 462.97 338.009 462.686 337.354 461.418L337.647 461.477C336.847 462.236 335.592 462.838 334.126 462.873C332.685 462.919 330.99 462.411 329.818 461.094L330.292 460.906C330.336 461.637 329.884 462.335 329.287 462.715C328.69 463.107 327.956 463.302 327.214 463.211C325.965 463.024 325.042 462.215 324.31 461.443C323.572 460.651 322.984 459.822 322.302 459.169C321.634 458.506 320.869 458.021 320.069 457.882C319.27 457.736 318.484 457.898 317.829 458.157C316.505 458.693 315.667 459.584 315.09 460.146C314.519 460.732 314.21 461.068 314.178 461.04C314.151 461.018 314.402 460.639 314.93 460.002C315.467 459.39 316.271 458.428 317.677 457.795C318.371 457.495 319.227 457.285 320.146 457.43C321.07 457.567 321.942 458.111 322.657 458.801C323.39 459.485 323.998 460.323 324.707 461.071C325.406 461.81 326.27 462.516 327.283 462.661C328.458 462.822 329.812 461.993 329.752 460.929L329.708 460.147L330.227 460.742C331.252 461.916 332.785 462.415 334.116 462.399C335.468 462.395 336.632 461.876 337.396 461.208L337.585 461.044L337.688 461.268C338.194 462.369 339.3 462.717 339.94 462.744C340.622 462.773 340.976 462.575 340.993 462.624Z" fill="#455A64"/>
<path d="M362.384 509.205C362.331 509.207 362.336 508.571 362.136 507.456C361.931 506.349 361.482 504.743 360.392 503.042C359.322 501.358 357.579 499.557 355.117 498.539C352.684 497.518 349.592 497.269 346.686 498.246C345.238 498.732 343.945 499.517 342.803 500.413C341.66 501.304 340.676 502.311 339.816 503.335C338.095 505.388 336.85 507.487 335.763 509.212C334.692 510.951 333.818 512.358 333.171 513.304C332.856 513.782 332.589 514.139 332.412 514.383C332.233 514.626 332.13 514.747 332.114 514.737C332.08 514.714 332.404 514.171 332.988 513.19C333.612 512.122 334.433 510.714 335.426 509.012C336.472 507.258 337.686 505.127 339.421 503.01C341.155 500.929 343.442 498.778 346.507 497.722C349.554 496.699 352.783 496.976 355.317 498.07C357.885 499.164 359.665 501.073 360.725 502.837C361.805 504.62 362.206 506.287 362.349 507.424C362.417 507.996 362.438 508.443 362.423 508.746C362.417 509.048 362.403 509.205 362.384 509.205Z" fill="#263238"/>
<path d="M357.674 519.215C357.625 519.226 357.756 518.779 357.244 518.35C357.001 518.135 356.638 517.994 356.166 517.946C355.706 517.88 355.116 517.911 354.5 517.646C353.24 517.13 352.42 515.669 351.997 514.107C351.777 513.321 351.605 512.497 351.309 511.7C351.02 510.906 350.577 510.142 349.867 509.641C349.163 509.134 348.295 508.907 347.453 508.806C346.604 508.705 345.769 508.739 344.958 508.761C343.35 508.822 341.791 508.757 340.646 508.125C339.514 507.514 338.912 506.572 338.758 505.883C338.667 505.537 338.689 505.257 338.706 505.076C338.741 504.894 338.77 504.803 338.788 504.806C338.844 504.809 338.75 505.198 338.965 505.822C339.167 506.436 339.766 507.26 340.826 507.777C341.877 508.305 343.339 508.341 344.938 508.251C346.513 508.189 348.493 508.036 350.191 509.193C351.022 509.778 351.521 510.669 351.819 511.514C352.126 512.367 352.289 513.205 352.49 513.975C352.87 515.487 353.601 516.814 354.658 517.289C355.166 517.538 355.722 517.544 356.213 517.641C356.705 517.718 357.145 517.924 357.39 518.194C357.648 518.455 357.748 518.748 357.743 518.939C357.744 519.131 357.687 519.22 357.674 519.215Z" fill="#FAFAFA"/>
<path d="M351.301 528.31C351.245 528.325 351.216 527.952 350.845 527.461C350.489 526.967 349.737 526.428 348.669 526.116C347.618 525.766 346.234 525.804 344.735 525.317C343.994 525.077 343.213 524.614 342.707 523.882C342.199 523.169 341.926 522.345 341.465 521.672C340.527 520.313 338.834 519.855 337.413 519.507C335.956 519.168 334.571 518.802 333.612 518.07C332.654 517.351 332.196 516.43 332.098 515.78C331.998 515.118 332.161 514.766 332.184 514.776C332.235 514.782 332.153 515.139 332.31 515.734C332.462 516.32 332.935 517.132 333.841 517.753C334.744 518.382 336.057 518.698 337.531 519.01C338.268 519.175 339.06 519.372 339.84 519.715C340.614 520.056 341.397 520.58 341.923 521.359C342.44 522.126 342.707 522.943 343.152 523.569C343.582 524.199 344.223 524.596 344.904 524.835C346.274 525.316 347.679 525.327 348.792 525.744C349.904 526.12 350.696 526.76 351.026 527.341C351.2 527.625 351.268 527.877 351.299 528.045C351.32 528.218 351.321 528.307 351.301 528.31Z" fill="#FAFAFA"/>
<path d="M380.761 513.904C380.778 513.906 380.775 514.059 380.725 514.347C380.667 514.632 380.541 515.053 380.262 515.539C379.721 516.522 378.478 517.671 376.668 518.5C375.772 518.922 374.758 519.292 373.714 519.752C372.674 520.214 371.595 520.784 370.72 521.687C368.901 523.47 368.013 526.233 366.738 528.938C366.096 530.294 365.337 531.612 364.261 532.611C363.992 532.859 363.728 533.105 363.419 533.295C363.127 533.505 362.83 533.704 362.508 533.849C361.876 534.161 361.217 534.367 360.573 534.516C357.978 535.063 355.62 534.926 353.772 535.51C351.906 536.014 350.71 537.165 350.197 538.087C349.664 539.024 349.714 539.67 349.647 539.656C349.633 539.656 349.611 539.503 349.639 539.212C349.664 538.922 349.753 538.488 350.006 537.986C350.481 536.984 351.715 535.713 353.657 535.135C355.569 534.484 357.979 534.576 360.455 534.019C361.071 533.87 361.688 533.67 362.272 533.376C362.57 533.24 362.841 533.053 363.11 532.857C363.394 532.682 363.638 532.45 363.886 532.219C364.88 531.287 365.606 530.031 366.237 528.7C367.493 526.051 368.403 523.216 370.36 521.325C371.308 520.37 372.465 519.783 373.529 519.332C374.603 518.881 375.617 518.535 376.505 518.144C378.283 517.383 379.505 516.329 380.077 515.426C380.664 514.522 380.701 513.888 380.761 513.904Z" fill="#FAFAFA"/>
<path d="M391.515 527.057C391.515 527.057 391.493 527.735 390.836 528.715C390.203 529.703 388.855 530.836 386.939 531.656C385.039 532.523 382.566 532.921 380.217 534.182C379.046 534.809 378.003 535.75 377.306 537.008C376.587 538.254 376.129 539.709 375.505 541.163C374.263 544.115 372.022 546.404 369.628 547.771C367.222 549.161 364.673 549.62 362.599 549.562C360.51 549.511 358.865 549.03 357.8 548.585C357.262 548.369 356.863 548.161 356.599 548.009C356.336 547.856 356.203 547.768 356.212 547.751C356.235 547.707 356.798 548.007 357.876 548.383C358.947 548.759 360.571 549.17 362.603 549.17C364.622 549.176 367.067 548.691 369.37 547.329C371.665 545.985 373.801 543.783 374.995 540.942C375.605 539.527 376.069 538.049 376.834 536.735C377.576 535.403 378.738 534.37 379.97 533.732C382.448 532.443 384.925 532.094 386.786 531.294C388.674 530.538 389.997 529.5 390.659 528.589C391.345 527.688 391.451 527.031 391.515 527.057Z" fill="#FAFAFA"/>
<path d="M401.199 537.448C401.257 537.561 399.298 538.051 396.903 540.042C395.728 541.04 394.472 542.425 393.52 544.224C393.035 545.115 392.689 546.129 392.242 547.183C391.798 548.219 391.18 549.348 390.101 550.066C389.033 550.779 387.799 551.009 386.672 551.139C385.533 551.266 384.45 551.303 383.443 551.47C381.42 551.787 379.663 552.418 378.268 553.092C375.47 554.465 374.095 555.894 374.023 555.802C374.002 555.78 374.32 555.408 374.988 554.83C375.655 554.254 376.687 553.484 378.091 552.742C379.494 552.008 381.282 551.32 383.361 550.966C384.403 550.78 385.503 550.732 386.609 550.6C387.708 550.469 388.85 550.238 389.789 549.608C390.731 548.984 391.302 547.975 391.742 546.966C392.182 545.952 392.549 544.906 393.069 543.982C394.083 542.128 395.414 540.726 396.654 539.738C397.908 538.758 399.064 538.17 399.884 537.844C400.297 537.683 400.621 537.571 400.848 537.514C401.073 537.454 401.193 537.429 401.199 537.448Z" fill="#FAFAFA"/>
<path d="M358.345 517.766C358.305 517.665 359.521 517.527 360.785 516.234C361.41 515.601 362.019 514.712 362.492 513.63C362.966 512.548 363.29 511.267 363.634 509.916C363.979 508.562 364.342 507.256 364.9 506.14C365.456 505.028 366.174 504.136 366.905 503.536C367.637 502.933 368.36 502.624 368.874 502.508C369.389 502.39 369.683 502.418 369.685 502.445C369.72 502.549 368.49 502.599 367.164 503.83C366.51 504.431 365.864 505.296 365.361 506.362C364.858 507.428 364.516 508.704 364.171 510.053C363.827 511.403 363.483 512.711 362.958 513.839C362.435 514.964 361.757 515.881 361.057 516.517C360.356 517.153 359.653 517.503 359.149 517.651C358.644 517.801 358.348 517.793 358.345 517.766Z" fill="#FAFAFA"/>
<path d="M355.291 498.677C355.15 498.653 355.498 497.072 356.817 495.647C358.124 494.21 359.675 493.727 359.711 493.864C359.783 494.014 358.437 494.685 357.227 496.022C356 497.34 355.447 498.734 355.291 498.677Z" fill="#FAFAFA"/>
<path d="M347.802 487.75C347.863 487.796 347.219 488.748 346.128 490.249C345.567 490.989 344.971 491.908 344.12 492.846C343.686 493.304 343.161 493.756 342.496 494.047C341.828 494.341 341.075 494.398 340.359 494.394C339.638 494.392 338.956 494.348 338.328 494.431C337.702 494.513 337.116 494.723 336.608 495.008C335.581 495.578 334.904 496.452 334.554 497.265C333.854 498.938 334.229 500.137 334.117 500.133C334.086 500.142 333.966 499.87 333.902 499.342C333.842 498.819 333.852 498.024 334.19 497.118C334.519 496.219 335.232 495.22 336.352 494.567C336.906 494.239 337.553 493.993 338.254 493.895C338.954 493.796 339.663 493.84 340.36 493.84C341.056 493.843 341.715 493.789 342.282 493.547C342.852 493.307 343.333 492.913 343.749 492.492C344.568 491.633 345.219 490.716 345.816 490.01C346.987 488.571 347.741 487.704 347.802 487.75Z" fill="#FAFAFA"/>
<g opacity="0.2">
<path d="M361.975 512.641L353.875 545.327L346.79 535.493L361.975 512.641Z" fill="black"/>
</g>
<path d="M397.114 620.24C396.961 620.24 396.837 614.808 396.837 608.108C396.837 601.406 396.961 595.975 397.114 595.975C397.268 595.975 397.392 601.406 397.392 608.108C397.392 614.808 397.267 620.24 397.114 620.24Z" fill="#455A64"/>
</g>
<defs>
<clipPath id="clip0_506_116428">
<rect width="156" height="106" fill="white" transform="translate(8.3999 73)"/>
</clipPath>
<clipPath id="clip1_506_116428">
<rect width="85.162" height="71.914" fill="white" transform="translate(375.4 212)"/>
</clipPath>
<clipPath id="clip2_506_116428">
<rect width="412" height="315" fill="white" transform="translate(0.399902 312)"/>
</clipPath>
</defs>
</svg>
