<svg width="416" height="737" viewBox="0 0 416 737" fill="none" xmlns="http://www.w3.org/2000/svg">
<g opacity="0.54">
<path d="M104.562 550.297C54.3368 533.312 10.7757 491.102 1.85453 438.696C-7.06661 386.29 25.8863 327.218 77.664 315.857C102.147 310.485 128.57 315.283 151.962 306.261C196.076 289.245 211.068 231.683 251.822 207.679C291.088 184.549 344.926 201.232 374.178 236.237C403.43 271.243 411.965 319.544 410.173 365.185C407.538 432.239 379.134 504.553 318.497 532.906C267.4 556.8 159.363 563.571 104.562 550.297Z" fill="#DDD2F3"/>
</g>
<path d="M65.701 290.707C61.4361 288.773 56.1887 289.22 52.3098 291.844C48.4309 294.467 46.0529 299.184 46.2418 303.873C46.3903 307.539 47.8479 311.714 45.5238 314.546C43.7261 316.736 40.5193 316.942 37.9442 318.109C33.0477 320.329 30.6129 326.825 32.8371 331.731C34.041 334.387 36.4299 336.832 35.9737 339.712C35.6795 341.578 34.2003 343.053 32.5672 343.993C30.9342 344.932 29.1013 345.466 27.4116 346.294C21.2464 349.321 17.4998 356.353 17.678 363.235C17.8561 370.118 21.6297 376.648 27.0472 380.88C32.4619 385.112 39.3694 387.167 46.2283 387.424C53.1034 387.681 60.2943 386.065 65.539 381.603C69.4746 378.254 72.0443 373.556 73.9419 368.739C77.5481 359.583 79.0084 349.581 78.1744 339.772C77.3106 329.592 74.0283 319.726 73.3129 309.535C73.0727 306.12 73.1186 302.66 72.3601 299.322C71.6016 295.983 69.8983 292.686 66.9804 290.91" fill="#3D3D3D"/>
<path d="M64.1383 292.025C68.0441 283.878 75.8127 277.705 84.6097 275.748C90.0163 274.546 95.944 274.949 100.695 277.805C105.445 280.659 108.725 286.226 108.002 291.733C107.554 295.139 105.715 298.174 104.544 301.404C103.375 304.631 102.989 308.568 105.162 311.224C107.111 313.607 110.455 314.191 113.114 315.735C116.915 317.939 119.306 322.384 119.053 326.781C118.802 331.178 115.919 335.318 111.891 337.073C115.892 337.538 119.652 339.783 121.965 343.086C124.281 346.389 125.112 350.699 124.195 354.631C122.877 360.268 118.31 364.583 113.4 367.627C106.574 371.858 98.6594 374.311 90.6426 374.674C82.1344 375.061 72.7085 372.535 68.0819 365.363C65.0425 360.652 64.5809 354.78 64.2408 349.178C63.2124 332.278 62.5079 315.358 61.8034 298.442C61.69 295.721 61.5793 292.957 62.2191 290.309" fill="#3D3D3D" fill-opacity="0.1"/>
<path d="M92.7642 368.382L169.043 397.065L161.758 366.165L181.595 361.11C181.595 361.11 202.933 421.511 188.114 423.128C162.171 425.957 122.918 415.655 122.918 415.655L92.7642 368.382Z" fill="#3D3D3D" fill-opacity="0.1"/>
<path d="M86.0942 500.216C86.0942 500.216 178.248 399.326 240.456 421.352C302.666 443.377 328.933 546.135 328.933 546.135L279.382 545.328C279.382 545.328 240.25 467.717 221.156 470.726C202.061 473.734 143.084 547.605 143.084 547.605L86.0942 500.216Z" fill="#3D3D3D"/>
<path d="M115.249 438.967L119.074 498.161C99.21 522.658 30.057 490.983 30.057 490.983L29.2499 466.237L27.6438 407.289C29.2364 383.815 50.9737 372.292 50.9737 372.292C59.9597 367.8 73.6639 365.249 86.0105 365.861C98.8996 366.5 102.085 372.69 107.394 384.489C111.683 394.019 123.325 409.547 115.249 438.967Z" fill="#3D3D3D" fill-opacity="0.1"/>
<path d="M42.9812 502.135C42.9812 502.135 32.4054 545.314 64.6402 552.121C96.8751 558.928 215.433 543.005 246.313 545.729C277.193 548.452 365.011 553.591 365.011 553.591L371.441 502.317C371.441 502.317 234.782 495.743 219.336 499.596C203.888 503.446 42.9812 502.135 42.9812 502.135Z" fill="#3D3D3D" fill-opacity="0.1"/>
<path d="M58.4372 426.647C58.4372 426.647 48.7711 483.781 62.4025 482.376C107.24 477.752 133.939 477.126 133.939 477.126L141.37 492.605C141.543 495.242 56.4586 519.672 42.7868 511.595C33.1341 505.891 17.7563 490.531 24.7366 444.623L26.3859 429.233L58.4372 426.647Z" fill="#3D3D3D"/>
<path d="M98.8943 508.671L98.8025 504.843L155.08 496.872L170.018 444.476L232.36 442.957L215.539 499.671L98.8943 508.671Z" fill="#3D3D3D"/>
<path d="M200.055 469.309C200.118 471.865 198.101 473.988 195.553 474.05C193.005 474.113 190.889 472.09 190.827 469.534C190.765 466.978 192.781 464.856 195.329 464.793C197.877 464.731 199.993 466.754 200.055 469.309Z" fill="#3D3D3D"/>
<path opacity="0.41" d="M201.904 469.263C201.991 472.843 199.167 475.816 195.599 475.902C192.03 475.989 189.067 473.157 188.98 469.578C188.894 465.998 191.717 463.025 195.286 462.939C198.854 462.855 201.815 465.684 201.904 469.263Z" fill="#3D3D3D"/>
<path d="M33.7739 388.751C33.7739 388.751 23.3168 398.822 20.9766 436.941L61.4551 432.45C61.4551 432.45 68.2006 367.532 33.7739 388.751Z" fill="#3D3D3D"/>
<path d="M54.0456 308.858L54.9634 320.957C54.9634 320.957 44.7061 322.344 47.6294 331.731C50.5527 341.115 57.5709 337.01 57.5709 337.01C57.5709 337.01 59.3254 361.058 83.8835 353.434C103.429 347.366 102.233 321.978 99.7526 300.334C98.7917 291.949 90.8855 286.185 82.6257 287.799L67.8606 290.685C59.3254 292.347 53.387 300.161 54.0456 308.858Z" fill="#3D3D3D"/>
<path d="M54.9634 331L61.5793 366.395C63.0693 374.368 70.9081 379.472 78.7765 377.588C86.0673 375.841 90.737 368.699 89.4279 361.296L85.8351 341.009L54.9634 331Z" fill="#3D3D3D"/>
<path d="M82.1289 331.4C82.2234 331.333 82.4231 331.714 82.8712 331.766C83.3085 331.812 83.9725 331.357 84.1345 330.393C84.3585 329.44 84.2343 328.189 84.0994 326.735C83.9833 325.176 83.8699 323.632 83.7485 322.019C83.3301 315.32 83.3058 309.87 83.6918 309.846C84.0778 309.822 84.731 315.231 85.1494 321.929C85.2304 323.546 85.3087 325.092 85.3896 326.654C85.4463 328.089 85.5003 329.502 85.0846 330.675C84.7607 331.896 83.5055 332.657 82.7227 332.294C81.9777 331.915 82.0776 331.389 82.1289 331.4Z" fill="#3D3D3D"/>
<path d="M90.0973 350.959C90.2052 351.092 89.2308 352.169 87.2117 353.334C85.2142 354.495 82.0939 355.641 78.5011 355.714C74.9084 355.792 71.7394 354.78 69.696 353.702C67.6311 352.624 66.6108 351.587 66.7133 351.452C66.8915 351.059 71.6827 354.471 78.4714 354.303C85.2574 354.187 89.9002 350.575 90.0973 350.959Z" fill="#3D3D3D"/>
<path d="M85.298 336.366C85.4356 336.463 85.1198 337.259 84.032 338.026C82.9847 338.781 81.0493 339.401 79.0221 338.759C77.0004 338.096 75.7884 336.461 75.3754 335.234C74.9354 333.975 75.1406 333.144 75.3106 333.144C75.5239 333.125 75.6912 333.859 76.2743 334.809C76.8357 335.751 77.9235 336.918 79.4513 337.416C80.9845 337.904 82.5447 337.59 83.5488 337.154C84.5746 336.726 85.136 336.225 85.298 336.366Z" fill="#3D3D3D"/>
<path d="M54.1912 332.903C54.1939 333.068 53.592 333.358 52.5258 333.044C52.0183 332.887 51.3408 332.429 51.052 331.633C50.9062 331.249 50.8414 330.772 50.9872 330.277C51.1033 329.795 51.5621 329.269 52.075 329.102C52.7687 328.817 53.7459 328.985 54.1966 329.754L53.0036 330.377C52.2235 328.398 51.8456 326.876 52.1371 326.746C52.4286 326.616 53.2978 327.918 54.2371 329.827L53.0441 330.45C53.0171 330.409 52.8173 330.325 52.5771 330.417C52.3152 330.499 52.1965 330.81 52.2856 331.227C52.3719 331.622 52.6338 331.917 52.9523 332.142C53.5947 332.57 54.2074 332.694 54.1912 332.903Z" fill="#3D3D3D"/>
<path d="M91.9652 315.924C91.5873 316.011 91.0852 315.212 90.8423 314.143C90.602 313.073 90.7127 312.136 91.0906 312.05C91.4685 311.963 91.9706 312.762 92.2135 313.831C92.4537 314.901 92.3431 315.838 91.9652 315.924Z" fill="#3D3D3D"/>
<path d="M71.1698 317.863C70.7946 317.966 70.2521 317.183 69.9551 316.114C69.6582 315.044 69.7203 314.091 70.0955 313.986C70.4707 313.883 71.0133 314.665 71.3102 315.735C71.6071 316.807 71.545 317.76 71.1698 317.863Z" fill="#3D3D3D"/>
<path d="M73.0997 309.053C72.981 309.434 71.8743 309.421 70.6488 309.765C69.4125 310.071 68.457 310.626 68.1654 310.352C67.8658 310.117 68.6324 308.833 70.2925 308.4C71.9498 307.961 73.2455 308.701 73.0997 309.053Z" fill="#3D3D3D"/>
<path d="M94.3351 305.676C94.1785 306.045 92.9611 305.863 91.5359 306.004C90.108 306.112 88.9392 306.505 88.7232 306.169C88.4911 305.869 89.5978 304.756 91.4144 304.599C93.2283 304.436 94.5105 305.341 94.3351 305.676Z" fill="#3D3D3D"/>
<path d="M54.9632 320.957C61.8167 314.254 63.8331 303.085 65.6929 293.666C72.0416 298.304 80.7738 299.444 88.0943 296.593C90.3913 299.3 93.0906 301.667 96.0734 303.586C96.9209 304.133 97.9278 304.661 98.8914 304.369C100.041 304.019 100.554 302.698 100.827 301.523C101.704 297.768 101.734 293.744 100.427 290.116C99.1208 286.488 96.3838 283.302 92.7964 281.907C88.9607 280.418 84.6473 281.065 80.6685 282.099C74.6734 283.659 68.8942 286.055 63.5496 289.196C58.3049 292.28 53.2654 296.357 51.0385 302.029C48.8142 307.704 48.8223 318.732 54.1885 321.602" fill="#3D3D3D"/>
<path d="M82.9442 337.679C83.2735 339.588 81.6539 341.445 79.4324 340.982C77.2136 340.5 76.4875 338.142 77.5618 336.534C78.6334 334.901 80.064 333.934 80.8927 334.086C81.7106 334.284 82.6284 335.749 82.9442 337.679Z" fill="#3D3D3D"/>
<path d="M74.4009 326.443C74.7437 328.352 72.3899 330.371 69.1103 330.518C65.828 330.669 63.3041 328.871 63.4715 326.941C63.6361 324.994 66.0169 323.608 68.7891 323.475C71.564 323.356 74.0608 324.521 74.4009 326.443Z" fill="#3D3D3D"/>
<path d="M100.371 324.317C100.757 326.218 98.6971 328.241 95.7279 328.392C92.7586 328.547 90.502 326.746 90.691 324.816C90.8772 322.872 92.9692 321.483 95.3661 321.35C97.7604 321.236 99.9873 322.403 100.371 324.317Z" fill="#3D3D3D"/>
<path d="M54.6799 352.987C54.2831 352.976 54.0671 349.097 53.8188 344.329C53.5786 339.558 53.3977 335.675 53.7891 335.627C54.167 335.575 54.9795 339.425 55.2224 344.256C55.4762 349.086 55.0605 352.998 54.6799 352.987Z" fill="#3D3D3D"/>
<path d="M95.4337 368.122C88.7935 365.477 139.848 384.489 139.848 384.489L134.671 419.519L115.252 413.129L95.4337 368.122Z" fill="#3D3D3D" fill-opacity="0.1"/>
<path d="M65.0505 288.882C66.6565 286.45 67.1856 283.331 66.4703 280.505C65.8819 278.179 64.13 275.869 61.7385 275.748C60.378 275.677 59.0608 276.341 58.062 277.269C55.5976 279.56 54.9632 283.594 56.6044 286.534C58.2483 289.475 62.0084 291.037 65.2448 290.124" fill="#3D3D3D"/>
<path d="M370.072 513.225C370.072 513.225 386.679 489.342 384.654 498.385C382.63 507.426 365.762 547.608 365.762 547.608L370.072 513.225Z" fill="#3D3D3D" fill-opacity="0.1"/>
<path d="M129.223 477.131C129.223 477.131 151.166 470.227 150.413 472.499C149.66 474.768 145.927 474.854 142.193 478.515C142.193 478.515 166.722 478.783 165.542 480.808C164.363 482.836 148.396 483.345 148.299 483.689C148.205 484.036 165.764 484.466 165.367 486.34C164.97 488.213 148.655 487.756 148.655 487.756C148.655 487.756 163.782 489.369 163.472 491.392C163.161 493.414 149.217 491.955 149.217 491.955C149.217 491.955 160.889 493.295 160.586 495.125C160.4 496.238 126.413 496.495 126.343 497.313C126.303 497.744 129.223 477.131 129.223 477.131Z" fill="#3D3D3D"/>
<path d="M163.191 368.122C163.191 368.122 149.868 349.44 152.243 349.451C154.618 349.462 155.857 352.979 160.47 355.386C160.47 355.386 153.107 332.023 155.385 332.513C157.663 333.003 163.099 347.997 163.456 347.981C163.812 347.965 158.767 331.165 160.657 330.959C162.546 330.753 167.181 346.381 167.181 346.381C167.181 346.381 164.006 331.525 166.009 331.192C168.012 330.859 170.965 344.545 170.965 344.545C170.965 344.545 168.606 333.052 170.425 332.773C171.535 332.602 181.592 361.11 181.592 361.11C181.333 361.11 163.191 368.122 163.191 368.122Z" fill="#3D3D3D" fill-opacity="0.1"/>
<path d="M40.3116 419.519C40.4573 419.505 40.954 420.39 40.981 422.153C40.9756 423.009 40.6274 424.251 39.545 425.028C39.0267 425.416 38.2547 425.692 37.453 425.516C36.6621 425.351 36.0656 424.812 35.6337 424.341C34.7672 423.325 34.2004 422.724 33.3096 422.616C32.4566 422.481 31.69 422.768 31.1934 423.222C30.1596 424.17 30.1919 425.267 29.9814 425.256C29.841 425.345 29.3039 424.081 30.47 422.54C31.0395 421.804 32.184 421.203 33.4581 421.327C34.087 421.381 34.7591 421.606 35.326 422.039C35.8793 422.459 36.2734 422.965 36.6621 423.382C38.0577 425.294 39.8905 423.428 39.9904 422.053C40.2117 420.602 40.0821 419.535 40.3116 419.519Z" fill="#3D3D3D"/>
<path d="M52.2991 409.143C52.21 409.024 52.7066 408.139 54.194 407.199C54.9255 406.758 56.1644 406.412 57.3899 406.934C57.9892 407.178 58.6262 407.695 58.8934 408.472C59.1633 409.235 59.0149 410.029 58.8394 410.641C58.4237 411.91 58.2078 412.709 58.5803 413.53C58.9096 414.328 59.5547 414.837 60.1972 415.027C61.5441 415.419 62.4592 414.821 62.559 415.008C62.7075 415.084 61.9112 416.199 59.992 416.002C59.0689 415.899 57.9622 415.23 57.4061 414.074C57.1254 413.508 56.9688 412.815 57.0417 412.103C57.1119 411.41 57.3386 410.809 57.4898 410.259C58.3913 408.069 55.8513 407.47 54.6258 408.101C53.2735 408.664 52.4313 409.333 52.2991 409.143Z" fill="#3D3D3D"/>
<path d="M51.4892 383.292C51.4002 383.173 51.8968 382.288 53.3841 381.348C54.1156 380.907 55.3546 380.56 56.5801 381.083C57.1793 381.327 57.8164 381.844 58.0836 382.621C58.3535 383.384 58.2051 384.178 58.0296 384.789C57.6139 386.059 57.398 386.858 57.7705 387.678C58.0998 388.477 58.7449 388.986 59.3874 389.176C60.7316 389.568 61.6494 388.97 61.7492 389.157C61.8977 389.23 61.1014 390.348 59.1822 390.15C58.259 390.047 57.1523 389.379 56.5963 388.223C56.3156 387.657 56.159 386.964 56.2319 386.252C56.3021 385.558 56.5288 384.957 56.68 384.408C57.5815 382.217 55.0415 381.619 53.816 382.25C52.4637 382.813 51.6215 383.482 51.4892 383.292Z" fill="#3D3D3D"/>
<path d="M77.0489 416.96C76.9382 417.057 76.0177 416.64 74.9515 415.235C74.4494 414.542 73.996 413.335 74.409 412.065C74.5979 411.445 75.0568 410.763 75.8045 410.429C76.5387 410.094 77.3377 410.172 77.9639 410.294C79.2623 410.597 80.0748 410.746 80.8548 410.302C81.6214 409.904 82.0695 409.217 82.2018 408.556C82.4744 407.178 81.7996 406.314 81.9778 406.198C82.0398 406.043 83.2167 406.739 83.1897 408.678C83.1681 409.609 82.5986 410.773 81.5 411.431C80.9601 411.762 80.288 411.981 79.5754 411.967C78.8817 411.957 78.2635 411.786 77.7048 411.68C75.4509 410.971 75.0784 413.562 75.8099 414.732C76.4901 416.029 77.2243 416.808 77.0489 416.96Z" fill="#3D3D3D"/>
<path d="M94.4727 443.994C94.5537 444.119 93.9922 444.966 92.4401 445.792C91.6789 446.179 90.4157 446.434 89.2334 445.819C88.653 445.532 88.0565 444.969 87.8486 444.176C87.6354 443.393 87.8405 442.616 88.0619 442.018C88.5694 440.781 88.8447 440.001 88.5316 439.156C88.2616 438.333 87.657 437.778 87.028 437.542C85.7162 437.052 84.758 437.58 84.6716 437.385C84.5285 437.301 85.4031 436.246 87.3061 436.584C88.2184 436.755 89.2739 437.504 89.7435 438.698C89.9838 439.286 90.089 439.987 89.9649 440.691C89.8434 441.379 89.5735 441.961 89.3845 442.497C88.3237 444.614 90.8152 445.4 92.0811 444.861C93.4686 444.4 94.3539 443.797 94.4727 443.994Z" fill="#3D3D3D"/>
<path d="M114.99 401.354C115.071 401.479 114.51 402.326 112.957 403.152C112.196 403.539 110.933 403.793 109.751 403.179C109.17 402.892 108.574 402.329 108.366 401.535C108.153 400.753 108.358 399.976 108.579 399.377C109.087 398.14 109.362 397.36 109.049 396.516C108.779 395.693 108.174 395.138 107.545 394.902C106.231 394.412 105.275 394.94 105.189 394.745C105.046 394.661 105.923 393.605 107.823 393.944C108.736 394.114 109.791 394.864 110.261 396.058C110.501 396.646 110.606 397.347 110.482 398.051C110.361 398.739 110.091 399.321 109.899 399.857C108.838 401.974 111.33 402.759 112.596 402.22C113.983 401.76 114.871 401.156 114.99 401.354Z" fill="#3D3D3D"/>
<path d="M128.986 394.867C129.075 394.75 130.06 394.994 131.361 396.177C131.982 396.765 132.646 397.869 132.471 399.193C132.398 399.838 132.071 400.59 131.396 401.056C130.735 401.522 129.933 401.59 129.299 401.584C127.968 401.525 127.142 401.527 126.457 402.107C125.776 402.637 125.461 403.398 125.452 404.07C125.436 405.475 126.257 406.2 126.103 406.347C126.071 406.509 124.786 406.041 124.459 404.132C124.311 403.211 124.656 401.963 125.617 401.116C126.087 400.691 126.71 400.355 127.412 400.236C128.098 400.117 128.735 400.173 129.304 400.173C131.65 400.458 131.545 397.842 130.611 396.827C129.706 395.679 128.84 395.045 128.986 394.867Z" fill="#3D3D3D"/>
<path d="M72.3601 466.044C72.4411 466.169 71.8796 467.016 70.3275 467.842C69.5663 468.229 68.3031 468.484 67.1208 467.869C66.5404 467.582 65.9439 467.019 65.736 466.226C65.5228 465.443 65.728 464.666 65.9493 464.068C66.4568 462.83 66.7321 462.051 66.419 461.206C66.149 460.383 65.5444 459.828 64.9155 459.592C63.6036 459.102 62.6454 459.63 62.559 459.435C62.4159 459.349 63.2932 458.295 65.1935 458.634C66.1059 458.804 67.1613 459.554 67.6309 460.748C67.8712 461.336 67.9765 462.037 67.8496 462.741C67.7281 463.426 67.4609 464.011 67.2692 464.547C66.2084 466.664 68.6999 467.449 69.9685 466.911C71.3533 466.448 72.2413 465.844 72.3601 466.044Z" fill="#3D3D3D"/>
<path d="M102.724 425.009C102.603 425.093 101.736 424.568 100.846 423.046C100.427 422.299 100.122 421.046 100.681 419.835C100.943 419.242 101.477 418.62 102.26 418.376C103.029 418.13 103.815 418.303 104.42 418.498C105.672 418.953 106.46 419.196 107.289 418.847C108.096 418.544 108.622 417.913 108.833 417.274C109.265 415.937 108.698 415 108.89 414.905C108.968 414.759 110.056 415.59 109.799 417.51C109.667 418.433 108.965 419.521 107.796 420.044C107.221 420.309 106.528 420.445 105.821 420.35C105.132 420.258 104.538 420.011 103.998 419.844C101.844 418.872 101.167 421.4 101.758 422.648C102.282 424.018 102.919 424.882 102.724 425.009Z" fill="#3D3D3D"/>
<path d="M108.177 447.057C108.056 447.14 107.189 446.615 106.298 445.096C105.88 444.349 105.575 443.095 106.134 441.885C106.396 441.292 106.93 440.67 107.713 440.426C108.482 440.179 109.268 440.353 109.872 440.548C111.125 441.003 111.913 441.246 112.742 440.897C113.549 440.594 114.075 439.963 114.286 439.324C114.717 437.986 114.151 437.05 114.34 436.955C114.418 436.809 115.506 437.64 115.249 439.559C115.117 440.483 114.415 441.571 113.246 442.094C112.671 442.359 111.978 442.494 111.27 442.4C110.582 442.308 109.988 442.064 109.448 441.893C107.294 440.921 106.617 443.45 107.208 444.698C107.732 446.066 108.369 446.929 108.177 447.057Z" fill="#3D3D3D"/>
<path d="M64.2271 437.653C64.0814 437.634 63.7926 436.662 64.1516 434.935C64.3432 434.101 64.9559 432.964 66.1814 432.447C66.7726 432.184 67.5851 432.084 68.3274 432.431C69.0643 432.766 69.5285 433.424 69.8444 433.977C70.4679 435.16 70.889 435.869 71.7339 436.17C72.5355 436.489 73.348 436.378 73.9311 436.045C75.1484 435.347 75.3536 434.269 75.5587 434.329C75.7153 434.274 75.9636 435.623 74.4871 436.871C73.7718 437.464 72.522 437.8 71.3074 437.399C70.7054 437.207 70.0981 436.841 69.6419 436.294C69.1938 435.761 68.9185 435.181 68.6297 434.691C67.6876 432.52 65.4904 433.936 65.0909 435.257C64.5618 436.619 64.4539 437.689 64.2271 437.653Z" fill="#3D3D3D"/>
<path d="M103.918 464.869C103.772 464.85 103.483 463.878 103.842 462.151C104.034 461.317 104.646 460.18 105.872 459.663C106.463 459.4 107.275 459.3 108.018 459.646C108.755 459.982 109.219 460.64 109.535 461.192C110.158 462.376 110.579 463.085 111.424 463.386C112.226 463.705 113.038 463.594 113.622 463.261C114.839 462.562 115.044 461.485 115.249 461.544C115.406 461.49 115.654 462.839 114.178 464.087C113.462 464.68 112.212 465.015 110.998 464.612C110.396 464.42 109.791 464.054 109.332 463.507C108.884 462.974 108.609 462.395 108.32 461.905C107.378 459.733 105.181 461.149 104.781 462.47C104.252 463.838 104.144 464.907 103.918 464.869Z" fill="#3D3D3D"/>
<path d="M102.768 382.415C102.622 382.396 102.333 381.424 102.692 379.697C102.884 378.863 103.496 377.726 104.722 377.208C105.313 376.946 106.126 376.846 106.868 377.192C107.605 377.528 108.069 378.186 108.385 378.738C109.008 379.921 109.43 380.631 110.274 380.931C111.076 381.251 111.889 381.14 112.472 380.807C113.689 380.108 113.894 379.031 114.099 379.09C114.256 379.036 114.504 380.384 113.028 381.633C112.312 382.225 111.063 382.561 109.848 382.158C109.246 381.966 108.641 381.6 108.182 381.053C107.734 380.52 107.459 379.94 107.17 379.45C106.228 377.279 104.031 378.695 103.631 380.016C103.102 381.381 102.994 382.45 102.768 382.415Z" fill="#3D3D3D"/>
<path d="M89.8003 475.816C89.7248 475.943 88.7206 475.826 87.2792 474.811C86.5909 474.305 85.7919 473.292 85.8027 471.957C85.7946 471.31 86.024 470.52 86.6368 469.973C87.2333 469.429 88.0215 469.258 88.6504 469.185C89.9785 469.077 90.7964 468.971 91.4064 468.31C92.0138 467.699 92.2324 466.905 92.1595 466.237C92.0003 464.839 91.096 464.222 91.231 464.057C91.2418 463.892 92.5752 464.195 93.1367 466.05C93.3985 466.943 93.2095 468.227 92.3647 469.188C91.9517 469.667 91.3767 470.081 90.6938 470.287C90.0298 470.49 89.39 470.514 88.8259 470.585C86.464 470.596 86.8932 473.179 87.9459 474.069C88.9852 475.098 89.9245 475.618 89.8003 475.816Z" fill="#3D3D3D"/>
<path d="M42.7247 394.867C42.8543 394.794 43.6641 395.403 44.4037 397.003C44.7465 397.788 44.93 399.066 44.2552 400.214C43.9367 400.78 43.3456 401.346 42.5412 401.511C41.7503 401.682 40.9864 401.432 40.4033 401.178C39.1995 400.601 38.4383 400.284 37.5826 400.547C36.7485 400.772 36.1628 401.346 35.8928 401.963C35.3314 403.252 35.8065 404.24 35.6067 404.316C35.5149 404.454 34.5135 403.52 34.9535 401.633C35.1748 400.729 35.9792 399.713 37.1912 399.307C37.7877 399.101 38.4923 399.034 39.186 399.196C39.8635 399.356 40.4276 399.656 40.9513 399.878C43.0001 401.056 43.9205 398.606 43.4535 397.306C43.0702 395.898 42.5196 394.975 42.7247 394.867Z" fill="#3D3D3D"/>
<path d="M88.1617 386.709C88.2913 386.636 89.1011 387.245 89.8407 388.845C90.1835 389.63 90.3671 390.908 89.6922 392.056C89.3737 392.622 88.7826 393.188 87.9782 393.353C87.1873 393.524 86.4234 393.275 85.8404 393.02C84.6365 392.444 83.8753 392.127 83.0196 392.389C82.1855 392.614 81.5998 393.188 81.3299 393.805C80.7684 395.094 81.2435 396.082 81.0437 396.158C80.9519 396.296 79.9505 395.362 80.3905 393.475C80.6118 392.571 81.4162 391.555 82.6282 391.149C83.2247 390.944 83.9293 390.876 84.623 391.038C85.3005 391.198 85.8647 391.499 86.3883 391.721C88.4371 392.898 89.3575 390.448 88.8906 389.149C88.51 387.741 87.9593 386.817 88.1617 386.709Z" fill="#3D3D3D"/>
<path d="M60.1514 434.67C60.0542 434.659 60.0704 433.665 60.1811 431.881C60.2918 430.097 60.4969 427.517 60.7804 424.333C61.3445 417.967 62.2353 409.171 63.2772 399.491C63.5147 397.09 63.6389 394.748 63.3096 392.565C63.0046 390.38 62.157 388.418 60.9288 386.823C58.4509 383.604 54.9337 381.928 51.9429 381.213C48.9116 380.482 46.3284 380.517 44.5684 380.569C42.8004 380.631 41.8179 380.742 41.799 380.633C41.7855 380.55 42.7383 380.257 44.5226 380.022C46.2987 379.805 48.9467 379.605 52.1588 380.241C55.3251 380.869 59.1635 382.534 61.9491 386.027C63.3339 387.749 64.3218 389.982 64.6673 392.354C65.0452 394.729 64.913 397.187 64.6727 399.629C63.6254 409.341 62.5808 418.097 61.7629 424.441C61.3526 427.611 60.9963 430.173 60.7183 431.941C60.4483 433.709 60.2486 434.681 60.1514 434.67Z" fill="#3D3D3D"/>
<path d="M61.9545 432.458C61.995 432.845 52.7689 434.142 41.3509 435.355C29.9275 436.568 20.6393 437.236 20.5988 436.849C20.5583 436.462 29.7817 435.165 41.2051 433.952C52.6204 432.739 61.914 432.071 61.9545 432.458Z" fill="#3D3D3D"/>
<path d="M118.175 427.879C117.714 427.836 119.946 419.67 117.398 409.942C115.009 400.171 109.162 394.065 109.548 393.805C109.659 393.694 111.262 395.029 113.254 397.737C115.246 400.428 117.484 404.595 118.758 409.596C120.016 414.596 120.032 419.329 119.56 422.648C119.098 425.981 118.324 427.923 118.175 427.879Z" fill="#3D3D3D"/>
<path d="M121.94 16.5004C117.699 20.586 116.085 26.9459 120.131 31.8546C123.94 36.4736 131.309 37.4537 136.068 33.7715C147.55 24.8801 135.582 8.47537 123.189 11.8706C120.895 12.4987 121.467 15.7802 123.735 15.9102C127.357 16.1186 131.236 16.2567 134.132 18.8045C137.242 21.5418 137.309 26.1689 134.758 29.315C128.002 37.646 116.271 25.3783 123.365 17.93C124.258 16.9877 122.876 15.5988 121.94 16.5004Z" fill="#3D3D3D" fill-opacity="0.1"/>
<path d="M116.541 11.0854C112.301 15.171 110.686 21.531 114.733 26.4397C118.541 31.0586 125.91 32.0388 130.669 28.3566C142.152 19.4651 130.183 3.06039 117.791 6.4556C115.496 7.08374 116.069 10.3652 118.336 10.4952C121.959 10.7037 125.837 10.8417 128.734 13.3895C131.843 16.1268 131.911 20.7539 129.36 23.9C122.604 32.231 110.873 19.9633 117.966 12.515C118.86 11.5728 117.478 10.1838 116.541 11.0854Z" fill="#8AA9FC"/>
<path d="M60.3025 285.292C56.0376 283.358 50.7902 283.805 46.9114 286.429C43.0325 289.052 40.6544 293.769 40.8434 298.458C40.9918 302.124 42.4494 306.299 40.1254 309.131C38.3276 311.321 35.1209 311.527 32.5458 312.694C27.6493 314.914 25.2145 321.41 27.4387 326.316C28.6426 328.972 31.0315 331.417 30.5753 334.297C30.2811 336.163 28.8019 337.638 27.1688 338.578C25.5357 339.517 23.7029 340.051 22.0131 340.879C15.848 343.906 12.1014 350.938 12.2795 357.82C12.4577 364.703 16.2313 371.233 21.6487 375.465C27.0635 379.697 33.971 381.752 40.8299 382.009C47.705 382.266 54.8959 380.65 60.1406 376.188C64.0761 372.839 66.6458 368.141 68.5434 363.324C72.1497 354.168 73.61 344.166 72.7759 334.357C71.9122 324.177 68.6298 314.311 67.9145 304.12C67.6743 300.705 67.7202 297.245 66.9617 293.907C66.2032 290.568 64.4999 287.271 61.582 285.495" fill="#251A51"/>
<path d="M58.7396 286.61C62.6454 278.463 70.414 272.29 79.211 270.333C84.6176 269.13 90.5453 269.534 95.296 272.39C100.047 275.244 103.326 280.811 102.603 286.318C102.155 289.724 100.317 292.759 99.1452 295.989C97.9764 299.216 97.5904 303.153 99.7633 305.809C101.712 308.192 105.057 308.776 107.715 310.32C111.516 312.524 113.908 316.969 113.654 321.366C113.403 325.763 110.52 329.903 106.493 331.657C110.493 332.123 114.253 334.368 116.566 337.671C118.882 340.974 119.714 345.284 118.796 349.216C117.479 354.853 112.912 359.168 108.002 362.212C101.175 366.443 93.2607 368.894 85.2466 369.259C76.7384 369.646 67.3125 367.12 62.6859 359.948C59.6465 355.237 59.185 349.365 58.8448 343.763C57.8164 326.863 57.1119 309.943 56.4074 293.027C56.294 290.306 56.1833 287.541 56.8231 284.894" fill="#251A51"/>
<path d="M87.3655 362.967L163.645 391.65L156.359 360.75L176.196 355.695C176.196 355.695 197.534 416.096 182.715 417.713C156.772 420.542 117.519 410.24 117.519 410.24L87.3655 362.967Z" fill="#F6AEA6"/>
<path d="M80.6956 494.801C80.6956 494.801 172.846 393.911 235.057 415.937C297.267 437.962 323.534 540.72 323.534 540.72L273.983 539.913C273.983 539.913 234.852 462.303 215.757 465.311C196.662 468.319 137.686 542.19 137.686 542.19L80.6956 494.801Z" fill="#55318C"/>
<path d="M109.851 433.552L113.676 492.746C93.8115 517.243 24.6585 485.568 24.6585 485.568L23.8514 460.821L22.248 401.874C23.8406 378.4 45.578 366.877 45.578 366.877C54.5639 362.385 68.2682 359.834 80.6147 360.446C93.5038 361.085 96.689 367.275 101.998 379.074C106.285 388.604 117.927 404.132 109.851 433.552Z" fill="#EDC483"/>
<path d="M37.5825 496.72C37.5825 496.72 27.0067 539.899 59.2416 546.706C91.4764 553.513 210.034 537.59 240.914 540.314C271.794 543.037 359.613 548.176 359.613 548.176L366.042 496.902C366.042 496.902 229.383 490.328 213.938 494.181C198.49 498.031 37.5825 496.72 37.5825 496.72Z" fill="#6338A1"/>
<path d="M53.0388 421.232C53.0388 421.232 43.3726 478.366 57.004 476.961C101.842 472.336 128.541 471.711 128.541 471.711L135.972 487.19C136.144 489.827 51.0602 514.257 37.3883 506.18C27.7357 500.476 12.3578 485.116 19.3382 439.208L20.9875 423.818L53.0388 421.232Z" fill="#F6AEA6"/>
<path d="M93.4956 503.256L93.4038 499.428L149.681 491.457L164.619 439.061L226.962 437.542L210.14 494.256L93.4956 503.256Z" fill="#968ABC"/>
<path d="M194.657 463.895C194.719 466.45 192.702 468.573 190.154 468.635C187.606 468.698 185.49 466.675 185.428 464.119C185.366 461.563 187.382 459.441 189.93 459.378C192.478 459.316 194.595 461.339 194.657 463.895Z" fill="white"/>
<path opacity="0.41" d="M196.506 463.848C196.592 467.428 193.769 470.401 190.2 470.487C186.632 470.574 183.668 467.742 183.582 464.163C183.495 460.583 186.319 457.61 189.887 457.524C193.456 457.44 196.417 460.269 196.506 463.848Z" fill="white"/>
<path d="M28.3752 383.336C28.3752 383.336 17.9182 393.407 15.5779 431.526L56.0564 427.035C56.0564 427.035 62.8019 362.117 28.3752 383.336Z" fill="#EDC483"/>
<path d="M349.798 129.247C349.798 129.247 364.148 161.567 368.148 159.875C372.148 158.182 409.21 135.12 409.21 135.12C409.21 135.12 394.021 106.182 390.86 104.493C387.699 102.803 349.798 129.247 349.798 129.247Z" fill="#3D3D3D" fill-opacity="0.09"/>
<path d="M344.4 123.832C344.4 123.832 358.749 156.152 362.75 154.46C366.75 152.767 403.811 129.705 403.811 129.705C403.811 129.705 388.622 100.767 385.461 99.0776C382.301 97.3882 344.4 123.832 344.4 123.832Z" fill="#D6B0EA"/>
<path d="M385.461 99.0774C385.642 99.1451 384.587 102.462 382.735 107.763C380.881 113.067 378.23 120.358 375.22 128.381C375.145 128.578 375.072 128.776 375.004 128.96L374.802 129.502L374.235 129.41C365.935 128.053 358.46 126.753 353.07 125.746C347.679 124.739 344.373 124.024 344.403 123.835C344.432 123.645 347.796 124.016 353.227 124.772C358.657 125.527 366.156 126.67 374.459 128.018L373.69 128.465C373.757 128.283 373.833 128.086 373.906 127.885C376.915 119.863 379.715 112.626 381.807 107.414C383.893 102.199 385.278 99.007 385.461 99.0774Z" fill="#1A3066"/>
<path d="M358.034 150.664C357.656 150.58 358.771 145.27 360.525 138.81C362.283 132.347 364.005 127.206 364.375 127.325C364.744 127.444 363.63 132.751 361.883 139.181C360.137 145.606 358.412 150.748 358.034 150.664Z" fill="#1A3066"/>
<path d="M401.366 123.275C401.303 123.659 396.134 123.158 389.815 122.154C383.496 121.149 378.424 120.023 378.484 119.638C378.543 119.254 383.715 119.755 390.034 120.759C396.353 121.764 401.425 122.89 401.366 123.275Z" fill="#1A3066"/>
<path d="M48.6469 303.443L49.5647 315.542C49.5647 315.542 39.3074 316.929 42.2307 326.316C45.1541 335.7 52.1722 331.595 52.1722 331.595C52.1722 331.595 53.9267 355.643 78.4848 348.019C98.0304 341.951 96.8346 316.563 94.3539 294.919C93.393 286.534 85.4868 280.77 77.227 282.384L62.4619 285.27C53.9267 286.932 47.9883 294.746 48.6469 303.443Z" fill="#F6AEA6"/>
<path d="M49.5647 325.585L56.1806 360.98C57.6707 368.953 65.5094 374.057 73.3778 372.173C80.6686 370.426 85.3383 363.284 84.0292 355.882L80.4391 335.594L49.5647 325.585Z" fill="#F6AEA6"/>
<path d="M76.7302 325.985C76.8247 325.918 77.0244 326.299 77.4725 326.351C77.9098 326.397 78.5738 325.942 78.7358 324.978C78.9598 324.025 78.8357 322.774 78.7007 321.32C78.5846 319.761 78.4713 318.217 78.3498 316.604C77.9314 309.905 77.9071 304.455 78.2931 304.431C78.6791 304.407 79.3323 309.816 79.7507 316.514C79.8317 318.131 79.91 319.677 79.991 321.239C80.0476 322.674 80.1016 324.087 79.6859 325.26C79.362 326.481 78.1069 327.242 77.3241 326.879C76.5791 326.5 76.6789 325.974 76.7302 325.985Z" fill="#251A51"/>
<path d="M84.6986 345.544C84.8065 345.677 83.8321 346.755 81.813 347.919C79.8156 349.08 76.6952 350.226 73.1024 350.299C69.5097 350.377 66.3407 349.365 64.2974 348.287C62.2324 347.209 61.2121 346.172 61.3147 346.037C61.4928 345.644 66.284 349.056 73.0727 348.888C79.8588 348.772 84.5015 345.16 84.6986 345.544Z" fill="#251A51"/>
<path d="M79.8993 330.951C80.037 331.048 79.7211 331.844 78.6333 332.611C77.586 333.366 75.6506 333.986 73.6235 333.344C71.6017 332.681 70.3897 331.046 69.9767 329.819C69.5367 328.56 69.7419 327.729 69.9119 327.729C70.1252 327.71 70.2925 328.444 70.8756 329.394C71.437 330.336 72.5248 331.503 74.0526 332.001C75.5858 332.489 77.146 332.175 78.1502 331.739C79.1759 331.311 79.7373 330.81 79.8993 330.951Z" fill="#251A51"/>
<path d="M48.7928 327.488C48.7955 327.653 48.1936 327.943 47.1274 327.629C46.6199 327.472 45.9424 327.014 45.6535 326.218C45.5078 325.834 45.443 325.357 45.5888 324.862C45.7048 324.38 46.1637 323.854 46.6766 323.687C47.3703 323.402 48.3474 323.57 48.7982 324.339L47.6051 324.962C46.825 322.983 46.4471 321.461 46.7387 321.331C47.0302 321.201 47.8993 322.503 48.8387 324.412L47.6456 325.035C47.6186 324.994 47.4189 324.91 47.1786 325.002C46.9168 325.084 46.798 325.395 46.8871 325.812C46.9735 326.207 47.2353 326.502 47.5538 326.727C48.1963 327.155 48.809 327.279 48.7928 327.488Z" fill="#251A51"/>
<path d="M86.5665 310.509C86.1886 310.596 85.6865 309.797 85.4436 308.728C85.2033 307.658 85.314 306.721 85.6919 306.635C86.0698 306.548 86.5719 307.347 86.8148 308.416C87.0551 309.486 86.9444 310.423 86.5665 310.509Z" fill="#251A51"/>
<path d="M65.7711 312.448C65.3959 312.551 64.8534 311.768 64.5565 310.699C64.2595 309.629 64.3216 308.676 64.6968 308.571C65.072 308.468 65.6146 309.25 65.9115 310.32C66.2084 311.392 66.1463 312.345 65.7711 312.448Z" fill="#251A51"/>
<path d="M67.7013 303.638C67.5825 304.019 66.4758 304.006 65.2503 304.35C64.0141 304.656 63.0585 305.211 62.767 304.937C62.4674 304.702 63.234 303.418 64.894 302.985C66.5514 302.546 67.8471 303.286 67.7013 303.638Z" fill="#251A51"/>
<path d="M88.9364 300.261C88.7798 300.63 87.5624 300.448 86.1372 300.589C84.7093 300.697 83.5405 301.09 83.3246 300.754C83.0924 300.454 84.1991 299.341 86.0157 299.184C87.8297 299.021 89.1118 299.926 88.9364 300.261Z" fill="#251A51"/>
<path d="M49.5648 315.542C56.4183 308.839 58.4346 297.67 60.2944 288.251C66.6432 292.889 75.3754 294.029 82.6958 291.178C84.9929 293.885 87.6922 296.252 90.6749 298.171C91.5225 298.718 92.5293 299.246 93.493 298.954C94.6429 298.604 95.1557 297.283 95.4284 296.108C96.3056 292.353 96.3353 288.329 95.0289 284.701C93.7224 281.073 90.9853 277.887 87.398 276.492C83.5623 275.003 79.2488 275.65 75.2701 276.684C69.275 278.244 63.4958 280.64 58.1512 283.781C52.9065 286.865 47.8669 290.942 45.64 296.614C43.4158 302.289 43.4239 313.317 48.7901 316.187" fill="#251A51"/>
<g opacity="0.28">
<path d="M77.5455 332.264C77.8748 334.173 76.2552 336.03 74.0337 335.567C71.8149 335.085 71.0888 332.727 72.1631 331.119C73.2347 329.486 74.6654 328.519 75.494 328.671C76.3119 328.869 77.2297 330.334 77.5455 332.264Z" fill="#251A51"/>
</g>
<g opacity="0.12">
<path d="M69.0022 321.028C69.345 322.937 66.9912 324.956 63.7116 325.103C60.4293 325.254 57.9055 323.456 58.0728 321.526C58.2375 319.579 60.6182 318.193 63.3904 318.06C66.1653 317.941 68.6621 319.106 69.0022 321.028Z" fill="#251A51"/>
</g>
<g opacity="0.12">
<path d="M94.9722 318.902C95.3582 320.803 93.2986 322.826 90.3294 322.977C87.3602 323.132 85.1036 321.331 85.2925 319.401C85.4788 317.457 87.5707 316.068 89.9677 315.935C92.362 315.821 94.5889 316.988 94.9722 318.902Z" fill="#251A51"/>
</g>
<path d="M49.2812 347.572C48.8844 347.561 48.6685 343.682 48.4201 338.914C48.1799 334.143 47.999 330.26 48.3904 330.212C48.7683 330.16 49.5808 334.01 49.8238 338.84C50.0775 343.671 49.6618 347.583 49.2812 347.572Z" fill="#5944D8"/>
<path d="M90.035 362.707C83.3948 360.062 134.449 379.074 134.449 379.074L129.272 414.104L109.853 407.714L90.035 362.707Z" fill="#EDC483"/>
<path d="M59.652 283.467C61.2581 281.035 61.7872 277.916 61.0719 275.09C60.4834 272.764 58.7316 270.454 56.34 270.333C54.9796 270.262 53.6623 270.926 52.6636 271.854C50.1991 274.145 49.5648 278.179 51.206 281.119C52.8498 284.06 56.6099 285.622 59.8464 284.709" fill="#251A51"/>
<path d="M364.674 507.81C364.674 507.81 381.28 483.927 379.256 492.97C377.231 502.011 360.363 542.193 360.363 542.193L364.674 507.81Z" fill="#251A51"/>
<path d="M123.825 471.716C123.825 471.716 145.767 464.812 145.014 467.084C144.261 469.353 140.528 469.439 136.795 473.1C136.795 473.1 161.323 473.368 160.144 475.393C158.964 477.421 142.998 477.93 142.901 478.274C142.806 478.621 160.365 479.051 159.968 480.925C159.572 482.798 143.257 482.341 143.257 482.341C143.257 482.341 158.384 483.954 158.073 485.977C157.763 487.999 143.819 486.54 143.819 486.54C143.819 486.54 155.49 487.88 155.188 489.711C155.002 490.823 121.015 491.081 120.945 491.898C120.904 492.329 123.825 471.716 123.825 471.716Z" fill="#F6AEA6"/>
<path d="M157.793 362.707C157.793 362.707 144.469 344.025 146.844 344.036C149.22 344.047 150.459 347.564 155.072 349.971C155.072 349.971 147.708 326.608 149.986 327.098C152.264 327.588 157.701 342.582 158.057 342.566C158.413 342.55 153.368 325.75 155.258 325.544C157.147 325.338 161.782 340.966 161.782 340.966C161.782 340.966 158.608 326.11 160.611 325.777C162.613 325.444 165.566 339.13 165.566 339.13C165.566 339.13 163.207 327.637 165.027 327.358C166.136 327.187 176.194 355.695 176.194 355.695C175.934 355.695 157.793 362.707 157.793 362.707Z" fill="#F6AEA6"/>
<path d="M34.9129 414.104C35.0586 414.09 35.5553 414.975 35.5823 416.738C35.5769 417.594 35.2287 418.836 34.1463 419.613C33.628 420 32.856 420.277 32.0543 420.101C31.2635 419.936 30.6669 419.397 30.235 418.926C29.3686 417.91 28.8017 417.309 27.9109 417.201C27.058 417.066 26.2914 417.353 25.7947 417.807C24.7609 418.755 24.7933 419.852 24.5827 419.841C24.4424 419.93 23.9052 418.666 25.0713 417.125C25.6408 416.389 26.7853 415.788 28.0594 415.912C28.6883 415.966 29.3605 416.191 29.9273 416.624C30.4807 417.044 30.8748 417.55 31.2635 417.967C32.659 419.879 34.4918 418.013 34.5917 416.638C34.813 415.187 34.6834 414.12 34.9129 414.104Z" fill="#F9F2FC"/>
<path d="M46.9006 403.728C46.8115 403.609 47.3082 402.724 48.7955 401.784C49.527 401.343 50.766 400.997 51.9915 401.519C52.5907 401.763 53.2277 402.28 53.495 403.057C53.7649 403.82 53.6164 404.614 53.441 405.226C53.0253 406.495 52.8094 407.294 53.1819 408.115C53.5112 408.913 54.1563 409.422 54.7987 409.612C56.1457 410.004 57.0607 409.406 57.1606 409.593C57.3091 409.669 56.5128 410.784 54.5936 410.587C53.6704 410.484 52.5637 409.815 52.0077 408.659C51.7269 408.093 51.5704 407.4 51.6433 406.688C51.7134 405.995 51.9402 405.394 52.0913 404.844C52.9929 402.654 50.4529 402.055 49.2274 402.686C47.8751 403.249 47.0329 403.918 46.9006 403.728Z" fill="#F9F2FC"/>
<path d="M46.0908 377.877C46.0017 377.758 46.4984 376.873 47.9857 375.933C48.7172 375.492 49.9562 375.145 51.1817 375.668C51.7809 375.912 52.4179 376.429 52.6852 377.206C52.9551 377.969 52.8066 378.763 52.6312 379.374C52.2155 380.644 51.9995 381.443 52.372 382.263C52.7014 383.062 53.3465 383.571 53.9889 383.761C55.3332 384.153 56.2509 383.555 56.3508 383.742C56.4992 383.815 55.703 384.933 53.7838 384.735C52.8606 384.632 51.7539 383.964 51.1978 382.808C50.9171 382.242 50.7606 381.549 50.8334 380.837C50.9036 380.143 51.1304 379.542 51.2815 378.993C52.1831 376.802 49.6431 376.204 48.4176 376.835C47.0652 377.398 46.2231 378.067 46.0908 377.877Z" fill="#F9F2FC"/>
<path d="M71.6502 411.545C71.5395 411.642 70.619 411.226 69.5528 409.82C69.0508 409.127 68.5973 407.92 69.0103 406.65C69.1992 406.03 69.6581 405.348 70.4058 405.015C71.14 404.679 71.939 404.757 72.5652 404.879C73.8636 405.182 74.6761 405.331 75.4562 404.887C76.2228 404.489 76.6708 403.802 76.8031 403.141C77.0757 401.763 76.4009 400.899 76.5791 400.783C76.6412 400.628 77.818 401.324 77.791 403.263C77.7695 404.194 77.1999 405.358 76.1013 406.016C75.5614 406.347 74.8893 406.566 74.1767 406.552C73.483 406.542 72.8649 406.371 72.3061 406.265C70.0522 405.556 69.6797 408.147 70.4112 409.317C71.0914 410.614 71.8256 411.393 71.6502 411.545Z" fill="#F9F2FC"/>
<path d="M89.0743 438.579C89.1552 438.704 88.5938 439.551 87.0417 440.377C86.2805 440.764 85.0172 441.019 83.8349 440.404C83.2546 440.117 82.658 439.554 82.4502 438.761C82.237 437.978 82.4421 437.201 82.6634 436.603C83.1709 435.366 83.4462 434.586 83.1331 433.741C82.8632 432.918 82.2586 432.363 81.6296 432.127C80.3178 431.637 79.3595 432.165 79.2731 431.97C79.1301 431.886 80.0046 430.831 81.9076 431.169C82.82 431.34 83.8754 432.09 84.3451 433.284C84.5853 433.871 84.6906 434.572 84.5664 435.276C84.445 435.964 84.175 436.546 83.9861 437.082C82.9253 439.199 85.4167 439.985 86.6827 439.446C88.0701 438.986 88.9555 438.382 89.0743 438.579Z" fill="#F9F2FC"/>
<path d="M109.592 395.939C109.673 396.063 109.111 396.911 107.559 397.737C106.798 398.124 105.535 398.378 104.352 397.764C103.772 397.477 103.175 396.914 102.967 396.12C102.754 395.338 102.959 394.561 103.181 393.962C103.688 392.725 103.964 391.945 103.65 391.101C103.38 390.278 102.776 389.723 102.147 389.487C100.832 388.997 99.8768 389.525 99.7904 389.33C99.6474 389.246 100.525 388.19 102.425 388.529C103.337 388.699 104.393 389.449 104.862 390.643C105.103 391.231 105.208 391.932 105.084 392.636C104.962 393.324 104.692 393.906 104.501 394.442C103.44 396.559 105.931 397.344 107.197 396.805C108.585 396.345 109.473 395.741 109.592 395.939Z" fill="#F9F2FC"/>
<path d="M123.587 389.452C123.676 389.335 124.661 389.579 125.962 390.762C126.583 391.35 127.247 392.454 127.072 393.778C126.999 394.423 126.672 395.175 125.998 395.641C125.336 396.107 124.535 396.174 123.9 396.169C122.569 396.109 121.744 396.112 121.058 396.692C120.378 397.222 120.062 397.983 120.054 398.655C120.038 400.06 120.858 400.785 120.704 400.932C120.672 401.094 119.387 400.626 119.06 398.717C118.912 397.796 119.257 396.548 120.218 395.701C120.688 395.276 121.312 394.94 122.013 394.821C122.699 394.702 123.336 394.758 123.906 394.758C126.251 395.043 126.146 392.427 125.212 391.412C124.308 390.264 123.441 389.63 123.587 389.452Z" fill="#F9F2FC"/>
<path d="M66.9617 460.629C67.0426 460.754 66.4812 461.601 64.9291 462.427C64.1679 462.814 62.9046 463.069 61.7223 462.454C61.142 462.167 60.5455 461.604 60.3376 460.811C60.1244 460.028 60.3295 459.251 60.5509 458.653C61.0583 457.415 61.3336 456.636 61.0205 455.791C60.7506 454.968 60.146 454.413 59.517 454.177C58.2052 453.687 57.2469 454.215 57.1606 454.02C57.0175 453.934 57.8948 452.88 59.7951 453.219C60.7074 453.389 61.7628 454.139 62.2325 455.333C62.4727 455.921 62.578 456.622 62.4512 457.326C62.3297 458.011 62.0625 458.596 61.8708 459.132C60.81 461.249 63.3014 462.034 64.5701 461.496C65.9548 461.033 66.8429 460.429 66.9617 460.629Z" fill="#F9F2FC"/>
<path d="M97.326 419.594C97.2045 419.678 96.3381 419.153 95.4473 417.631C95.0289 416.884 94.7239 415.631 95.2826 414.42C95.5445 413.827 96.0789 413.205 96.8617 412.961C97.631 412.715 98.4165 412.888 99.0211 413.083C100.274 413.538 101.062 413.781 101.89 413.432C102.698 413.129 103.224 412.498 103.434 411.859C103.866 410.522 103.3 409.585 103.491 409.49C103.569 409.344 104.657 410.175 104.401 412.095C104.269 413.018 103.567 414.106 102.398 414.629C101.823 414.894 101.129 415.03 100.422 414.935C99.7338 414.843 99.1399 414.596 98.6001 414.428C96.446 413.457 95.7685 415.985 96.3596 417.233C96.8833 418.603 97.5203 419.467 97.326 419.594Z" fill="#F9F2FC"/>
<path d="M102.778 441.642C102.657 441.725 101.79 441.2 100.9 439.681C100.481 438.934 100.176 437.68 100.735 436.47C100.997 435.877 101.531 435.255 102.314 435.011C103.083 434.764 103.869 434.938 104.474 435.133C105.726 435.588 106.514 435.831 107.343 435.482C108.15 435.179 108.676 434.548 108.887 433.909C109.319 432.571 108.752 431.635 108.941 431.54C109.019 431.394 110.107 432.225 109.851 434.144C109.718 435.068 109.016 436.156 107.848 436.679C107.273 436.944 106.579 437.079 105.872 436.985C105.183 436.893 104.59 436.649 104.05 436.478C101.896 435.506 101.218 438.035 101.809 439.283C102.333 440.651 102.97 441.514 102.778 441.642Z" fill="#F9F2FC"/>
<path d="M58.8287 432.238C58.6829 432.219 58.3941 431.247 58.7531 429.52C58.9448 428.686 59.5575 427.549 60.783 427.032C61.3741 426.769 62.1866 426.669 62.9289 427.016C63.6658 427.351 64.1301 428.009 64.4459 428.562C65.0694 429.745 65.4905 430.454 66.3354 430.755C67.1371 431.074 67.9496 430.963 68.5326 430.63C69.75 429.932 69.9552 428.854 70.1603 428.914C70.3169 428.859 70.5652 430.208 69.0887 431.456C68.3734 432.049 67.1236 432.385 65.9089 431.984C65.307 431.792 64.6997 431.426 64.2435 430.879C63.7954 430.346 63.5201 429.766 63.2312 429.276C62.2892 427.105 60.092 428.521 59.6925 429.842C59.1634 431.204 59.0554 432.274 58.8287 432.238Z" fill="#F9F2FC"/>
<path d="M98.5189 459.454C98.3731 459.435 98.0843 458.463 98.4433 456.736C98.635 455.902 99.2477 454.765 100.473 454.248C101.064 453.985 101.877 453.885 102.619 454.231C103.356 454.567 103.82 455.225 104.136 455.777C104.76 456.961 105.181 457.67 106.026 457.97C106.827 458.29 107.64 458.179 108.223 457.846C109.44 457.147 109.645 456.07 109.85 456.129C110.007 456.075 110.255 457.424 108.779 458.672C108.064 459.265 106.814 459.6 105.599 459.197C104.997 459.005 104.393 458.639 103.934 458.092C103.486 457.559 103.21 456.98 102.921 456.489C101.979 454.318 99.7822 455.734 99.3827 457.055C98.8536 458.423 98.7456 459.492 98.5189 459.454Z" fill="#F9F2FC"/>
<path d="M97.369 377C97.2232 376.981 96.9344 376.009 97.2934 374.282C97.4851 373.448 98.0978 372.311 99.3233 371.793C99.9144 371.531 100.727 371.431 101.469 371.777C102.206 372.113 102.67 372.771 102.986 373.323C103.61 374.506 104.031 375.216 104.876 375.516C105.677 375.836 106.49 375.725 107.073 375.392C108.29 374.693 108.495 373.616 108.701 373.675C108.857 373.621 109.105 374.969 107.629 376.218C106.914 376.81 105.664 377.146 104.449 376.743C103.847 376.551 103.243 376.185 102.784 375.638C102.336 375.105 102.06 374.525 101.772 374.035C100.829 371.864 98.6322 373.28 98.2328 374.601C97.7037 375.966 97.5957 377.035 97.369 377Z" fill="#F9F2FC"/>
<path d="M84.4017 470.401C84.3261 470.528 83.3219 470.411 81.8805 469.396C81.1922 468.89 80.3932 467.877 80.404 466.542C80.3959 465.895 80.6254 465.105 81.2381 464.558C81.8346 464.014 82.6228 463.843 83.2518 463.77C84.5798 463.662 85.3977 463.556 86.0077 462.895C86.6151 462.284 86.8337 461.49 86.7608 460.821C86.6016 459.424 85.6973 458.807 85.8323 458.642C85.8431 458.477 87.1765 458.78 87.738 460.635C87.9998 461.528 87.8109 462.811 86.966 463.773C86.553 464.252 85.978 464.666 85.2951 464.872C84.6311 465.075 83.9914 465.099 83.4272 465.17C81.0653 465.181 81.4945 467.764 82.5472 468.654C83.5865 469.683 84.5258 470.203 84.4017 470.401Z" fill="#F9F2FC"/>
<path d="M37.3261 389.452C37.4556 389.379 38.2654 389.988 39.005 391.588C39.3478 392.373 39.5314 393.651 38.8565 394.799C38.538 395.365 37.9469 395.931 37.1425 396.096C36.3516 396.267 35.5877 396.017 35.0047 395.763C33.8008 395.186 33.0396 394.869 32.1839 395.132C31.3498 395.357 30.7641 395.931 30.4942 396.548C29.9327 397.837 30.4078 398.825 30.208 398.901C30.1163 399.039 29.1148 398.105 29.5548 396.218C29.7761 395.314 30.5805 394.298 31.7925 393.892C32.3891 393.686 33.0936 393.619 33.7873 393.781C34.4648 393.941 35.029 394.241 35.5526 394.463C37.6014 395.641 38.5218 393.191 38.0549 391.891C37.6716 390.483 37.1209 389.56 37.3261 389.452Z" fill="#F9F2FC"/>
<path d="M82.7633 381.294C82.8929 381.221 83.7027 381.83 84.4423 383.43C84.7851 384.215 84.9686 385.493 84.2938 386.641C83.9753 387.207 83.3841 387.773 82.5798 387.938C81.7889 388.109 81.025 387.86 80.4419 387.605C79.238 387.029 78.4768 386.712 77.6212 386.974C76.7871 387.199 76.2013 387.773 75.9314 388.39C75.37 389.679 75.845 390.667 75.6453 390.743C75.5535 390.881 74.5521 389.947 74.9921 388.06C75.2134 387.156 76.0178 386.141 77.2298 385.734C77.8263 385.529 78.5308 385.461 79.2245 385.623C79.9021 385.783 80.4662 386.084 80.9899 386.306C83.0386 387.483 83.9591 385.033 83.4921 383.734C83.1115 382.326 82.5609 381.402 82.7633 381.294Z" fill="#F9F2FC"/>
<path d="M54.7527 429.255C54.6556 429.244 54.6718 428.25 54.7824 426.466C54.8931 424.682 55.0982 422.102 55.3817 418.918C55.9458 412.552 56.8366 403.756 57.8785 394.076C58.116 391.675 58.2402 389.333 57.9109 387.15C57.6059 384.965 56.7583 383.003 55.5301 381.408C53.0522 378.189 49.535 376.513 46.5442 375.798C43.5129 375.067 40.9297 375.102 39.1698 375.153C37.4017 375.216 36.4192 375.327 36.4003 375.218C36.3868 375.135 37.3396 374.842 39.1239 374.607C40.9 374.39 43.548 374.19 46.7601 374.826C49.9264 375.454 53.7648 377.119 56.5505 380.612C57.9352 382.334 58.9231 384.567 59.2686 386.939C59.6465 389.314 59.5143 391.772 59.274 394.214C58.2267 403.926 57.1821 412.682 56.3642 419.026C55.9539 422.196 55.5976 424.758 55.3196 426.526C55.0497 428.294 54.8499 429.266 54.7527 429.255Z" fill="#251A51"/>
<path d="M56.5559 427.043C56.5963 427.43 47.3702 428.727 35.9522 429.94C24.5288 431.153 15.2406 431.821 15.2001 431.434C15.1596 431.047 24.3831 429.75 35.8064 428.537C47.2217 427.324 56.5154 426.656 56.5559 427.043Z" fill="#251A51"/>
<path d="M112.776 422.464C112.315 422.421 114.547 414.255 111.999 404.527C109.61 394.756 103.764 388.65 104.15 388.39C104.26 388.279 105.864 389.614 107.856 392.322C109.848 395.013 112.085 399.18 113.36 404.181C114.617 409.181 114.634 413.914 114.161 417.233C113.7 420.566 112.925 422.508 112.776 422.464Z" fill="#251A51"/>
<path d="M225.862 428.804C226.21 426.481 226.145 424.272 227.438 422.225C230.016 418.145 233.692 419.157 237.247 420.952C240.859 422.775 244.257 423.871 248.185 422.165C254.371 419.48 257.114 410.293 251.356 405.858C249.488 404.42 247.567 406.79 247.845 408.566C248.236 411.065 249.451 413.826 247.316 415.976C244.454 418.854 241.099 416.444 238.246 415.15C235.174 413.759 231.911 413.447 228.739 414.731C223.273 416.94 219.305 424.367 223.645 429.389C224.253 430.101 225.716 429.782 225.862 428.804Z" fill="#3D3D3D" fill-opacity="0.1"/>
<path d="M220.463 423.389C220.811 421.066 220.747 418.857 222.04 416.81C224.617 412.73 228.294 413.742 231.849 415.537C235.46 417.36 238.859 418.456 242.786 416.75C248.973 414.065 251.715 404.878 245.958 400.443C244.09 399.005 242.168 401.375 242.446 403.151C242.838 405.65 244.052 408.411 241.917 410.561C239.056 413.439 235.701 411.029 232.847 409.735C229.776 408.344 226.512 408.032 223.341 409.316C217.875 411.525 213.907 418.952 218.247 423.974C218.854 424.686 220.317 424.367 220.463 423.389Z" fill="#6E3281"/>
<path d="M263.811 283.504C264.391 287.27 268.286 295.216 272.394 296.313C274.573 296.895 276.192 295.454 277.885 294.285C280.967 292.154 284.015 289.974 287.062 287.795C288.164 287.007 288.817 285.494 287.996 284.226C285.297 280.062 282.6 275.895 279.901 271.731C279.186 270.627 277.537 269.95 276.344 270.795C272.975 273.185 269.363 275.403 266.289 278.172C264.183 280.068 266.872 283.292 269.234 282.001C272.659 280.125 275.782 277.561 278.97 275.3C277.785 274.988 276.597 274.677 275.412 274.363C278.112 278.527 280.808 282.694 283.507 286.858C283.818 285.67 284.128 284.478 284.441 283.29C282.611 284.597 280.776 285.897 278.951 287.21C278.036 287.868 274.292 291.296 273.299 291.071C272.119 290.806 270.216 287.397 269.471 286.506C268.175 284.96 266.961 283.501 265.29 282.361C264.483 281.811 263.689 282.721 263.811 283.504Z" fill="#3D3D3D" fill-opacity="0.1"/>
<path d="M258.412 278.089C258.993 281.855 262.888 289.801 266.996 290.898C269.174 291.48 270.794 290.039 272.486 288.87C275.569 286.739 278.616 284.559 281.664 282.38C282.765 281.592 283.418 280.079 282.598 278.811C279.899 274.647 277.202 270.48 274.503 266.316C273.787 265.212 272.138 264.535 270.945 265.38C267.576 267.77 263.965 269.988 260.89 272.757C258.785 274.653 261.473 277.877 263.835 276.586C267.261 274.71 270.384 272.146 273.571 269.885C272.386 269.573 271.199 269.262 270.014 268.948C272.713 273.112 275.41 277.279 278.109 281.443C278.419 280.255 278.73 279.063 279.043 277.875C277.213 279.182 275.377 280.482 273.553 281.795C272.638 282.453 268.894 285.881 267.9 285.656C266.721 285.391 264.818 281.982 264.073 281.091C262.777 279.545 261.562 278.086 259.891 276.946C259.084 276.396 258.291 277.306 258.412 278.089Z" fill="#EDC483"/>
<path d="M322.811 18.5036C323.391 22.2697 327.286 30.2162 331.394 31.3127C333.573 31.8948 335.192 30.4545 336.885 29.2848C339.967 27.154 343.015 24.9745 346.062 22.7949C347.164 22.0071 347.817 20.4936 346.996 19.2265C344.297 15.0623 341.6 10.8955 338.901 6.73134C338.186 5.62668 336.537 4.94981 335.344 5.79455C331.975 8.18527 328.363 10.4027 325.289 13.1725C323.183 15.0677 325.872 18.2924 328.234 17.0009C331.659 15.1246 334.782 12.5606 337.97 10.2998C336.785 9.98846 335.597 9.6771 334.412 9.36303C337.112 13.5272 339.808 17.694 342.507 21.8581C342.818 20.6695 343.128 19.4782 343.441 18.2897C341.611 19.5974 339.776 20.897 337.951 22.2101C337.036 22.868 333.292 26.2957 332.299 26.071C331.119 25.8057 329.216 22.3969 328.471 21.5062C327.175 19.9602 325.961 18.5008 324.29 17.361C323.483 16.8114 322.689 17.7211 322.811 18.5036Z" fill="#3D3D3D" fill-opacity="0.1"/>
<path d="M317.412 13.0885C317.993 16.8547 321.888 24.8012 325.996 25.8977C328.174 26.4798 329.794 25.0394 331.486 23.8698C334.569 21.739 337.616 19.5595 340.664 17.3799C341.765 16.592 342.418 15.0786 341.598 13.8114C338.899 9.64731 336.202 5.48046 333.503 1.31633C332.787 0.211668 331.138 -0.465199 329.945 0.379541C326.576 2.77026 322.965 4.9877 319.89 7.75747C317.785 9.65272 320.473 12.8774 322.835 11.5859C326.261 9.70958 329.384 7.14558 332.571 4.88481C331.386 4.57345 330.199 4.26209 329.014 3.94802C331.713 8.11215 334.41 12.279 337.109 16.4431C337.419 15.2545 337.73 14.0632 338.043 12.8746C336.213 14.1824 334.377 15.482 332.553 16.7951C331.638 17.453 327.894 20.8807 326.9 20.656C325.721 20.3907 323.818 16.9819 323.073 16.0912C321.777 14.5452 320.562 13.0858 318.891 11.946C318.084 11.3964 317.291 12.3061 317.412 13.0885Z" fill="#EDC483"/>
<path d="M215.94 361.5C211.699 365.586 210.085 371.946 214.131 376.855C217.94 381.474 225.309 382.456 230.068 378.772C241.55 369.88 229.582 353.475 217.189 356.871C214.895 357.499 215.467 360.78 217.735 360.91C221.36 361.119 225.236 361.257 228.132 363.805C231.242 366.542 231.309 371.169 228.758 374.315C222.005 382.646 210.271 370.378 217.365 362.93C218.256 361.988 216.873 360.602 215.94 361.5Z" fill="#3D3D3D" fill-opacity="0.1"/>
<path d="M210.541 356.085C206.301 360.171 204.686 366.531 208.733 371.44C212.541 376.059 219.91 377.041 224.669 373.357C236.152 364.465 224.183 348.06 211.791 351.456C209.496 352.084 210.069 355.365 212.336 355.495C215.961 355.704 219.837 355.842 222.734 358.39C225.843 361.127 225.911 365.754 223.36 368.9C216.606 377.231 204.873 364.963 211.966 357.515C212.857 356.573 211.475 355.187 210.541 356.085Z" fill="#8AA9FC"/>
<path d="M29.9395 690.5C25.6989 694.586 24.0848 700.946 28.131 705.855C31.9397 710.474 39.3087 711.456 44.0676 707.772C55.5504 698.88 43.5817 682.475 31.1893 685.871C28.8949 686.499 29.4671 689.78 31.7345 689.91C35.3597 690.119 39.2359 690.257 42.1322 692.805C45.2418 695.542 45.3093 700.169 42.7584 703.315C36.0048 711.646 24.271 699.378 31.3647 691.93C32.2555 690.988 30.8735 689.602 29.9395 690.5Z" fill="#3D3D3D" fill-opacity="0.1"/>
<path d="M24.5411 685.085C20.3005 689.171 18.6863 695.531 22.7326 700.44C26.5413 705.059 33.9103 706.041 38.6691 702.357C50.1519 693.465 38.1833 677.06 25.7908 680.456C23.4965 681.084 24.0687 684.365 26.3361 684.495C29.9613 684.704 33.8374 684.842 36.7338 687.39C39.8433 690.127 39.9108 694.754 37.36 697.9C30.6064 706.231 18.8726 693.963 25.9663 686.515C26.8571 685.573 25.475 684.187 24.5411 685.085Z" fill="#8AA9FC"/>
<path d="M354.71 296.47C353.247 304.089 352 311.724 350.837 319.397C350.559 321.241 351.822 322.487 353.649 322.219C360.829 321.171 367.993 320.204 375.079 318.631C376.442 318.328 376.996 316.644 376.348 315.501C372.331 308.408 367.216 298.531 359.658 294.662C357.744 293.682 355.034 295.802 356.465 297.865C358.716 301.111 362.044 303.545 364.66 306.518C367.675 309.943 370.506 313.628 372.679 317.654C373.292 316.584 373.902 315.515 374.515 314.448C367.089 315.185 359.782 316.522 352.435 317.797C353.398 318.534 354.365 319.273 355.328 320.009C356.211 312.298 357.002 304.604 357.58 296.863C357.701 295.228 355.021 294.846 354.71 296.47Z" fill="#3D3D3D" fill-opacity="0.1"/>
<path d="M349.312 291.055C347.849 298.674 346.602 306.309 345.438 313.982C345.16 315.826 346.424 317.072 348.251 316.804C355.431 315.756 362.595 314.789 369.681 313.216C371.044 312.913 371.597 311.229 370.949 310.086C366.933 302.993 361.818 293.116 354.26 289.247C352.346 288.267 349.636 290.387 351.066 292.45C353.317 295.696 356.646 298.13 359.261 301.103C362.276 304.528 365.108 308.213 367.281 312.239C367.894 311.169 368.504 310.1 369.116 309.033C361.691 309.77 354.384 311.107 347.036 312.382C348 313.119 348.966 313.858 349.93 314.594C350.813 306.883 351.603 299.189 352.181 291.448C352.303 289.813 349.622 289.431 349.312 291.055Z" fill="#E3707F"/>
<path d="M19.7102 131.47C18.2472 139.089 17.0001 146.724 15.8367 154.397C15.5587 156.241 16.8219 157.487 18.6494 157.219C25.8295 156.171 32.9934 155.204 40.079 153.631C41.4421 153.328 41.9955 151.644 41.3477 150.501C37.3311 143.408 32.216 133.531 24.658 129.662C22.7442 128.682 20.0341 130.802 21.4647 132.865C23.7159 136.111 27.0441 138.545 29.6598 141.518C32.6749 144.943 35.5064 148.628 37.6793 152.654C38.2921 151.584 38.9021 150.515 39.5149 149.448C32.0891 150.185 24.7821 151.522 17.4347 152.797C18.3983 153.534 19.3647 154.273 20.3283 155.009C21.211 147.298 22.0019 139.604 22.5795 131.863C22.701 130.228 20.0206 129.846 19.7102 131.47Z" fill="#3D3D3D" fill-opacity="0.1"/>
<path d="M14.3117 126.055C12.8487 133.674 11.6017 141.309 10.4383 148.982C10.1602 150.826 11.4235 152.072 13.2509 151.804C20.431 150.756 27.5949 149.789 34.6806 148.216C36.0437 147.913 36.5971 146.229 35.9492 145.086C31.9327 137.993 26.8175 128.116 19.2595 124.247C17.3457 123.267 14.6357 125.387 16.0663 127.45C18.3175 130.696 21.6457 133.13 24.2613 136.103C27.2764 139.528 30.108 143.213 32.2809 147.239C32.8936 146.169 33.5037 145.1 34.1164 144.033C26.6907 144.77 19.3837 146.107 12.0363 147.382C12.9999 148.119 13.9662 148.858 14.9299 149.594C15.8125 141.883 16.6034 134.189 17.1811 126.448C17.3026 124.813 14.6222 124.431 14.3117 126.055Z" fill="#E3707F"/>
<path d="M302.633 389.663C304.295 382.201 305.642 374.168 305.974 366.524C306.077 364.142 302.206 363.543 301.761 365.953C300.36 373.518 299.855 381.597 299.798 389.278C299.788 390.878 302.271 391.282 302.633 389.663Z" fill="#3D3D3D" fill-opacity="0.1"/>
<path d="M297.234 384.248C298.897 376.786 300.244 368.753 300.576 361.109C300.678 358.727 296.808 358.128 296.362 360.538C294.961 368.103 294.457 376.182 294.4 383.863C294.389 385.463 296.872 385.867 297.234 384.248Z" fill="#E8947E"/>
<path d="M412.633 735.663C414.295 728.201 415.642 720.168 415.974 712.524C416.077 710.142 412.206 709.543 411.761 711.953C410.36 719.518 409.855 727.597 409.798 735.278C409.788 736.878 412.271 737.282 412.633 735.663Z" fill="#3D3D3D" fill-opacity="0.1"/>
<path d="M407.234 730.248C408.897 722.786 410.244 714.753 410.576 707.109C410.678 704.727 406.808 704.128 406.362 706.538C404.961 714.103 404.457 722.182 404.4 729.863C404.389 731.463 406.872 731.867 407.234 730.248Z" fill="#E8947E"/>
<path d="M371.84 383.718C379.411 384.782 387.399 385.526 395.043 385.247C397.853 385.144 397.748 381.227 395.043 380.945C387.582 380.168 379.7 380.333 372.223 380.877C370.722 380.986 370.126 383.477 371.84 383.718Z" fill="#3D3D3D" fill-opacity="0.1"/>
<path d="M366.441 378.302C374.013 379.367 382 380.111 389.644 379.832C392.454 379.729 392.349 375.812 389.644 375.53C382.183 374.753 374.302 374.918 366.825 375.462C365.324 375.571 364.727 378.062 366.441 378.302Z" fill="#EDC483"/>
<path d="M154.104 609.701C160.801 613.323 168.14 616.854 175.396 619.196C177.682 619.935 179.237 616.364 177.048 615.265C170.224 611.832 162.537 609.184 155.216 607.058C153.661 606.606 152.649 608.913 154.104 609.701Z" fill="#E3707F"/>
<path d="M137.13 205.228C129.339 207.787 122.891 214.103 120.073 221.825C117.252 229.544 118.086 238.501 122.203 245.613C130.125 259.302 150.469 263.71 163.318 254.524C176.169 245.337 178.653 224.611 168.336 212.63C158.022 200.652 137.216 200.1 126.284 211.518" fill="#DDD2F3"/>
</svg>
