<svg width="96" height="24" viewBox="0 0 96 24" fill="none" xmlns="http://www.w3.org/2000/svg">
<path d="M12 12C13.1935 12 14.3381 11.5259 15.182 10.682C16.0259 9.83807 16.5 8.69347 16.5 7.5C16.5 6.30653 16.0259 5.16193 15.182 4.31802C14.3381 3.47411 13.1935 3 12 3C10.8065 3 9.66193 3.47411 8.81802 4.31802C7.97411 5.16193 7.5 6.30653 7.5 7.5C7.5 8.69347 7.97411 9.83807 8.81802 10.682C9.66193 11.5259 10.8065 12 12 12V12ZM15 7.5C15 8.29565 14.6839 9.05871 14.1213 9.62132C13.5587 10.1839 12.7956 10.5 12 10.5C11.2044 10.5 10.4413 10.1839 9.87868 9.62132C9.31607 9.05871 9 8.29565 9 7.5C9 6.70435 9.31607 5.94129 9.87868 5.37868C10.4413 4.81607 11.2044 4.5 12 4.5C12.7956 4.5 13.5587 4.81607 14.1213 5.37868C14.6839 5.94129 15 6.70435 15 7.5V7.5ZM21 19.5C21 21 19.5 21 19.5 21H4.5C4.5 21 3 21 3 19.5C3 18 4.5 13.5 12 13.5C19.5 13.5 21 18 21 19.5ZM19.5 19.494C19.4985 19.125 19.269 18.015 18.252 16.998C17.274 16.02 15.4335 15 12 15C8.565 15 6.726 16.02 5.748 16.998C4.731 18.015 4.503 19.125 4.5 19.494H19.5Z" fill="black" fill-opacity="0.2"/>
<path fill-rule="evenodd" clip-rule="evenodd" d="M35.0253 4.35366C34.2303 4.35366 33.4679 4.66945 32.9058 5.23157C32.3437 5.79369 32.0279 6.55609 32.0279 7.35104V10.3484H38.0226V7.35104C38.0226 6.55609 37.7069 5.79369 37.1447 5.23157C36.5826 4.66945 35.8202 4.35366 35.0253 4.35366ZM39.3763 10.3484V7.35104C39.3763 6.19708 38.9179 5.09037 38.1019 4.27439C37.2859 3.45841 36.1792 3 35.0253 3C33.8713 3 32.7646 3.45841 31.9486 4.27439C31.1326 5.09037 30.6742 6.19708 30.6742 7.35104V10.3484H28.9016C28.3972 10.3484 27.9136 10.5488 27.557 10.9054C27.2003 11.262 27 11.7457 27 12.25V19.5984C27 20.1028 27.2003 20.5864 27.557 20.943C27.9136 21.2997 28.3972 21.5 28.9016 21.5H41.149C41.6533 21.5 42.137 21.2997 42.4936 20.943C42.8502 20.5864 43.0505 20.1028 43.0505 19.5984V18.9764C43.6269 18.8486 44.1603 18.5589 44.5843 18.1348C45.1706 17.5486 45.5 16.7534 45.5 15.9242C45.5 15.0951 45.1706 14.2999 44.5843 13.7136C44.1603 13.2895 43.6269 12.9999 43.0505 12.872V12.25C43.0505 11.7457 42.8502 11.262 42.4936 10.9054C42.137 10.5488 41.6533 10.3484 41.149 10.3484H39.3763ZM41.6969 12.7979V12.25C41.6969 12.1047 41.6391 11.9653 41.5364 11.8626C41.4336 11.7598 41.2943 11.7021 41.149 11.7021H28.9016C28.7563 11.7021 28.6169 11.7598 28.5141 11.8626C28.4114 11.9653 28.3537 12.1047 28.3537 12.25V19.5984C28.3537 19.7437 28.4114 19.8831 28.5141 19.9859C28.6169 20.0886 28.7563 20.1463 28.9016 20.1463H41.149C41.2943 20.1463 41.4336 20.0886 41.5364 19.9859C41.6391 19.8831 41.6969 19.7437 41.6969 19.5984V19.0505H37.4747C36.6456 19.0505 35.8504 18.7211 35.2641 18.1348C34.6778 17.5486 34.3484 16.7534 34.3484 15.9242C34.3484 15.0951 34.6778 14.2999 35.2641 13.7136C35.8504 13.1273 36.6456 12.7979 37.4747 12.7979H41.6969ZM37.4747 14.1516C37.0046 14.1516 36.5537 14.3383 36.2213 14.6708C35.8889 15.0032 35.7021 15.4541 35.7021 15.9242C35.7021 16.3944 35.8889 16.8452 36.2213 17.1777C36.5537 17.5101 37.0046 17.6969 37.4747 17.6969H42.3737C42.8438 17.6969 43.2947 17.5101 43.6271 17.1777C43.9596 16.8452 44.1463 16.3943 44.1463 15.9242C44.1463 15.4541 43.9596 15.0032 43.6271 14.6708C43.2947 14.3383 42.8438 14.1516 42.3737 14.1516H37.4747ZM40.5366 16.601H39.3118V15.2474H40.5366V16.601ZM38.0871 16.601H36.8624V15.2474H38.0871V16.601ZM42.9861 16.601H41.7613V15.2474H42.9861V16.601Z" fill="black" fill-opacity="0.2"/>
<path d="M50 7.5C50 6.83696 50.2634 6.20107 50.7322 5.73223C51.2011 5.26339 51.837 5 52.5 5H67.5C68.163 5 68.7989 5.26339 69.2678 5.73223C69.7366 6.20107 70 6.83696 70 7.5V17.5C70 18.163 69.7366 18.7989 69.2678 19.2678C68.7989 19.7366 68.163 20 67.5 20H52.5C51.837 20 51.2011 19.7366 50.7322 19.2678C50.2634 18.7989 50 18.163 50 17.5V7.5ZM52.5 6.25C52.1685 6.25 51.8505 6.3817 51.6161 6.61612C51.3817 6.85054 51.25 7.16848 51.25 7.5V7.77125L60 13.0212L68.75 7.77125V7.5C68.75 7.16848 68.6183 6.85054 68.3839 6.61612C68.1495 6.3817 67.8315 6.25 67.5 6.25H52.5ZM68.75 9.22875L62.865 12.76L68.75 16.3812V9.22875ZM68.7075 17.8237L61.6575 13.485L60 14.4788L58.3425 13.485L51.2925 17.8225C51.3635 18.0885 51.5204 18.3236 51.7387 18.4913C51.9571 18.659 52.2247 18.75 52.5 18.75H67.5C67.7752 18.75 68.0426 18.6593 68.261 18.4918C68.4793 18.3243 68.6362 18.0895 68.7075 17.8237V17.8237ZM51.25 16.3812L57.135 12.76L51.25 9.22875V16.3812Z" fill="black" fill-opacity="0.2"/>
</svg>
