<svg width="489" height="752" viewBox="0 0 489 752" fill="none" xmlns="http://www.w3.org/2000/svg">
<path d="M127.644 622.98C74.9678 605.194 29.2818 560.991 19.9255 506.11C10.5692 451.229 45.1295 389.367 99.433 377.47C125.11 371.844 152.822 376.869 177.355 367.421C223.622 349.601 239.345 289.321 282.086 264.183C323.268 239.961 379.732 257.432 410.411 294.091C441.09 330.749 450.042 381.332 448.162 429.127C445.399 499.347 415.609 575.077 352.014 604.769C298.424 629.791 185.118 636.882 127.644 622.98Z" fill="#DDD2F3"/>
<g clip-path="url(#clip0_506_116427)">
<path d="M389.818 589.078L421.101 634.683L432.282 634.947L411.779 588.053L389.818 589.078Z" fill="#263238"/>
<path d="M59.7746 591.409L43.2935 634.475H51.534L80.3186 591.598L59.7746 591.409Z" fill="#263238"/>
<path d="M52.7155 434.903L53.9236 490.628C54.0942 498.509 60.424 504.858 68.2855 505.034L379.397 511.977C387.638 512.16 394.416 505.514 394.416 497.251V430.118C394.416 410.299 379.839 393.512 360.256 390.812C303.303 382.961 185.836 370.886 90.9045 388.044C68.4106 392.11 52.2188 411.994 52.7155 434.903Z" fill="#6338A1"/>
<path d="M51.3179 454.377C51.3179 454.377 25.6875 442.484 20.4444 454.377C15.2013 466.269 21.027 480.869 26.8527 489.044C32.6783 497.22 32.5835 597.669 32.5835 597.669L421.267 593.505L425.873 496.875C425.873 496.875 444.514 473.861 443.349 463.933C442.184 454.006 426.456 439.564 408.399 454.377C390.341 469.189 385.681 500.141 385.681 500.141L75.7856 502.477C75.7831 502.476 76.808 458.979 51.3179 454.377Z" fill="#6338A1"/>
<path d="M381.72 519.439C381.72 519.621 312.863 519.768 227.944 519.768C142.996 519.768 74.1543 519.62 74.1543 519.439C74.1543 519.256 142.996 519.109 227.944 519.109C312.863 519.108 381.72 519.256 381.72 519.439Z" fill="#263238"/>
<path d="M74.1543 561.969C74.143 561.969 74.1316 561.866 74.1189 561.664C74.1088 561.423 74.0962 561.128 74.0798 560.767C74.0494 559.977 74.0242 558.813 74.0128 557.316C74.0052 554.261 73.9938 549.94 73.9812 544.625C73.966 533.912 74.0558 519.107 73.5692 502.774C73.2723 494.619 72.9803 486.805 71.7912 479.864C71.565 479.026 71.3426 478.198 71.1227 477.38C70.8055 476.584 70.4997 475.793 70.1648 475.027C69.4976 473.497 68.8152 472.025 68.0709 470.648C66.605 467.879 65.0039 465.428 63.3396 463.353C61.6778 461.275 59.9541 459.582 58.3189 458.247C56.6609 456.94 55.1078 455.981 53.7772 455.317C51.1057 454.003 49.4591 453.683 49.4894 453.587C49.492 453.576 49.5943 453.595 49.7902 453.643C50.024 453.705 50.3083 453.78 50.6571 453.873C51.4254 454.058 52.5236 454.462 53.8896 455.085C55.2519 455.72 56.8454 456.658 58.5476 457.956C60.2258 459.281 61.9963 460.972 63.701 463.056C65.4083 465.138 67.0511 467.602 68.5523 470.387C69.3156 471.773 70.0144 473.254 70.6968 474.794C71.0393 475.565 71.3527 476.359 71.6775 477.163C71.9113 478.011 72.1476 478.87 72.3877 479.74C73.6248 486.772 73.9294 494.577 74.2289 502.751C74.7167 519.103 74.5511 533.911 74.4475 544.625C74.3729 549.94 74.3123 554.258 74.2706 557.313C74.2466 558.767 74.2276 559.919 74.2137 560.763C74.2036 561.124 74.1948 561.419 74.1872 561.66C74.1758 561.865 74.1657 561.969 74.1543 561.969Z" fill="#263238"/>
<path d="M48.2863 476.804C48.2724 476.777 48.6136 476.56 49.32 476.482C50.015 476.401 51.1056 476.54 52.1697 477.279C52.6916 477.649 53.2097 478.164 53.561 478.856C53.9085 479.545 54.074 480.404 53.93 481.264C53.6798 482.961 52.339 484.747 50.2994 485.151C48.2509 485.497 46.3705 484.324 45.4998 482.856C45.0411 482.118 44.8604 481.269 44.8844 480.504C44.9173 479.734 45.1485 479.047 45.448 478.482C46.0635 477.346 46.943 476.71 47.5786 476.425C48.2244 476.135 48.6224 476.128 48.6275 476.16C48.6427 476.217 48.2699 476.311 47.6987 476.652C47.1351 476.987 46.3718 477.635 45.8638 478.694C45.3533 479.725 45.1776 481.252 46.0167 482.538C46.7964 483.805 48.4759 484.8 50.1819 484.503C51.879 484.18 53.0934 482.631 53.3323 481.168C53.6242 479.659 52.8167 478.337 51.8954 477.655C50.9679 476.943 49.9834 476.738 49.3314 476.739C48.6692 476.735 48.304 476.861 48.2863 476.804Z" fill="#263238"/>
<path d="M50.0479 501.811C49.9986 501.863 49.1835 501.181 48.2901 499.733C47.3992 498.304 46.5082 496.033 46.4779 493.409C46.4463 490.784 47.2829 488.492 48.1397 487.043C48.9977 485.573 49.7964 484.874 49.8469 484.923C49.9316 484.992 49.272 485.791 48.5491 487.262C47.825 488.719 47.106 490.914 47.135 493.401C47.1654 495.886 47.9362 498.065 48.6944 499.504C49.4527 500.956 50.1313 501.739 50.0479 501.811Z" fill="#263238"/>
<path d="M45.9851 464.198C46.0837 464.242 45.8107 464.936 45.5984 466.091C45.3811 467.242 45.2977 468.878 45.6629 470.625C46.0382 472.371 46.7775 473.83 47.4434 474.794C48.1056 475.763 48.6364 476.285 48.5644 476.366C48.5201 476.424 47.8655 476.019 47.0719 475.076C46.2783 474.142 45.4165 472.615 45.0197 470.762C44.6305 468.907 44.7985 467.162 45.146 465.984C45.4872 464.8 45.9207 464.164 45.9851 464.198Z" fill="#263238"/>
<path d="M38.4143 478.211C38.5584 478.079 39.7349 479.27 41.5268 480.193C43.3074 481.138 44.954 481.423 44.9287 481.617C44.9312 481.786 43.1355 481.788 41.2223 480.778C39.3027 479.783 38.2753 478.306 38.4143 478.211Z" fill="#263238"/>
<path d="M422.77 561.969C422.77 562.151 335.096 562.298 226.971 562.298C118.807 562.298 31.1531 562.15 31.1531 561.969C31.1531 561.788 118.808 561.64 226.971 561.64C335.096 561.64 422.77 561.786 422.77 561.969Z" fill="#263238"/>
<path d="M380.37 500.459C380.552 500.459 380.699 514.22 380.699 531.193C380.699 548.171 380.551 561.93 380.37 561.93C380.189 561.93 380.042 548.171 380.042 531.193C380.04 514.22 380.188 500.459 380.37 500.459Z" fill="#263238"/>
<path d="M250.569 394.159C250.569 394.159 250.366 394.186 249.968 394.205C249.542 394.221 248.955 394.243 248.201 394.271C246.616 394.315 244.333 394.38 241.407 394.462C235.477 394.6 226.946 394.798 216.418 395.041C195.29 395.467 166.152 396.055 133.969 396.703C125.918 396.898 118.048 396.874 110.487 397.374C102.939 397.875 95.6434 398.934 89.1025 401.287C82.5401 403.545 76.8863 407.311 72.845 411.971C70.8331 414.302 69.1385 416.78 67.866 419.352C66.505 421.881 65.5989 424.498 64.7724 426.993C63.2737 432.046 62.6001 436.797 62.2147 440.968C61.828 445.146 61.7825 448.766 61.7623 451.72C61.7497 454.676 61.8129 456.973 61.8482 458.528C61.8647 459.285 61.8773 459.873 61.8861 460.3C61.8912 460.699 61.876 460.904 61.876 460.904C61.876 460.904 61.8457 460.701 61.8179 460.302C61.7926 459.875 61.7585 459.289 61.7143 458.533C61.6372 456.978 61.5323 454.682 61.5058 451.721C61.4856 448.762 61.4944 445.133 61.847 440.936C62.1983 436.745 62.8428 431.964 64.3251 426.857C65.144 424.333 66.0462 421.685 67.4123 419.117C68.6886 416.508 70.3972 413.984 72.4317 411.61C76.5173 406.86 82.2633 403.011 88.8965 400.713C95.5119 398.317 102.862 397.24 110.441 396.727C118.039 396.217 125.905 396.237 133.954 396.042C166.139 395.468 195.279 394.95 216.406 394.572C226.937 394.417 235.468 394.29 241.4 394.202C244.327 394.173 246.611 394.151 248.196 394.135C248.95 394.135 249.537 394.135 249.964 394.134C250.364 394.142 250.569 394.159 250.569 394.159Z" fill="#263238"/>
<path d="M151.072 437.556C151.095 437.613 150.652 437.77 150 438.26C149.356 438.742 148.514 439.639 148.042 441.003C147.56 442.335 147.558 444.228 148.744 445.712C149.859 447.179 152.008 448.216 154.105 447.733C156.195 447.216 157.647 445.32 157.982 443.505C158.374 441.643 157.519 439.956 156.491 438.985C155.454 437.98 154.299 437.561 153.508 437.423C152.706 437.28 152.241 437.339 152.236 437.279C152.228 437.251 152.688 437.1 153.544 437.168C154.385 437.234 155.646 437.604 156.809 438.644C157.38 439.164 157.926 439.848 158.28 440.706C158.626 441.561 158.774 442.588 158.58 443.616C158.233 445.646 156.661 447.771 154.259 448.375C151.843 448.921 149.485 447.736 148.263 446.081C147.626 445.252 147.296 444.268 147.22 443.348C147.151 442.423 147.329 441.566 147.606 440.844C148.176 439.389 149.135 438.49 149.856 438.05C150.588 437.602 151.066 437.528 151.072 437.556Z" fill="#263238"/>
<path d="M145.745 470.383C145.67 470.401 145.21 468.994 144.786 466.637C144.383 464.299 144.018 460.895 144.985 457.289C145.972 453.674 148.341 450.98 150.432 449.763C151.476 449.139 152.416 448.815 153.079 448.687C153.74 448.554 154.114 448.553 154.119 448.59C154.155 448.724 152.629 448.852 150.684 450.157C148.752 451.417 146.562 454.022 145.62 457.465C144.693 460.919 144.964 464.238 145.247 466.569C145.547 468.915 145.846 470.36 145.745 470.383Z" fill="#263238"/>
<path d="M150.348 417.989C150.439 418.074 149.439 418.948 148.485 420.782C147.53 422.576 146.735 425.48 147.423 428.542C148.129 431.602 150.101 433.872 151.739 435.073C153.393 436.311 154.671 436.663 154.625 436.779C154.614 436.817 154.288 436.768 153.723 436.583C153.157 436.401 152.363 436.045 151.47 435.453C149.696 434.303 147.536 431.954 146.781 428.689C146.047 425.42 146.977 422.365 148.078 420.557C148.626 419.634 149.189 418.969 149.618 418.559C150.048 418.144 150.321 417.958 150.348 417.989Z" fill="#263238"/>
<path d="M149.19 443.35C149.202 443.555 146.007 443.64 142.337 444.896C138.654 446.118 136.058 447.985 135.943 447.814C135.829 447.701 138.325 445.536 142.127 444.271C145.919 442.976 149.213 443.19 149.19 443.35Z" fill="#263238"/>
<g opacity="0.3">
<path d="M108.359 520.594C120.456 529.971 136.058 534.687 151.31 533.58C148.116 548.474 144.923 563.368 141.729 578.26C140.878 582.234 140.089 586.653 142.16 590.149C145.064 595.048 151.823 595.537 157.507 595.458C163.835 595.371 170.432 595.219 176.041 592.281C183.991 588.118 188.258 579.309 191.342 570.865C194.427 562.421 197.087 553.386 203.435 547.033C210.628 555.299 220.663 561.029 231.423 563.015C234.59 563.599 238.169 563.774 240.707 561.788C243.227 559.816 243.951 556.184 243.309 553.046C242.667 549.908 240.902 547.133 239.171 544.44C233.006 534.852 226.843 525.265 220.679 515.677C218.177 511.785 215.439 507.687 211.208 505.831C207.889 504.375 204.12 504.52 200.504 504.731C170.319 506.491 140.298 511.043 110.944 518.309" fill="black"/>
</g>
<g opacity="0.3">
<path d="M207.199 378.022C199.718 397.835 171.788 402.378 161.979 421.143C152.281 439.697 164.304 464.271 154.313 482.669C150.613 489.483 144.262 494.567 140.648 501.426C138.214 506.044 136.959 511.532 133.033 514.967C128.458 518.968 121.372 518.889 115.877 516.304C110.381 513.72 106.15 509.084 102.236 504.432C94.9017 495.713 88.0158 486.288 84.5899 475.412C78.6922 456.693 84.0971 435.529 95.9291 419.888C107.761 404.247 125.335 393.702 143.875 387.386C162.415 381.071 182.033 378.675 201.529 376.843" fill="black"/>
</g>
<path d="M117.347 325.914C120.25 321.578 124.036 317.742 128.68 315.379C133.324 313.016 138.878 312.232 143.83 313.854C148.781 315.474 152.961 319.679 153.969 324.801C154.769 328.862 153.691 333.398 155.783 336.966C158.19 341.072 163.991 342.372 166.026 346.676C167.252 349.267 166.762 352.416 165.416 354.947C164.07 357.479 161.967 359.509 159.865 361.454C161.137 362.36 162.431 363.296 163.327 364.577C164.223 365.858 164.664 367.568 164.063 369.013C163.428 370.538 161.835 371.406 160.317 372.051C153.316 375.025 145.391 375.773 137.96 374.157C135.964 373.724 133.681 373.179 132.037 374.394" fill="#263238"/>
<path d="M167.94 340.943L163.854 353.356L191.489 369.073L163.708 369.975L165.785 392.559L219.294 379.391C219.293 379.39 222.503 357.513 167.94 340.943L164.102 340.038C162.711 339.71 161.569 338.718 161.048 337.384C160.636 336.333 159.86 335.465 158.86 334.942L154.303 332.557L154.335 336.182L156.841 339.135L156.44 346.142C156.227 349.24 158.281 352.037 161.297 352.751L163.856 353.356" fill="#B78876"/>
<path d="M107.415 385.797C106.322 385.797 96.1161 388.281 90.2841 395.732C84.4521 403.184 76.0005 431.12 76.0005 431.12L97.5049 434.846L106.778 458.204C106.778 458.204 161.679 450.992 158.764 448.093C155.849 445.195 149.851 440.723 149.851 440.723L162.51 398.528L177.704 390.318L172.594 369.234L142.041 373.374L107.415 385.797Z" fill="#FAFAFA"/>
<path d="M159.913 408.26C159.913 408.442 142.795 408.589 121.683 408.589C100.564 408.589 83.45 408.441 83.45 408.26C83.45 408.079 100.564 407.931 121.683 407.931C142.795 407.929 159.913 408.078 159.913 408.26Z" fill="#6338A1"/>
<path d="M156.487 420.663C156.487 420.846 139.369 420.992 118.257 420.992C97.1384 420.992 80.0254 420.844 80.0254 420.663C80.0254 420.481 97.1397 420.334 118.257 420.334C139.369 420.334 156.487 420.481 156.487 420.663Z" fill="#6338A1"/>
<path d="M156.487 434.059C156.487 434.242 143.521 434.389 127.532 434.389C111.536 434.389 98.574 434.241 98.574 434.059C98.574 433.878 111.537 433.73 127.532 433.73C143.521 433.73 156.487 433.877 156.487 434.059Z" fill="#6338A1"/>
<path d="M160.93 446.959C160.93 447.141 147.964 447.288 131.975 447.288C115.979 447.288 103.017 447.14 103.017 446.959C103.017 446.777 115.98 446.63 131.975 446.63C147.964 446.63 160.93 446.778 160.93 446.959Z" fill="#6338A1"/>
<path d="M174.637 391.58C174.637 391.762 166.073 391.909 155.511 391.909C144.945 391.909 136.383 391.761 136.383 391.58C136.383 391.398 144.945 391.251 155.511 391.251C166.073 391.249 174.637 391.398 174.637 391.58Z" fill="#6338A1"/>
<path d="M176.029 378.426C176.033 378.608 167.503 378.955 156.977 379.202C146.449 379.449 137.913 379.501 137.908 379.319C137.904 379.136 146.433 378.789 156.961 378.542C167.486 378.296 176.024 378.244 176.029 378.426Z" fill="#6338A1"/>
<path d="M101.967 414.7C102.144 414.74 101.224 419.381 99.9135 425.063C98.6018 430.746 97.3962 435.32 97.2193 435.279C97.0424 435.239 97.9611 430.598 99.2728 424.915C100.583 419.233 101.79 414.658 101.967 414.7Z" fill="#263238"/>
<path d="M161.734 572.88L145.73 623.472L165.023 625.413L183.143 581.462L161.734 572.88Z" fill="#B78876"/>
<path d="M175.849 605.733L166.66 628.577C166.66 628.577 186.734 645.613 185.446 650L140.626 633.728L153.488 597.546L175.849 605.733Z" fill="#455A64"/>
<path d="M153.505 621.597C152.552 621.52 151.599 622.28 151.483 623.231C151.366 624.183 152.13 625.161 153.081 625.255C154.033 625.348 155.204 624.472 155.213 623.513C155.222 622.554 154.264 621.455 153.318 621.592" fill="#E0E0E0"/>
<path d="M140.626 633.728L142.064 630.131L184.499 647.077C184.499 647.077 186.18 648.672 185.446 649.999L140.626 633.728Z" fill="#E0E0E0"/>
<path d="M167.469 628.611C167.383 628.827 166.252 628.53 164.92 628.844C163.579 629.124 162.682 629.873 162.511 629.713C162.325 629.596 163.125 628.404 164.744 628.051C166.36 627.685 167.589 628.427 167.469 628.611Z" fill="#263238"/>
<path d="M171.465 632.267C171.439 632.498 170.356 632.527 169.278 633.186C168.18 633.811 167.63 634.748 167.415 634.659C167.197 634.618 167.51 633.279 168.866 632.486C170.216 631.68 171.536 632.057 171.465 632.267Z" fill="#263238"/>
<path d="M172.099 638.878C171.883 638.852 171.975 637.645 172.971 636.648C173.96 635.643 175.163 635.543 175.19 635.76C175.248 635.985 174.351 636.388 173.546 637.221C172.72 638.033 172.324 638.935 172.099 638.878Z" fill="#263238"/>
<path d="M168.988 623.172C168.823 623.339 167.929 622.672 166.661 622.307C165.401 621.916 164.288 621.982 164.242 621.753C164.173 621.549 165.406 621.078 166.894 621.529C168.382 621.968 169.157 623.039 168.988 623.172Z" fill="#263238"/>
<path d="M170.757 618.53C170.726 618.621 169.813 618.443 168.516 617.704C167.872 617.335 167.143 616.815 166.429 616.128C166.072 615.785 165.721 615.399 165.387 614.974C165.228 614.766 165.032 614.543 164.901 614.198C164.74 613.882 164.814 613.25 165.222 612.995C165.576 612.733 166.036 612.731 166.362 612.842C166.695 612.951 166.939 613.115 167.161 613.263C167.616 613.566 168.025 613.902 168.383 614.25C169.099 614.952 169.616 615.698 169.962 616.364C170.653 617.706 170.711 618.655 170.621 618.671C170.496 618.707 170.239 617.837 169.468 616.655C169.084 616.067 168.558 615.412 167.874 614.798C167.532 614.492 167.149 614.197 166.729 613.931C166.3 613.633 165.897 613.484 165.699 613.651C165.626 613.716 165.608 613.746 165.658 613.921C165.715 614.087 165.861 614.282 166.017 614.489C166.32 614.891 166.637 615.261 166.957 615.598C167.597 616.271 168.25 616.808 168.826 617.22C169.98 618.045 170.803 618.412 170.757 618.53Z" fill="#263238"/>
<path d="M170.357 618.74C170.267 618.745 170.117 617.802 170.551 616.352C170.768 615.634 171.15 614.807 171.746 614C172.047 613.598 172.401 613.205 172.811 612.84C173.235 612.492 173.769 612.013 174.654 612.225C175.104 612.369 175.346 612.849 175.365 613.193C175.403 613.55 175.339 613.822 175.297 614.101C175.19 614.656 174.994 615.166 174.751 615.617C174.265 616.523 173.587 617.177 172.953 617.594C171.656 618.44 170.648 618.37 170.657 618.289C170.624 618.152 171.54 618.005 172.614 617.13C173.144 616.698 173.7 616.077 174.088 615.274C174.282 614.874 174.435 614.43 174.516 613.959C174.618 613.456 174.579 613.006 174.383 612.99C174.162 612.905 173.653 613.128 173.332 613.442C172.957 613.761 172.624 614.107 172.335 614.459C171.761 615.17 171.358 615.902 171.089 616.547C170.552 617.843 170.489 618.75 170.357 618.74Z" fill="#263238"/>
<path d="M222.453 525.256L246.335 566.872L265.871 554.307L241.888 512.059L222.453 525.256Z" fill="#B78876"/>
<path d="M259.132 542.415L271.468 563.717C271.468 563.717 297.208 558.3 299.87 562.015L259.531 587.478L238.952 555.078L259.132 542.415Z" fill="#455A64"/>
<path d="M257.893 569.839C257.248 570.546 257.26 571.766 257.938 572.442C258.615 573.119 259.853 573.116 260.512 572.421C261.17 571.725 261.199 570.26 260.45 569.664C259.701 569.069 258.247 569.151 257.775 569.985" fill="#E0E0E0"/>
<path d="M259.531 587.478L257.584 584.131L296.989 560.968C296.989 560.968 299.276 560.617 299.87 562.015L259.531 587.478Z" fill="#E0E0E0"/>
<path d="M271.993 563.099C272.11 563.3 271.181 564.012 270.611 565.259C270.009 566.49 270.047 567.661 269.815 567.698C269.609 567.774 269.162 566.408 269.879 564.911C270.582 563.407 271.922 562.89 271.993 563.099Z" fill="#263238"/>
<path d="M277.325 562.182C277.491 562.345 276.848 563.219 276.704 564.476C276.523 565.729 276.921 566.739 276.719 566.854C276.553 567.002 275.69 565.932 275.9 564.371C276.096 562.811 277.203 561.997 277.325 562.182Z" fill="#263238"/>
<path d="M282.917 565.742C282.764 565.898 281.871 565.083 281.698 563.683C281.515 562.283 282.175 561.271 282.361 561.382C282.575 561.475 282.341 562.433 282.502 563.58C282.634 564.731 283.101 565.599 282.917 565.742Z" fill="#263238"/>
<path d="M268.644 558.557C268.674 558.789 267.6 559.087 266.533 559.866C265.452 560.622 264.821 561.544 264.611 561.439C264.408 561.368 264.794 560.104 266.062 559.205C267.324 558.295 268.644 558.34 268.644 558.557Z" fill="#263238"/>
<path d="M266.076 554.305C266.129 554.385 265.428 555 264.049 555.57C263.363 555.854 262.506 556.111 261.527 556.253C261.038 556.324 260.518 556.365 259.979 556.368C259.717 556.365 259.421 556.384 259.07 556.277C258.723 556.208 258.27 555.764 258.319 555.283C258.331 554.843 258.611 554.478 258.899 554.288C259.19 554.09 259.469 553.999 259.723 553.914C260.241 553.739 260.756 553.624 261.251 553.553C262.243 553.417 263.148 553.467 263.883 553.602C265.365 553.881 266.148 554.417 266.104 554.497C266.056 554.618 265.212 554.288 263.809 554.171C263.11 554.114 262.271 554.128 261.367 554.29C260.916 554.374 260.45 554.495 259.982 554.664C259.485 554.821 259.119 555.048 259.129 555.308C259.136 555.405 259.148 555.437 259.316 555.506C259.482 555.563 259.726 555.567 259.984 555.571C260.487 555.579 260.973 555.556 261.434 555.509C262.358 555.415 263.181 555.229 263.858 555.026C265.218 554.622 266.013 554.196 266.076 554.305Z" fill="#263238"/>
<path d="M265.998 554.75C265.947 554.825 265.112 554.364 264.236 553.13C263.804 552.517 263.387 551.706 263.119 550.738C262.988 550.254 262.895 549.732 262.861 549.183C262.846 548.635 262.799 547.918 263.508 547.348C263.897 547.08 264.426 547.184 264.706 547.379C265.011 547.568 265.185 547.787 265.38 547.991C265.751 548.417 266.033 548.886 266.238 549.354C266.651 550.296 266.75 551.233 266.689 551.991C266.559 553.536 265.885 554.291 265.827 554.234C265.699 554.176 266.147 553.362 266.116 551.974C266.101 551.29 265.955 550.469 265.56 549.667C265.365 549.268 265.109 548.874 264.788 548.521C264.456 548.13 264.077 547.886 263.944 548.03C263.742 548.153 263.604 548.693 263.654 549.14C263.674 549.633 263.742 550.108 263.843 550.554C264.049 551.445 264.379 552.214 264.721 552.822C265.411 554.046 266.086 554.653 265.998 554.75Z" fill="#263238"/>
<path d="M151.364 519.387L198.261 487.415L227.844 545.149L254.745 530.557C254.745 530.557 223.766 454.829 212.646 452.384C206.414 451.014 134.971 464.694 134.971 464.694L126.988 460.671L106.779 458.207L105.488 461.483C98.3479 479.601 99.163 499.898 107.733 517.381L108.717 519.388H151.364V519.387Z" fill="#263238"/>
<path d="M134.898 479.399C135.247 480.984 174.016 517.38 174.016 517.38L151.646 592.745L185.031 599.148L218.556 508.358L157.281 448.094L129.296 459.904L134.898 479.399Z" fill="#263238"/>
<path d="M198.262 487.415C198.365 487.566 187.948 494.846 175 503.673C162.047 512.504 151.468 519.539 151.365 519.388C151.263 519.237 161.677 511.959 174.63 503.129C187.578 494.3 198.16 487.264 198.262 487.415Z" fill="#455A64"/>
<path d="M222.334 534.396C222.295 534.419 221.895 533.797 221.202 532.653C220.503 531.512 219.542 529.834 218.368 527.752C216.035 523.58 212.926 517.754 209.634 511.248C206.337 504.741 203.452 498.803 201.414 494.481C200.395 492.319 199.585 490.563 199.042 489.342C198.499 488.121 198.221 487.435 198.261 487.415C198.303 487.395 198.658 488.044 199.273 489.231C199.929 490.524 200.791 492.224 201.832 494.277C204.028 498.641 206.969 504.487 210.221 510.951C213.511 517.452 216.552 523.305 218.777 527.531C219.855 529.563 220.747 531.246 221.426 532.527C222.049 533.708 222.374 534.373 222.334 534.396Z" fill="#455A64"/>
<path d="M181.028 503.924C181.188 504.009 179.582 507.625 177.44 512C175.297 516.375 173.427 519.861 173.261 519.785C173.096 519.709 174.702 516.094 176.85 511.708C178.996 507.326 180.867 503.839 181.028 503.924Z" fill="#455A64"/>
<path d="M76.0018 431.12L68.4676 459.196C67.4933 462.828 67.9406 466.696 69.7199 470.007C72.8602 475.852 79.5136 478.87 85.9673 477.372L146.055 462.532L139.773 450.021L92.4362 454.136L97.5062 434.845L76.0018 431.12Z" fill="#B78876"/>
<path d="M102.657 473.738L103.44 469.657L136.002 463.791L145.465 413.458L205.947 406.236L195.784 459.966L102.657 473.738Z" fill="#455A64"/>
<path d="M172.623 440.56C171.038 440.253 170.039 438.519 170.391 436.687C170.744 434.854 172.315 433.616 173.899 433.923C175.484 434.229 176.484 435.964 176.131 437.797C175.778 439.629 174.208 440.866 172.623 440.56Z" fill="#EBEBEB"/>
<path d="M111.506 329.391L111.619 333.03L112.98 387.516C113.138 393.841 118.688 398.743 125.443 398.521C132.264 398.297 137.745 392.938 137.691 386.545C137.634 379.836 137.696 372.771 137.696 372.771C137.696 372.771 146.3 371.236 147.956 359.938C148.778 354.319 148.392 345.128 147.832 337.616C147.328 330.856 141.318 325.876 134.602 326.667L111.506 329.391Z" fill="#B78876"/>
<path d="M143.476 343.901C143.511 344.665 142.896 345.324 142.102 345.377C141.309 345.429 140.636 344.854 140.6 344.09C140.564 343.327 141.179 342.666 141.972 342.614C142.766 342.561 143.439 343.137 143.476 343.901Z" fill="#263238"/>
<path d="M145.9 342.425C145.723 342.615 144.621 341.818 143.068 341.84C141.517 341.84 140.388 342.653 140.217 342.464C140.134 342.381 140.312 342.039 140.803 341.671C141.287 341.305 142.116 340.944 143.083 340.938C144.05 340.932 144.867 341.279 145.339 341.638C145.822 342.001 145.987 342.339 145.9 342.425Z" fill="#263238"/>
<path d="M128.154 344.461C128.189 345.224 127.573 345.884 126.78 345.936C125.986 345.988 125.314 345.413 125.277 344.65C125.242 343.886 125.857 343.226 126.65 343.174C127.445 343.122 128.118 343.698 128.154 344.461Z" fill="#263238"/>
<path d="M130.644 342.893C130.467 343.083 129.364 342.286 127.812 342.307C126.262 342.307 125.132 343.121 124.96 342.932C124.877 342.848 125.054 342.506 125.547 342.139C126.031 341.773 126.86 341.412 127.826 341.405C128.793 341.399 129.611 341.747 130.083 342.106C130.565 342.468 130.73 342.808 130.644 342.893Z" fill="#263238"/>
<path d="M136.412 354.368C136.403 354.28 137.367 354.102 138.928 353.883C139.323 353.838 139.697 353.754 139.762 353.483C139.852 353.195 139.681 352.768 139.484 352.308C139.1 351.351 138.698 350.347 138.277 349.296C136.599 345.006 135.379 341.478 135.553 341.41C135.726 341.345 137.226 344.766 138.904 349.056C139.308 350.114 139.695 351.123 140.063 352.087C140.218 352.536 140.482 353.046 140.286 353.644C140.183 353.941 139.895 354.161 139.641 354.233C139.388 354.314 139.164 354.32 138.968 354.334C137.395 354.439 136.418 354.457 136.412 354.368Z" fill="#263238"/>
<path d="M137.698 372.773C137.698 372.773 130.136 373.35 122.587 368.92C122.587 368.92 126.331 376.624 137.577 375.437L137.698 372.773Z" fill="#AA6550"/>
<path d="M131.269 340.331C131.095 340.747 129.558 340.474 127.728 340.61C125.895 340.709 124.403 341.175 124.179 340.785C124.079 340.598 124.354 340.213 124.967 339.831C125.573 339.449 126.53 339.105 127.627 339.034C128.724 338.964 129.717 339.184 130.366 339.486C131.022 339.785 131.343 340.133 131.269 340.331Z" fill="#263238"/>
<path d="M145.25 337.026C144.981 337.382 143.907 337.028 142.622 337.026C141.335 336.979 140.25 337.29 139.995 336.924C139.883 336.746 140.05 336.39 140.522 336.05C140.987 335.711 141.768 335.429 142.652 335.446C143.535 335.464 144.305 335.775 144.756 336.132C145.215 336.488 145.369 336.852 145.25 337.026Z" fill="#263238"/>
<path d="M136.241 360.005C135.803 360.137 135.331 359.979 134.89 359.865C134.449 359.736 134.032 359.622 133.682 359.506C133.331 359.389 132.929 359.232 132.498 359.071C132.076 358.899 131.605 358.742 131.332 358.374C131.064 358.022 131.118 357.413 131.725 356.872C132.305 356.34 133.475 355.966 134.717 356.375C135.957 356.789 136.674 357.79 136.821 358.564C136.986 359.361 136.666 359.883 136.241 360.005Z" fill="#AA6550"/>
<path d="M136.455 359.868C136.305 359.973 135.55 358.42 133.734 357.951C131.917 357.489 130.512 358.487 130.43 358.324C130.377 358.263 130.636 357.911 131.251 357.593C131.853 357.276 132.846 357.044 133.897 357.313C134.947 357.584 135.708 358.265 136.083 358.832C136.471 359.407 136.529 359.84 136.455 359.868Z" fill="#263238"/>
<path d="M124.517 322.041C128.113 327.411 127.201 335.348 122.478 339.757C119.789 342.268 115.787 344.227 115.514 347.901C115.211 351.97 119.913 355.014 119.919 359.095C119.927 363.29 115.098 365.964 114.159 370.051C113.404 373.343 115.365 376.643 117.638 379.135C119.912 381.627 122.646 383.838 124.011 386.925C125.516 390.33 125.09 394.354 123.627 397.776C122.165 401.2 119.757 404.124 117.274 406.893C113.919 405.683 110.411 404.901 106.861 404.57C107.084 403.224 107.307 401.879 107.53 400.532C107.607 402.098 106.298 403.465 104.813 403.956C103.328 404.448 101.713 404.258 100.169 404.015C95.435 403.267 90.772 402.066 86.2656 400.432C88.189 398.5 90.1477 396.52 91.3457 394.068C92.5437 391.617 92.8659 388.563 91.486 386.21C90.3764 384.317 88.3292 383.101 87.3082 381.158C85.7753 378.247 87.0377 374.544 89.2151 372.08C91.3925 369.616 94.3394 367.995 96.9287 365.969C99.5168 363.944 101.895 361.203 102.104 357.917C102.374 353.654 98.9342 349.769 99.3563 345.518C99.8365 340.677 104.943 337.717 106.949 333.287C108.399 330.08 108.205 326.125 110.431 323.403C112.08 321.387 114.819 320.479 117.416 320.614C120.013 320.75 122.483 321.816 124.699 323.181" fill="#263238"/>
<path d="M138.638 373.985C136.606 375.109 136.724 378.203 137.961 380.17C139.198 382.139 141.189 383.544 142.411 385.522C144.59 389.05 143.648 394.172 140.354 396.688L145.208 398.529L146.267 397.928L149.247 396.238L147.849 399.689L150.957 399.688C154.225 399.726 157.44 397.793 158.944 394.884C160.447 391.975 160.171 388.226 158.255 385.572C156.976 383.8 154.992 382.387 154.561 380.242C154.042 377.657 155.99 375.31 156.944 372.853C158.539 368.746 157.081 363.657 153.554 361.027" fill="#263238"/>
</g>
<g opacity="0.6" clip-path="url(#clip1_506_116427)">
<path d="M162.4 73V178.504H12.5102L7.11084 73.7375L162.4 73Z" fill="#E0E0E0"/>
<path d="M7.11133 73.7369L7.11133 178.281H157V73.7369L7.11133 73.7369Z" fill="white"/>
<path d="M157.71 179H6.3999V73.0187H157.71V179ZM7.8219 177.562H156.288V74.4563H7.8219V177.562Z" fill="#E0E0E0"/>
<path d="M140.766 86.726H23.3445V165.293H140.766V86.726Z" fill="white"/>
<path d="M140.766 86.726C140.766 86.726 140.564 86.739 140.187 86.7462C139.789 86.7505 139.237 86.7577 138.517 86.7663C137.03 86.7763 134.87 86.7893 132.069 86.808C126.428 86.8295 118.227 86.8612 107.871 86.9014C87.1635 86.9431 57.8534 87.002 23.3444 87.0711L23.6842 86.7275C23.6942 110.732 23.7041 137.329 23.7141 165.284V165.293L23.3444 164.919C67.6381 164.948 108.476 164.974 140.764 164.995L140.47 165.293C140.535 141.384 140.588 121.78 140.625 108.129C140.658 101.306 140.683 95.9754 140.7 92.3211C140.714 90.5155 140.726 89.1297 140.733 88.1679C140.744 87.2263 140.766 86.726 140.766 86.726C140.766 86.726 140.787 87.1832 140.797 88.1047C140.804 89.0549 140.815 90.4221 140.83 92.2032C140.847 95.8417 140.872 101.149 140.905 107.943C140.942 121.639 140.995 141.305 141.06 165.293L141.061 165.592H140.766C108.478 165.613 67.6395 165.639 23.3458 165.668H22.9761V165.293V165.283C22.9875 137.327 22.9974 110.731 23.0059 86.726V86.381H23.3458C57.9458 86.45 87.3327 86.509 108.095 86.5506C118.419 86.5909 126.594 86.6211 132.215 86.6427C134.987 86.6613 137.124 86.6743 138.596 86.6843C139.298 86.693 139.838 86.7002 140.227 86.7045C140.591 86.7131 140.766 86.726 140.766 86.726Z" fill="#E0E0E0"/>
<path d="M7.11094 73.4442C7.1735 73.3623 8.15468 74.0135 9.68759 75.1319C11.2205 76.2518 13.3094 77.8389 15.5633 79.6632C17.8186 81.4889 19.8008 83.214 21.1972 84.5064C22.5936 85.7988 23.4098 86.6513 23.3444 86.7274C23.2051 86.887 19.6017 83.8825 15.1011 80.2483C10.5962 76.6169 6.97869 73.6153 7.11094 73.4442Z" fill="#E0E0E0"/>
<path d="M156.999 73.7375C157.126 73.8999 153.595 76.939 149.113 80.5243C144.629 84.1125 140.892 86.887 140.766 86.726C140.639 86.565 144.17 83.5245 148.654 79.9378C153.134 76.3524 156.873 73.5765 156.999 73.7375Z" fill="#E0E0E0"/>
<path d="M156.879 178.295C151.31 173.731 145.738 169.167 140.168 164.602L156.879 178.295Z" fill="white"/>
<path d="M140.168 164.603C140.296 164.442 144.143 167.377 148.757 171.158C153.373 174.94 157.009 178.136 156.88 178.296C156.752 178.457 152.907 175.521 148.291 171.739C143.676 167.959 140.04 164.764 140.168 164.603Z" fill="#E0E0E0"/>
<path d="M7.111 178.281C6.98444 178.119 10.4783 175.111 14.9149 171.565C19.353 168.017 23.0516 165.273 23.1795 165.435C23.3061 165.597 19.8123 168.603 15.3742 172.153C10.9376 175.698 7.23756 178.444 7.111 178.281Z" fill="#E0E0E0"/>
<path d="M47.1863 111.205V137.511H121.069V111.205H47.1863Z" fill="#E0E0E0"/>
</g>
<g clip-path="url(#clip2_506_116427)">
<path d="M385.39 312.934C395.704 320.952 410.564 319.09 418.582 308.777C426.6 298.463 424.738 283.603 414.425 275.585C405.603 268.727 393.459 269.103 385.112 275.807L385.105 275.801L379.916 271.767L372.21 274.17L373.092 266.464L366.59 261.41L358.885 263.812L359.767 256.106L354.178 251.762L349.482 253.226L350.02 248.53L346.768 246L339.392 246.728L338.4 258.064L377.06 288.118C374.667 297.033 377.645 306.913 385.39 312.934ZM413.554 304.868C411.254 307.826 406.991 308.361 404.033 306.06C401.075 303.76 400.54 299.497 402.84 296.539C405.14 293.581 409.403 293.046 412.361 295.346C415.32 297.647 415.854 301.91 413.554 304.868Z" fill="#EBEBEB"/>
</g>
<path d="M114.94 10.5004C110.699 14.586 109.085 20.9459 113.131 25.8546C116.94 30.4736 124.309 31.4537 129.068 27.7715C140.55 18.8801 128.582 2.47537 116.189 5.87057C113.895 6.49871 114.467 9.78021 116.735 9.91017C120.357 10.1186 124.236 10.2567 127.132 12.8045C130.242 15.5418 130.309 20.1689 127.758 23.315C121.002 31.646 109.271 19.3783 116.365 11.93C117.258 10.9877 115.876 9.5988 114.94 10.5004Z" fill="#3D3D3D" fill-opacity="0.1"/>
<path d="M109.541 5.08542C105.301 9.17104 103.686 15.531 107.733 20.4397C111.541 25.0586 118.91 26.0388 123.669 22.3566C135.152 13.4651 123.183 -2.93961 110.791 0.455597C108.496 1.08374 109.069 4.36523 111.336 4.49519C114.959 4.70367 118.837 4.84175 121.734 7.38951C124.843 10.1268 124.911 14.7539 122.36 17.9C115.604 26.231 103.873 13.9633 110.966 6.51498C111.86 5.57277 110.478 4.18382 109.541 5.08542Z" fill="#8AA9FC"/>
<path d="M428.798 154.247C428.798 154.247 443.148 186.567 447.148 184.875C451.148 183.182 488.21 160.12 488.21 160.12C488.21 160.12 473.021 131.182 469.86 129.493C466.699 127.803 428.798 154.247 428.798 154.247Z" fill="#3D3D3D" fill-opacity="0.09"/>
<path d="M423.4 148.832C423.4 148.832 437.749 181.152 441.75 179.46C445.75 177.767 482.811 154.705 482.811 154.705C482.811 154.705 467.622 125.767 464.461 124.078C461.301 122.388 423.4 148.832 423.4 148.832Z" fill="#D6B0EA"/>
<path d="M464.461 124.077C464.642 124.145 463.587 127.462 461.735 132.763C459.881 138.067 457.23 145.358 454.22 153.381C454.145 153.578 454.072 153.776 454.004 153.96L453.802 154.502L453.235 154.41C444.935 153.053 437.46 151.753 432.07 150.746C426.679 149.739 423.373 149.024 423.403 148.835C423.432 148.645 426.796 149.016 432.227 149.772C437.657 150.527 445.156 151.67 453.459 153.018L452.69 153.465C452.757 153.283 452.833 153.086 452.906 152.885C455.915 144.863 458.715 137.626 460.807 132.414C462.893 127.199 464.278 124.007 464.461 124.077Z" fill="#1A3066"/>
<path d="M437.034 175.664C436.656 175.58 437.771 170.27 439.525 163.81C441.283 157.347 443.005 152.206 443.375 152.325C443.744 152.444 442.63 157.751 440.883 164.181C439.137 170.606 437.412 175.748 437.034 175.664Z" fill="#1A3066"/>
<path d="M480.366 148.275C480.303 148.659 475.134 148.158 468.815 147.154C462.496 146.149 457.424 145.023 457.484 144.638C457.543 144.254 462.715 144.755 469.034 145.759C475.353 146.764 480.425 147.89 480.366 148.275Z" fill="#1A3066"/>
<path d="M295.811 32.5036C296.391 36.2697 300.286 44.2162 304.394 45.3127C306.573 45.8948 308.192 44.4545 309.885 43.2848C312.967 41.154 316.015 38.9745 319.062 36.7949C320.164 36.0071 320.817 34.4936 319.996 33.2265C317.297 29.0623 314.6 24.8955 311.901 20.7313C311.186 19.6267 309.537 18.9498 308.344 19.7945C304.975 22.1853 301.363 24.4027 298.289 27.1725C296.183 29.0677 298.872 32.2924 301.234 31.0009C304.659 29.1246 307.782 26.5606 310.97 24.2998C309.785 23.9885 308.597 23.6771 307.412 23.363C310.112 27.5272 312.808 31.694 315.507 35.8581C315.818 34.6695 316.128 33.4782 316.441 32.2897C314.611 33.5974 312.776 34.897 310.951 36.2101C310.036 36.868 306.292 40.2957 305.299 40.071C304.119 39.8057 302.216 36.3969 301.471 35.5062C300.175 33.9602 298.961 32.5008 297.29 31.361C296.483 30.8114 295.689 31.7211 295.811 32.5036Z" fill="#3D3D3D" fill-opacity="0.1"/>
<path d="M290.412 27.0885C290.993 30.8547 294.888 38.8012 298.996 39.8977C301.174 40.4798 302.794 39.0394 304.486 37.8698C307.569 35.739 310.616 33.5595 313.664 31.3799C314.765 30.592 315.418 29.0786 314.598 27.8114C311.899 23.6473 309.202 19.4805 306.503 15.3163C305.787 14.2117 304.138 13.5348 302.945 14.3795C299.576 16.7703 295.965 18.9877 292.89 21.7575C290.785 23.6527 293.473 26.8774 295.835 25.5859C299.261 23.7096 302.384 21.1456 305.571 18.8848C304.386 18.5735 303.199 18.2621 302.014 17.948C304.713 22.1122 307.41 26.279 310.109 30.4431C310.419 29.2545 310.73 28.0632 311.043 26.8746C309.213 28.1824 307.377 29.482 305.553 30.7951C304.638 31.453 300.894 34.8807 299.9 34.656C298.721 34.3907 296.818 30.9819 296.073 30.0912C294.777 28.5452 293.562 27.0858 291.891 25.946C291.084 25.3964 290.291 26.3061 290.412 27.0885Z" fill="#EDC483"/>
<path d="M59.9395 713.5C55.6989 717.586 54.0848 723.946 58.131 728.855C61.9397 733.474 69.3087 734.456 74.0676 730.772C85.5504 721.88 73.5817 705.475 61.1893 708.871C58.8949 709.499 59.4671 712.78 61.7345 712.91C65.3597 713.119 69.2359 713.257 72.1322 715.805C75.2418 718.542 75.3093 723.169 72.7584 726.315C66.0048 734.646 54.271 722.378 61.3647 714.93C62.2555 713.988 60.8735 712.602 59.9395 713.5Z" fill="#3D3D3D" fill-opacity="0.1"/>
<path d="M54.5411 708.085C50.3005 712.171 48.6863 718.531 52.7326 723.44C56.5413 728.059 63.9103 729.041 68.6691 725.357C80.1519 716.465 68.1833 700.06 55.7908 703.456C53.4965 704.084 54.0687 707.365 56.3361 707.495C59.9613 707.704 63.8374 707.842 66.7338 710.39C69.8433 713.127 69.9108 717.754 67.36 720.9C60.6064 729.231 48.8726 716.963 55.9663 709.515C56.8571 708.573 55.475 707.187 54.5411 708.085Z" fill="#8AA9FC"/>
<path d="M9.31027 214.47C7.84726 222.089 6.60019 229.724 5.4368 237.397C5.15877 239.241 6.42204 240.487 8.24946 240.219C15.4296 239.171 22.5935 238.204 29.6791 236.631C31.0422 236.328 31.5956 234.644 30.9478 233.501C26.9312 226.408 21.8161 216.531 14.2581 212.662C12.3443 211.682 9.63419 213.802 11.0648 215.865C13.316 219.111 16.6442 221.545 19.2599 224.518C22.275 227.943 25.1065 231.628 27.2794 235.654C27.8922 234.584 28.5022 233.515 29.115 232.448C21.6892 233.185 14.3822 234.522 7.03479 235.797C7.99843 236.534 8.96477 237.273 9.92842 238.009C10.8111 230.298 11.602 222.604 12.1796 214.863C12.3011 213.228 9.62069 212.846 9.31027 214.47Z" fill="#3D3D3D" fill-opacity="0.1"/>
<path d="M3.91183 209.055C2.44882 216.674 1.20176 224.309 0.0383635 231.982C-0.239663 233.826 1.0236 235.072 2.85102 234.804C10.0311 233.756 17.195 232.789 24.2807 231.216C25.6438 230.913 26.1972 229.229 25.5493 228.086C21.5328 220.993 16.4176 211.116 8.85962 207.247C6.94583 206.267 4.23575 208.387 5.66637 210.45C7.91758 213.696 11.2458 216.13 13.8614 219.103C16.8765 222.528 19.7081 226.213 21.881 230.239C22.4937 229.169 23.1038 228.1 23.7165 227.033C16.2908 227.77 8.98381 229.107 1.63635 230.382C2.59999 231.119 3.56633 231.858 4.52998 232.594C5.41265 224.883 6.20354 217.189 6.78118 209.448C6.90265 207.813 4.22225 207.431 3.91183 209.055Z" fill="#E3707F"/>
<path d="M453.633 750.663C455.295 743.201 456.642 735.168 456.974 727.524C457.077 725.142 453.206 724.543 452.761 726.953C451.36 734.518 450.855 742.597 450.798 750.278C450.788 751.878 453.271 752.282 453.633 750.663Z" fill="#3D3D3D" fill-opacity="0.1"/>
<path d="M448.234 745.248C449.897 737.786 451.244 729.753 451.576 722.109C451.678 719.727 447.808 719.128 447.362 721.538C445.961 729.103 445.457 737.182 445.4 744.863C445.389 746.463 447.872 746.867 448.234 745.248Z" fill="#E8947E"/>
<path d="M184.104 624.701C190.801 628.323 198.14 631.854 205.396 634.196C207.682 634.935 209.237 631.364 207.048 630.265C200.224 626.832 192.537 624.184 185.216 622.058C183.661 621.606 182.649 623.913 184.104 624.701Z" fill="#E3707F"/>
<defs>
<clipPath id="clip0_506_116427">
<rect width="425" height="337" fill="white" transform="translate(18.3999 313)"/>
</clipPath>
<clipPath id="clip1_506_116427">
<rect width="156" height="106" fill="white" transform="translate(6.3999 73)"/>
</clipPath>
<clipPath id="clip2_506_116427">
<rect width="85.162" height="71.914" fill="white" transform="translate(338.4 246)"/>
</clipPath>
</defs>
</svg>
